G04*
G04 #@! TF.GenerationSoftware,Altium Limited,Altium Designer,26.5.0 (11)*
G04*
G04 Layer_Color=16711935*
G04 Board_Origin=25968898|13934251*
%FSLAX44Y44*%
%MOMM*%
G71*
G04*
G04 #@! TF.SameCoordinates,52F1D67A-09F0-48E2-AEE0-20A34439047D*
G04*
G04*
G04 #@! TF.FilePolarity,Negative*
G04*
G01*
G75*
%ADD29R,2.3032X2.3032*%
%ADD30C,2.3032*%
%ADD31C,1.7272*%
%ADD32R,2.3032X2.3032*%
%ADD33R,2.0632X2.0632*%
%ADD34C,2.0632*%
%ADD35C,0.6032*%
%ADD36C,0.4318*%
%ADD37C,0.4400*%
%ADD38C,0.7032*%
%ADD39C,0.7112*%
D29*
X856500Y140500D02*
D03*
X30000Y378060D02*
D03*
X856500Y465620D02*
D03*
D30*
Y190500D02*
D03*
X286940Y624120D02*
D03*
X856500Y515620D02*
D03*
X30000Y328060D02*
D03*
X336940Y32000D02*
D03*
X30000Y278060D02*
D03*
D31*
X749300Y99460D02*
D03*
X744220Y231540D02*
D03*
X132870Y639210D02*
D03*
X107470D02*
D03*
X132870Y563010D02*
D03*
X107470D02*
D03*
X421160Y632860D02*
D03*
Y582060D02*
D03*
X744220Y424580D02*
D03*
Y556660D02*
D03*
Y282340D02*
D03*
X749300Y48660D02*
D03*
X744220Y607460D02*
D03*
Y373780D02*
D03*
X421160Y75330D02*
D03*
Y24530D02*
D03*
X132870Y314090D02*
D03*
Y237890D02*
D03*
X107470Y314090D02*
D03*
Y237890D02*
D03*
D32*
X336940Y624120D02*
D03*
X286940Y32000D02*
D03*
D33*
X207800Y623970D02*
D03*
X218800Y32000D02*
D03*
D34*
X207800Y573170D02*
D03*
Y598570D02*
D03*
X218800Y57400D02*
D03*
Y82800D02*
D03*
D35*
X160430Y147350D02*
D03*
X132870Y173830D02*
D03*
X352640Y526370D02*
D03*
Y532870D02*
D03*
X107470Y498950D02*
D03*
X132870D02*
D03*
X149270Y623970D02*
D03*
X160430Y472720D02*
D03*
X161970Y585870D02*
D03*
X210340Y509570D02*
D03*
X229390Y522750D02*
D03*
X271240Y487370D02*
D03*
Y513370D02*
D03*
X271643Y519870D02*
D03*
X352640Y454870D02*
D03*
X489740Y604160D02*
D03*
X516410Y602160D02*
D03*
X352640Y448370D02*
D03*
X261140Y419870D02*
D03*
X149270Y32000D02*
D03*
Y82800D02*
D03*
X107470Y173830D02*
D03*
X271643Y162250D02*
D03*
X210340Y184450D02*
D03*
X229390Y197450D02*
D03*
X271643Y194750D02*
D03*
Y188250D02*
D03*
X516410Y53230D02*
D03*
X489740Y55230D02*
D03*
X352640Y123250D02*
D03*
Y129750D02*
D03*
Y201250D02*
D03*
Y207750D02*
D03*
D36*
X464820Y160020D02*
D03*
X457200D02*
D03*
X449580D02*
D03*
X441960D02*
D03*
Y149860D02*
D03*
X449580D02*
D03*
X457200D02*
D03*
X464820D02*
D03*
X441960Y139700D02*
D03*
X449580D02*
D03*
X457200D02*
D03*
X464820D02*
D03*
X441960Y129540D02*
D03*
X449580D02*
D03*
X457200D02*
D03*
X464820D02*
D03*
X441960Y119380D02*
D03*
X449580D02*
D03*
X457200D02*
D03*
X464820D02*
D03*
Y210820D02*
D03*
X457200D02*
D03*
X449580D02*
D03*
X441960D02*
D03*
Y200660D02*
D03*
X449580D02*
D03*
X457200D02*
D03*
X464820D02*
D03*
X441960Y190500D02*
D03*
X449580D02*
D03*
X457200D02*
D03*
X464820D02*
D03*
X441960Y180340D02*
D03*
X449580D02*
D03*
X457200D02*
D03*
X464820D02*
D03*
X441960Y170180D02*
D03*
X449580D02*
D03*
X457200D02*
D03*
X464820D02*
D03*
Y485140D02*
D03*
X457200D02*
D03*
X449580D02*
D03*
X441960D02*
D03*
Y474980D02*
D03*
X449580D02*
D03*
X457200D02*
D03*
X464820D02*
D03*
X441960Y464820D02*
D03*
X449580D02*
D03*
X457200D02*
D03*
X464820D02*
D03*
X441960Y454660D02*
D03*
X449580D02*
D03*
X457200D02*
D03*
X464820D02*
D03*
X441960Y444500D02*
D03*
X449580D02*
D03*
X457200D02*
D03*
X464820D02*
D03*
Y495300D02*
D03*
X457200D02*
D03*
X449580D02*
D03*
X441960D02*
D03*
X464820Y505460D02*
D03*
X457200D02*
D03*
X449580D02*
D03*
X441960D02*
D03*
X464820Y515620D02*
D03*
X457200D02*
D03*
X449580D02*
D03*
X441960D02*
D03*
X464820Y525780D02*
D03*
X457200D02*
D03*
X449580D02*
D03*
X441960D02*
D03*
Y535940D02*
D03*
X449580D02*
D03*
X457200D02*
D03*
X464820D02*
D03*
X392801Y196615D02*
D03*
X403799D02*
D03*
X398300Y187090D02*
D03*
X387302Y180740D02*
D03*
Y505860D02*
D03*
X392801Y521735D02*
D03*
X387449Y475295D02*
D03*
X403799Y459505D02*
D03*
X392801D02*
D03*
X398300Y512210D02*
D03*
X403799Y521735D02*
D03*
X398300Y469030D02*
D03*
X398300Y143910D02*
D03*
X403799Y134385D02*
D03*
X392801D02*
D03*
X387449Y150175D02*
D03*
D37*
X311940Y477620D02*
D03*
Y464620D02*
D03*
Y503620D02*
D03*
Y516620D02*
D03*
X319940D02*
D03*
Y503620D02*
D03*
Y490620D02*
D03*
Y477620D02*
D03*
Y464620D02*
D03*
X303940Y503620D02*
D03*
Y490620D02*
D03*
Y477620D02*
D03*
Y464620D02*
D03*
X311940Y490620D02*
D03*
X303940Y516620D02*
D03*
Y139500D02*
D03*
X311940Y152500D02*
D03*
X303940D02*
D03*
X311940Y165500D02*
D03*
Y139500D02*
D03*
X319940D02*
D03*
Y165500D02*
D03*
Y152500D02*
D03*
X303940Y178500D02*
D03*
Y165500D02*
D03*
Y191500D02*
D03*
X311940Y178500D02*
D03*
X319940D02*
D03*
X311940Y191500D02*
D03*
X319940D02*
D03*
D38*
X353000Y474370D02*
D03*
Y506870D02*
D03*
X326000Y181750D02*
D03*
Y149250D02*
D03*
X353000Y181750D02*
D03*
Y149250D02*
D03*
D39*
X256060Y493870D02*
D03*
Y168750D02*
D03*
M02*
