G04*
G04 #@! TF.GenerationSoftware,Altium Limited,Altium Designer,26.5.0 (11)*
G04*
G04 Layer_Physical_Order=2*
G04 Layer_Color=16711680*
G04 Board_Origin=25968898|13934251*
%FSLAX44Y44*%
%MOMM*%
G71*
G04*
G04 #@! TF.SameCoordinates,52F1D67A-09F0-48E2-AEE0-20A34439047D*
G04*
G04*
G04 #@! TF.FilePolarity,Positive*
G04*
G01*
G75*
%ADD11C,0.2540*%
%ADD42R,2.1000X2.1000*%
%ADD43C,2.1000*%
%ADD44C,1.5240*%
%ADD45R,2.1000X2.1000*%
%ADD46R,1.8600X1.8600*%
%ADD47C,1.8600*%
%ADD48C,0.4000*%
%ADD49C,0.3810*%
%ADD50C,0.3000*%
%ADD51C,0.5000*%
%ADD52C,0.5080*%
G36*
X889000Y0D02*
X0D01*
X-0Y657860D01*
X889000D01*
Y0D01*
D02*
G37*
%LPC*%
G36*
X134005Y647830D02*
X131735D01*
X129543Y647243D01*
X127577Y646108D01*
X125972Y644503D01*
X124837Y642537D01*
X124250Y640345D01*
Y638075D01*
X124837Y635883D01*
X125972Y633917D01*
X127577Y632312D01*
X129543Y631177D01*
X131735Y630590D01*
X134005D01*
X136197Y631177D01*
X138163Y632312D01*
X139768Y633917D01*
X140903Y635883D01*
X141490Y638075D01*
Y640345D01*
X140903Y642537D01*
X139768Y644503D01*
X138163Y646108D01*
X136197Y647243D01*
X134005Y647830D01*
D02*
G37*
G36*
X108605D02*
X106335D01*
X104143Y647243D01*
X102177Y646108D01*
X100572Y644503D01*
X99437Y642537D01*
X98850Y640345D01*
Y638075D01*
X99437Y635883D01*
X100572Y633917D01*
X102177Y632312D01*
X104143Y631177D01*
X106335Y630590D01*
X108605D01*
X110797Y631177D01*
X112763Y632312D01*
X114368Y633917D01*
X115503Y635883D01*
X116090Y638075D01*
Y640345D01*
X115503Y642537D01*
X114368Y644503D01*
X112763Y646108D01*
X110797Y647243D01*
X108605Y647830D01*
D02*
G37*
G36*
X422295Y641480D02*
X420025D01*
X417833Y640893D01*
X415867Y639758D01*
X414262Y638153D01*
X413127Y636187D01*
X412540Y633995D01*
Y631725D01*
X413127Y629533D01*
X414262Y627567D01*
X415867Y625962D01*
X417833Y624827D01*
X420025Y624240D01*
X422295D01*
X424487Y624827D01*
X426453Y625962D01*
X428058Y627567D01*
X429193Y629533D01*
X429780Y631725D01*
Y633995D01*
X429193Y636187D01*
X428058Y638153D01*
X426453Y639758D01*
X424487Y640893D01*
X422295Y641480D01*
D02*
G37*
G36*
X218100Y634270D02*
X197500D01*
Y613670D01*
X218100D01*
Y634270D01*
D02*
G37*
G36*
X134005Y571630D02*
X131735D01*
X129543Y571043D01*
X127577Y569908D01*
X125972Y568303D01*
X124837Y566337D01*
X124250Y564145D01*
Y561875D01*
X124837Y559683D01*
X125972Y557717D01*
X127577Y556112D01*
X129543Y554977D01*
X131735Y554390D01*
X134005D01*
X136197Y554977D01*
X138163Y556112D01*
X139768Y557717D01*
X140903Y559683D01*
X141490Y561875D01*
Y564145D01*
X140903Y566337D01*
X139768Y568303D01*
X138163Y569908D01*
X136197Y571043D01*
X134005Y571630D01*
D02*
G37*
G36*
X108605D02*
X106335D01*
X104143Y571043D01*
X102177Y569908D01*
X100572Y568303D01*
X99437Y566337D01*
X98850Y564145D01*
Y561875D01*
X99437Y559683D01*
X100572Y557717D01*
X102177Y556112D01*
X104143Y554977D01*
X106335Y554390D01*
X108605D01*
X110797Y554977D01*
X112763Y556112D01*
X114368Y557717D01*
X115503Y559683D01*
X116090Y561875D01*
Y564145D01*
X115503Y566337D01*
X114368Y568303D01*
X112763Y569908D01*
X110797Y571043D01*
X108605Y571630D01*
D02*
G37*
G36*
X745355Y565280D02*
X743085D01*
X740893Y564693D01*
X738927Y563558D01*
X737322Y561953D01*
X736188Y559987D01*
X735600Y557795D01*
Y555525D01*
X736188Y553333D01*
X737322Y551367D01*
X738927Y549762D01*
X740893Y548628D01*
X743085Y548040D01*
X745355D01*
X747547Y548628D01*
X749513Y549762D01*
X751118Y551367D01*
X752253Y553333D01*
X752840Y555525D01*
Y557795D01*
X752253Y559987D01*
X751118Y561953D01*
X749513Y563558D01*
X747547Y564693D01*
X745355Y565280D01*
D02*
G37*
G36*
X858014Y527120D02*
X854986D01*
X852061Y526336D01*
X849439Y524822D01*
X847298Y522681D01*
X845784Y520059D01*
X845000Y517134D01*
Y514106D01*
X845784Y511181D01*
X847298Y508559D01*
X849439Y506418D01*
X852061Y504904D01*
X854986Y504120D01*
X858014D01*
X860939Y504904D01*
X863561Y506418D01*
X865702Y508559D01*
X867216Y511181D01*
X868000Y514106D01*
Y517134D01*
X867216Y520059D01*
X865702Y522681D01*
X863561Y524822D01*
X860939Y526336D01*
X858014Y527120D01*
D02*
G37*
G36*
X868000Y477120D02*
X845000D01*
Y454120D01*
X868000D01*
Y477120D01*
D02*
G37*
G36*
X311752Y637214D02*
X261328D01*
X260562Y636897D01*
X260245Y636132D01*
Y577802D01*
X260245Y577802D01*
X260562Y577036D01*
X260562Y577036D01*
X261196Y576402D01*
X261962Y576085D01*
X298792D01*
X335941Y538936D01*
X336706Y538619D01*
X337715D01*
Y534882D01*
X337715Y534882D01*
X338032Y534117D01*
X361918Y510232D01*
Y471128D01*
X338032Y447243D01*
X337715Y446478D01*
Y435562D01*
X337715Y435562D01*
X338032Y434796D01*
X338032Y434796D01*
X338666Y434162D01*
X339432Y433845D01*
X366550D01*
X367315Y434162D01*
X374704Y441551D01*
X375628Y441168D01*
Y440620D01*
X375945Y439855D01*
X376710Y439538D01*
X469900D01*
X470665Y439855D01*
X470982Y440620D01*
Y489538D01*
X470758Y490079D01*
X470982Y490620D01*
Y540620D01*
X470665Y541385D01*
X469900Y541702D01*
X376710D01*
X375945Y541385D01*
X375628Y540620D01*
Y539250D01*
X374704Y538868D01*
X312835Y600737D01*
Y636132D01*
X312518Y636897D01*
X311752Y637214D01*
D02*
G37*
G36*
X209156Y583470D02*
X206444D01*
X203824Y582768D01*
X201476Y581412D01*
X199558Y579494D01*
X198202Y577146D01*
X197500Y574526D01*
Y571814D01*
X198202Y569194D01*
X199558Y566846D01*
X201476Y564928D01*
X203824Y563572D01*
X206444Y562870D01*
X209156D01*
X211776Y563572D01*
X213265Y564432D01*
X253745Y523951D01*
Y496562D01*
X253059Y495875D01*
X252520Y494574D01*
Y493166D01*
X253059Y491865D01*
X253745Y491178D01*
Y424950D01*
X253922Y424064D01*
X254423Y423313D01*
X258140Y419597D01*
Y419273D01*
X258597Y418171D01*
X259441Y417327D01*
X260543Y416870D01*
X261737D01*
X262839Y417327D01*
X263683Y418171D01*
X264140Y419273D01*
Y420467D01*
X263683Y421569D01*
X262839Y422413D01*
X261737Y422870D01*
X261413D01*
X258375Y425909D01*
Y491178D01*
X259061Y491865D01*
X259600Y493166D01*
Y494574D01*
X259061Y495875D01*
X258375Y496562D01*
Y524910D01*
X258198Y525796D01*
X257697Y526547D01*
X216538Y567705D01*
X217398Y569194D01*
X218100Y571814D01*
Y574526D01*
X217398Y577146D01*
X216042Y579494D01*
X214124Y581412D01*
X211776Y582768D01*
X209156Y583470D01*
D02*
G37*
G36*
X745355Y433200D02*
X743085D01*
X740893Y432613D01*
X738927Y431478D01*
X737322Y429873D01*
X736188Y427907D01*
X735600Y425715D01*
Y423445D01*
X736188Y421253D01*
X737322Y419287D01*
X738927Y417682D01*
X740893Y416548D01*
X743085Y415960D01*
X745355D01*
X747547Y416548D01*
X749513Y417682D01*
X751118Y419287D01*
X752253Y421253D01*
X752840Y423445D01*
Y425715D01*
X752253Y427907D01*
X751118Y429873D01*
X749513Y431478D01*
X747547Y432613D01*
X745355Y433200D01*
D02*
G37*
G36*
X41500Y389560D02*
X18500D01*
Y366560D01*
X41500D01*
Y389560D01*
D02*
G37*
G36*
X675640Y619760D02*
X551180D01*
Y363220D01*
X675640D01*
Y619760D01*
D02*
G37*
G36*
X134005Y322710D02*
X131735D01*
X129543Y322123D01*
X127577Y320988D01*
X125972Y319383D01*
X124837Y317417D01*
X124250Y315225D01*
Y312955D01*
X124837Y310763D01*
X125972Y308797D01*
X127577Y307192D01*
X129543Y306057D01*
X131735Y305470D01*
X134005D01*
X136197Y306057D01*
X138163Y307192D01*
X139768Y308797D01*
X140903Y310763D01*
X141490Y312955D01*
Y315225D01*
X140903Y317417D01*
X139768Y319383D01*
X138163Y320988D01*
X136197Y322123D01*
X134005Y322710D01*
D02*
G37*
G36*
X108605D02*
X106335D01*
X104143Y322123D01*
X102177Y320988D01*
X100572Y319383D01*
X99437Y317417D01*
X98850Y315225D01*
Y312955D01*
X99437Y310763D01*
X100572Y308797D01*
X102177Y307192D01*
X104143Y306057D01*
X106335Y305470D01*
X108605D01*
X110797Y306057D01*
X112763Y307192D01*
X114368Y308797D01*
X115503Y310763D01*
X116090Y312955D01*
Y315225D01*
X115503Y317417D01*
X114368Y319383D01*
X112763Y320988D01*
X110797Y322123D01*
X108605Y322710D01*
D02*
G37*
G36*
X31514Y289560D02*
X28486D01*
X25561Y288776D01*
X22939Y287262D01*
X20798Y285121D01*
X19284Y282499D01*
X18500Y279574D01*
Y276546D01*
X19284Y273621D01*
X20798Y270999D01*
X22939Y268858D01*
X25561Y267344D01*
X28486Y266560D01*
X31514D01*
X34439Y267344D01*
X37061Y268858D01*
X39202Y270999D01*
X40716Y273621D01*
X41500Y276546D01*
Y279574D01*
X40716Y282499D01*
X39202Y285121D01*
X37061Y287262D01*
X34439Y288776D01*
X31514Y289560D01*
D02*
G37*
G36*
X134005Y246510D02*
X131735D01*
X129543Y245923D01*
X127577Y244788D01*
X125972Y243183D01*
X124837Y241217D01*
X124250Y239025D01*
Y236755D01*
X124837Y234563D01*
X125972Y232597D01*
X127577Y230992D01*
X129543Y229858D01*
X131735Y229270D01*
X134005D01*
X136197Y229858D01*
X138163Y230992D01*
X139768Y232597D01*
X140903Y234563D01*
X141490Y236755D01*
Y239025D01*
X140903Y241217D01*
X139768Y243183D01*
X138163Y244788D01*
X136197Y245923D01*
X134005Y246510D01*
D02*
G37*
G36*
X108605D02*
X106335D01*
X104143Y245923D01*
X102177Y244788D01*
X100572Y243183D01*
X99437Y241217D01*
X98850Y239025D01*
Y236755D01*
X99437Y234563D01*
X100572Y232597D01*
X102177Y230992D01*
X104143Y229858D01*
X106335Y229270D01*
X108605D01*
X110797Y229858D01*
X112763Y230992D01*
X114368Y232597D01*
X115503Y234563D01*
X116090Y236755D01*
Y239025D01*
X115503Y241217D01*
X114368Y243183D01*
X112763Y244788D01*
X110797Y245923D01*
X108605Y246510D01*
D02*
G37*
G36*
X745355Y240160D02*
X743085D01*
X740893Y239573D01*
X738927Y238438D01*
X737322Y236833D01*
X736188Y234867D01*
X735600Y232675D01*
Y230405D01*
X736188Y228213D01*
X737322Y226247D01*
X738927Y224642D01*
X740893Y223507D01*
X743085Y222920D01*
X745355D01*
X747547Y223507D01*
X749513Y224642D01*
X751118Y226247D01*
X752253Y228213D01*
X752840Y230405D01*
Y232675D01*
X752253Y234867D01*
X751118Y236833D01*
X749513Y238438D01*
X747547Y239573D01*
X745355Y240160D01*
D02*
G37*
G36*
X858014Y202000D02*
X854986D01*
X852061Y201216D01*
X849439Y199702D01*
X847298Y197561D01*
X845784Y194939D01*
X845000Y192014D01*
Y188986D01*
X845784Y186061D01*
X847298Y183439D01*
X849439Y181298D01*
X852061Y179784D01*
X854986Y179000D01*
X858014D01*
X860939Y179784D01*
X863561Y181298D01*
X865702Y183439D01*
X867216Y186061D01*
X868000Y188986D01*
Y192014D01*
X867216Y194939D01*
X865702Y197561D01*
X863561Y199702D01*
X860939Y201216D01*
X858014Y202000D01*
D02*
G37*
G36*
X868000Y152000D02*
X845000D01*
Y129000D01*
X868000D01*
Y152000D01*
D02*
G37*
G36*
X750435Y108080D02*
X748165D01*
X745973Y107493D01*
X744007Y106358D01*
X742402Y104753D01*
X741267Y102787D01*
X740680Y100595D01*
Y98325D01*
X741267Y96133D01*
X742402Y94167D01*
X744007Y92562D01*
X745973Y91427D01*
X748165Y90840D01*
X750435D01*
X752627Y91427D01*
X754593Y92562D01*
X756198Y94167D01*
X757333Y96133D01*
X757920Y98325D01*
Y100595D01*
X757333Y102787D01*
X756198Y104753D01*
X754593Y106358D01*
X752627Y107493D01*
X750435Y108080D01*
D02*
G37*
G36*
X256764Y172290D02*
X255356D01*
X254055Y171751D01*
X253059Y170755D01*
X252520Y169454D01*
Y168046D01*
X253059Y166745D01*
X253745Y166058D01*
Y156299D01*
X217163Y119717D01*
X216662Y118966D01*
X216486Y118080D01*
Y92843D01*
X214824Y92398D01*
X212476Y91042D01*
X210558Y89124D01*
X209202Y86776D01*
X208500Y84156D01*
Y81444D01*
X209202Y78824D01*
X210558Y76476D01*
X212476Y74558D01*
X214824Y73202D01*
X217444Y72500D01*
X220156D01*
X222776Y73202D01*
X225124Y74558D01*
X227042Y76476D01*
X228398Y78824D01*
X229100Y81444D01*
Y84156D01*
X228398Y86776D01*
X227042Y89124D01*
X225124Y91042D01*
X222776Y92398D01*
X221115Y92843D01*
Y117121D01*
X257697Y153703D01*
X258198Y154454D01*
X258375Y155340D01*
Y166058D01*
X259061Y166745D01*
X259600Y168046D01*
Y169454D01*
X259061Y170755D01*
X258065Y171751D01*
X256764Y172290D01*
D02*
G37*
G36*
X675640Y294640D02*
X551180D01*
Y38100D01*
X675640D01*
Y294640D01*
D02*
G37*
G36*
X229100Y42300D02*
X208500D01*
Y21700D01*
X229100D01*
Y42300D01*
D02*
G37*
G36*
X374711Y216982D02*
X345655D01*
X345456Y216900D01*
X345241D01*
X345089Y216837D01*
X344936Y216685D01*
X344890Y216665D01*
X344871Y216619D01*
X344721Y216469D01*
X344675Y216450D01*
X344655Y216403D01*
X344503Y216251D01*
X344440Y216099D01*
Y215884D01*
X344358Y215685D01*
Y200875D01*
X344440Y200676D01*
Y200461D01*
X344592Y200093D01*
X344744Y199941D01*
X344827Y199742D01*
X362138Y182432D01*
X362138Y165100D01*
Y147768D01*
X321967Y107598D01*
X321884Y107399D01*
X321732Y107246D01*
X321580Y106879D01*
Y106664D01*
X321498Y106465D01*
Y20207D01*
X321580Y20008D01*
Y19793D01*
X321643Y19641D01*
X321643Y19641D01*
X321795Y19488D01*
X321815Y19442D01*
X321861Y19422D01*
X322011Y19273D01*
X322030Y19226D01*
X322076Y19207D01*
X322229Y19055D01*
X322229Y19055D01*
X322381Y18992D01*
X322596D01*
X322795Y18909D01*
X376495D01*
X376694Y18992D01*
X376909D01*
X377061Y19055D01*
X377213Y19207D01*
X377260Y19226D01*
X377279Y19273D01*
X377429Y19422D01*
X377475Y19442D01*
X377495Y19488D01*
X377647Y19641D01*
X377710Y19793D01*
Y20008D01*
X377792Y20207D01*
Y114418D01*
X469900D01*
X470665Y114735D01*
X470982Y115500D01*
Y164418D01*
X470758Y164959D01*
X470982Y165500D01*
Y215500D01*
X470665Y216265D01*
X469900Y216582D01*
X376710D01*
X376184Y216364D01*
X376060Y216492D01*
X375144Y216892D01*
X374919Y216896D01*
X374711Y216982D01*
D02*
G37*
G36*
X422295Y33150D02*
X420025D01*
X417833Y32563D01*
X415867Y31428D01*
X414262Y29823D01*
X413127Y27857D01*
X412540Y25665D01*
Y23395D01*
X413127Y21203D01*
X414262Y19237D01*
X415867Y17632D01*
X417833Y16497D01*
X420025Y15910D01*
X422295D01*
X424487Y16497D01*
X426453Y17632D01*
X428058Y19237D01*
X429193Y21203D01*
X429780Y23395D01*
Y25665D01*
X429193Y27857D01*
X428058Y29823D01*
X426453Y31428D01*
X424487Y32563D01*
X422295Y33150D01*
D02*
G37*
%LPD*%
G36*
X469900Y490620D02*
X376710D01*
Y540620D01*
X469900D01*
Y490620D01*
D02*
G37*
G36*
Y489322D02*
Y440835D01*
X469837Y440683D01*
X469685Y440620D01*
X376925D01*
X376773Y440683D01*
X376710Y440835D01*
Y441168D01*
Y489538D01*
X469811D01*
X469900Y489322D01*
D02*
G37*
G36*
X311752Y600288D02*
X375628Y536413D01*
Y491702D01*
Y490620D01*
Y444005D01*
X366550Y434928D01*
X339432D01*
X338798Y435562D01*
Y446478D01*
X363000Y470680D01*
Y510680D01*
X338798Y534882D01*
Y539702D01*
X336706D01*
X299240Y577168D01*
X261962D01*
X261328Y577802D01*
Y636132D01*
X311752D01*
Y600288D01*
D02*
G37*
G36*
X469900Y165500D02*
X376799D01*
X376710Y165715D01*
Y215500D01*
Y215500D01*
X469900D01*
Y165500D01*
D02*
G37*
G36*
Y115500D02*
X376925D01*
X376773Y115563D01*
X376710Y115715D01*
Y162695D01*
X376945Y163261D01*
Y163477D01*
X377027Y163676D01*
Y163710D01*
X377734Y164418D01*
X469900D01*
Y115500D01*
D02*
G37*
G36*
X375628Y215500D02*
Y165500D01*
X375945Y164735D01*
X375945Y163676D01*
X375628Y162910D01*
Y115500D01*
X375945Y114735D01*
X376710Y114418D01*
Y20207D01*
X376647Y20055D01*
X376495Y19992D01*
X322795D01*
X322643Y20055D01*
X322580Y20207D01*
Y106465D01*
X322732Y106832D01*
X362903Y147003D01*
X362903Y147003D01*
X363220Y147320D01*
Y165100D01*
X363220Y182880D01*
X345592Y200508D01*
X345440Y200875D01*
Y215685D01*
X345503Y215837D01*
X345655Y215900D01*
X374711D01*
X375628Y215500D01*
D02*
G37*
D11*
X207800Y573170D02*
X256060Y524910D01*
Y493870D02*
Y524910D01*
Y424950D02*
Y493870D01*
Y424950D02*
X261140Y419870D01*
X256060Y155340D02*
Y168750D01*
X218800Y82800D02*
Y118080D01*
X256060Y155340D01*
D42*
X856500Y140500D02*
D03*
X30000Y378060D02*
D03*
X856500Y465620D02*
D03*
D43*
Y190500D02*
D03*
X286940Y624120D02*
D03*
X856500Y515620D02*
D03*
X30000Y328060D02*
D03*
X336940Y32000D02*
D03*
X30000Y278060D02*
D03*
D44*
X749300Y99460D02*
D03*
X744220Y231540D02*
D03*
X132870Y639210D02*
D03*
X107470D02*
D03*
X132870Y563010D02*
D03*
X107470D02*
D03*
X421160Y632860D02*
D03*
Y582060D02*
D03*
X744220Y424580D02*
D03*
Y556660D02*
D03*
Y282340D02*
D03*
X749300Y48660D02*
D03*
X744220Y607460D02*
D03*
Y373780D02*
D03*
X421160Y75330D02*
D03*
Y24530D02*
D03*
X132870Y314090D02*
D03*
Y237890D02*
D03*
X107470Y314090D02*
D03*
Y237890D02*
D03*
D45*
X336940Y624120D02*
D03*
X286940Y32000D02*
D03*
D46*
X207800Y623970D02*
D03*
X218800Y32000D02*
D03*
D47*
X207800Y573170D02*
D03*
Y598570D02*
D03*
X218800Y57400D02*
D03*
Y82800D02*
D03*
D48*
X160430Y147350D02*
D03*
X132870Y173830D02*
D03*
X352640Y526370D02*
D03*
Y532870D02*
D03*
X107470Y498950D02*
D03*
X132870D02*
D03*
X149270Y623970D02*
D03*
X160430Y472720D02*
D03*
X161970Y585870D02*
D03*
X210340Y509570D02*
D03*
X229390Y522750D02*
D03*
X271240Y487370D02*
D03*
Y513370D02*
D03*
X271643Y519870D02*
D03*
X352640Y454870D02*
D03*
X489740Y604160D02*
D03*
X516410Y602160D02*
D03*
X352640Y448370D02*
D03*
X261140Y419870D02*
D03*
X149270Y32000D02*
D03*
Y82800D02*
D03*
X107470Y173830D02*
D03*
X271643Y162250D02*
D03*
X210340Y184450D02*
D03*
X229390Y197450D02*
D03*
X271643Y194750D02*
D03*
Y188250D02*
D03*
X516410Y53230D02*
D03*
X489740Y55230D02*
D03*
X352640Y123250D02*
D03*
Y129750D02*
D03*
Y201250D02*
D03*
Y207750D02*
D03*
D49*
X464820Y160020D02*
D03*
X457200D02*
D03*
X449580D02*
D03*
X441960D02*
D03*
Y149860D02*
D03*
X449580D02*
D03*
X457200D02*
D03*
X464820D02*
D03*
X441960Y139700D02*
D03*
X449580D02*
D03*
X457200D02*
D03*
X464820D02*
D03*
X441960Y129540D02*
D03*
X449580D02*
D03*
X457200D02*
D03*
X464820D02*
D03*
X441960Y119380D02*
D03*
X449580D02*
D03*
X457200D02*
D03*
X464820D02*
D03*
Y210820D02*
D03*
X457200D02*
D03*
X449580D02*
D03*
X441960D02*
D03*
Y200660D02*
D03*
X449580D02*
D03*
X457200D02*
D03*
X464820D02*
D03*
X441960Y190500D02*
D03*
X449580D02*
D03*
X457200D02*
D03*
X464820D02*
D03*
X441960Y180340D02*
D03*
X449580D02*
D03*
X457200D02*
D03*
X464820D02*
D03*
X441960Y170180D02*
D03*
X449580D02*
D03*
X457200D02*
D03*
X464820D02*
D03*
Y485140D02*
D03*
X457200D02*
D03*
X449580D02*
D03*
X441960D02*
D03*
Y474980D02*
D03*
X449580D02*
D03*
X457200D02*
D03*
X464820D02*
D03*
X441960Y464820D02*
D03*
X449580D02*
D03*
X457200D02*
D03*
X464820D02*
D03*
X441960Y454660D02*
D03*
X449580D02*
D03*
X457200D02*
D03*
X464820D02*
D03*
X441960Y444500D02*
D03*
X449580D02*
D03*
X457200D02*
D03*
X464820D02*
D03*
Y495300D02*
D03*
X457200D02*
D03*
X449580D02*
D03*
X441960D02*
D03*
X464820Y505460D02*
D03*
X457200D02*
D03*
X449580D02*
D03*
X441960D02*
D03*
X464820Y515620D02*
D03*
X457200D02*
D03*
X449580D02*
D03*
X441960D02*
D03*
X464820Y525780D02*
D03*
X457200D02*
D03*
X449580D02*
D03*
X441960D02*
D03*
Y535940D02*
D03*
X449580D02*
D03*
X457200D02*
D03*
X464820D02*
D03*
X392801Y196615D02*
D03*
X403799D02*
D03*
X398300Y187090D02*
D03*
X387302Y180740D02*
D03*
Y505860D02*
D03*
X392801Y521735D02*
D03*
X387449Y475295D02*
D03*
X403799Y459505D02*
D03*
X392801D02*
D03*
X398300Y512210D02*
D03*
X403799Y521735D02*
D03*
X398300Y469030D02*
D03*
X398300Y143910D02*
D03*
X403799Y134385D02*
D03*
X392801D02*
D03*
X387449Y150175D02*
D03*
D50*
X311940Y477620D02*
D03*
Y464620D02*
D03*
Y503620D02*
D03*
Y516620D02*
D03*
X319940D02*
D03*
Y503620D02*
D03*
Y490620D02*
D03*
Y477620D02*
D03*
Y464620D02*
D03*
X303940Y503620D02*
D03*
Y490620D02*
D03*
Y477620D02*
D03*
Y464620D02*
D03*
X311940Y490620D02*
D03*
X303940Y516620D02*
D03*
Y139500D02*
D03*
X311940Y152500D02*
D03*
X303940D02*
D03*
X311940Y165500D02*
D03*
Y139500D02*
D03*
X319940D02*
D03*
Y165500D02*
D03*
Y152500D02*
D03*
X303940Y178500D02*
D03*
Y165500D02*
D03*
Y191500D02*
D03*
X311940Y178500D02*
D03*
X319940D02*
D03*
X311940Y191500D02*
D03*
X319940D02*
D03*
D51*
X353000Y474370D02*
D03*
Y506870D02*
D03*
X326000Y181750D02*
D03*
Y149250D02*
D03*
X353000Y181750D02*
D03*
Y149250D02*
D03*
D52*
X256060Y493870D02*
D03*
Y168750D02*
D03*
M02*
