G04*
G04 #@! TF.GenerationSoftware,Altium Limited,Altium Designer,26.6.0 (10)*
G04*
G04 Layer_Color=8388736*
G04 Board_Origin=25968898|13934251*
%FSLAX44Y44*%
%MOMM*%
G71*
G04*
G04 #@! TF.SameCoordinates,28262C2E-F151-4320-BF17-60C4C4611D1B*
G04*
G04*
G04 #@! TF.FilePolarity,Negative*
G04*
G01*
G75*
%ADD21R,2.4000X6.1700*%
%ADD22R,1.7400X0.4400*%
%ADD23R,1.2032X1.1532*%
%ADD24R,1.1532X1.2032*%
G04:AMPARAMS|DCode=25|XSize=1.1432mm|YSize=1.2232mm|CornerRadius=0.1956mm|HoleSize=0mm|Usage=FLASHONLY|Rotation=270.000|XOffset=0mm|YOffset=0mm|HoleType=Round|Shape=RoundedRectangle|*
%AMROUNDEDRECTD25*
21,1,1.1432,0.8320,0,0,270.0*
21,1,0.7520,1.2232,0,0,270.0*
1,1,0.3912,-0.4160,-0.3760*
1,1,0.3912,-0.4160,0.3760*
1,1,0.3912,0.4160,0.3760*
1,1,0.3912,0.4160,-0.3760*
%
%ADD25ROUNDEDRECTD25*%
%ADD26R,1.3532X1.6532*%
%ADD27R,4.0532X5.7032*%
%ADD28R,1.6532X1.3532*%
%ADD29C,1.7272*%
%ADD30C,2.0632*%
%ADD31C,2.3032*%
%ADD32R,2.0632X2.0632*%
%ADD33R,2.3032X2.3032*%
%ADD34R,2.3032X2.3032*%
%ADD35C,0.5900*%
%ADD36C,0.6532*%
%ADD37C,0.7112*%
%ADD38C,0.5008*%
%ADD39C,0.7032*%
D21*
X311940Y165500D02*
D03*
Y490620D02*
D03*
D22*
X339940Y123250D02*
D03*
Y129750D02*
D03*
Y136250D02*
D03*
Y142750D02*
D03*
Y149250D02*
D03*
Y155750D02*
D03*
Y162250D02*
D03*
Y168750D02*
D03*
Y175250D02*
D03*
Y181750D02*
D03*
Y188250D02*
D03*
Y194750D02*
D03*
Y201250D02*
D03*
Y207750D02*
D03*
X283940Y123250D02*
D03*
Y129750D02*
D03*
Y136250D02*
D03*
Y142750D02*
D03*
Y149250D02*
D03*
Y155750D02*
D03*
Y162250D02*
D03*
Y168750D02*
D03*
Y175250D02*
D03*
Y181750D02*
D03*
Y188250D02*
D03*
Y194750D02*
D03*
Y201250D02*
D03*
Y207750D02*
D03*
X339940Y448370D02*
D03*
Y454870D02*
D03*
Y461370D02*
D03*
Y467870D02*
D03*
Y474370D02*
D03*
Y480870D02*
D03*
Y487370D02*
D03*
Y493870D02*
D03*
Y500370D02*
D03*
Y506870D02*
D03*
Y513370D02*
D03*
Y519870D02*
D03*
Y526370D02*
D03*
Y532870D02*
D03*
X283940Y448370D02*
D03*
Y454870D02*
D03*
Y461370D02*
D03*
Y467870D02*
D03*
Y474370D02*
D03*
Y480870D02*
D03*
Y487370D02*
D03*
Y493870D02*
D03*
Y500370D02*
D03*
Y506870D02*
D03*
Y513370D02*
D03*
Y519870D02*
D03*
Y526370D02*
D03*
Y532870D02*
D03*
D23*
X229390Y494050D02*
D03*
Y510050D02*
D03*
Y184750D02*
D03*
Y168750D02*
D03*
X487680Y297180D02*
D03*
Y281180D02*
D03*
Y355600D02*
D03*
Y371600D02*
D03*
X489740Y632860D02*
D03*
Y616860D02*
D03*
X210340Y480870D02*
D03*
Y496870D02*
D03*
X516410Y40530D02*
D03*
Y24530D02*
D03*
X210340Y171750D02*
D03*
Y155750D02*
D03*
D24*
X173130Y472720D02*
D03*
X189130D02*
D03*
X173130Y457480D02*
D03*
X189130D02*
D03*
Y132360D02*
D03*
X173130D02*
D03*
X365340Y519870D02*
D03*
X381340D02*
D03*
X365340Y461370D02*
D03*
X381340D02*
D03*
Y194750D02*
D03*
X365340D02*
D03*
X381340Y136250D02*
D03*
X365340D02*
D03*
X173130Y147350D02*
D03*
X189130D02*
D03*
D25*
X283940Y547770D02*
D03*
Y563570D02*
D03*
X261140Y448370D02*
D03*
Y432570D02*
D03*
X107470Y527450D02*
D03*
X132870D02*
D03*
Y186530D02*
D03*
X107470D02*
D03*
Y511650D02*
D03*
X132870D02*
D03*
X283940Y222650D02*
D03*
Y238450D02*
D03*
X261140Y107450D02*
D03*
Y123250D02*
D03*
X107470Y202330D02*
D03*
X132870D02*
D03*
D26*
X179970Y573170D02*
D03*
Y623970D02*
D03*
X161970Y32000D02*
D03*
Y82800D02*
D03*
Y623970D02*
D03*
Y573170D02*
D03*
X179970Y82800D02*
D03*
Y32000D02*
D03*
D27*
X564530Y424580D02*
D03*
Y556660D02*
D03*
X664030Y231540D02*
D03*
X564530D02*
D03*
X664030Y99460D02*
D03*
X564530D02*
D03*
X664030Y556660D02*
D03*
Y424580D02*
D03*
D28*
X516410Y632860D02*
D03*
X454660Y373600D02*
D03*
Y297180D02*
D03*
Y355600D02*
D03*
X489740Y42530D02*
D03*
X516410Y614860D02*
D03*
X454660Y279180D02*
D03*
X489740Y24530D02*
D03*
D29*
X107470Y563010D02*
D03*
X132870D02*
D03*
X107470Y639210D02*
D03*
X132870D02*
D03*
X421160Y632860D02*
D03*
X390680Y406400D02*
D03*
Y297180D02*
D03*
Y355600D02*
D03*
X421160Y75330D02*
D03*
X744220Y373780D02*
D03*
Y607460D02*
D03*
X749300Y48660D02*
D03*
X744220Y282340D02*
D03*
X421160Y582060D02*
D03*
X390680Y246380D02*
D03*
X744220Y231540D02*
D03*
X749300Y99460D02*
D03*
X744220Y424580D02*
D03*
Y556660D02*
D03*
X421160Y24530D02*
D03*
X132870Y314090D02*
D03*
Y237890D02*
D03*
X107470Y314090D02*
D03*
Y237890D02*
D03*
D30*
X207800Y573170D02*
D03*
X218800Y57400D02*
D03*
X207800Y598570D02*
D03*
X218800Y82800D02*
D03*
D31*
X286940Y624120D02*
D03*
X30000Y328060D02*
D03*
X856500Y190500D02*
D03*
Y515620D02*
D03*
X336940Y32000D02*
D03*
X30000Y278060D02*
D03*
D32*
X207800Y623970D02*
D03*
X218800Y32000D02*
D03*
D33*
X286940D02*
D03*
X336940Y624120D02*
D03*
D34*
X856500Y140500D02*
D03*
X30000Y378060D02*
D03*
X856500Y465620D02*
D03*
D35*
X303940Y191500D02*
D03*
X311940Y165500D02*
D03*
X303940Y139500D02*
D03*
Y152500D02*
D03*
Y165500D02*
D03*
Y178500D02*
D03*
X319940Y139500D02*
D03*
Y152500D02*
D03*
Y165500D02*
D03*
Y178500D02*
D03*
Y191500D02*
D03*
X311940D02*
D03*
Y178500D02*
D03*
Y139500D02*
D03*
Y152500D02*
D03*
X303940Y516620D02*
D03*
X311940Y490620D02*
D03*
X303940Y464620D02*
D03*
Y477620D02*
D03*
Y490620D02*
D03*
Y503620D02*
D03*
X319940Y464620D02*
D03*
Y477620D02*
D03*
Y490620D02*
D03*
Y503620D02*
D03*
Y516620D02*
D03*
X311940D02*
D03*
Y503620D02*
D03*
Y464620D02*
D03*
Y477620D02*
D03*
D36*
X261140Y419870D02*
D03*
X355600Y449580D02*
D03*
Y530860D02*
D03*
Y538480D02*
D03*
Y441960D02*
D03*
X271240Y487370D02*
D03*
X266700Y515620D02*
D03*
Y525780D02*
D03*
Y190500D02*
D03*
Y200660D02*
D03*
X487680Y342900D02*
D03*
X454660D02*
D03*
Y309880D02*
D03*
X487680D02*
D03*
X489740Y55230D02*
D03*
X516410Y53230D02*
D03*
X229390Y197450D02*
D03*
X210340Y184450D02*
D03*
X271643Y162250D02*
D03*
X107470Y173830D02*
D03*
X149270Y82800D02*
D03*
Y32000D02*
D03*
X516410Y602160D02*
D03*
X489740Y604160D02*
D03*
X229390Y522750D02*
D03*
X210340Y509570D02*
D03*
X161970Y585870D02*
D03*
X160430Y472720D02*
D03*
X149270Y623970D02*
D03*
X132870Y498950D02*
D03*
X107470D02*
D03*
X132870Y173830D02*
D03*
X160430Y147350D02*
D03*
X355600Y124460D02*
D03*
X353060Y116840D02*
D03*
Y203200D02*
D03*
X355600Y210820D02*
D03*
D37*
X256060Y493870D02*
D03*
Y168750D02*
D03*
D38*
X398300Y469030D02*
D03*
X392801Y459505D02*
D03*
X403799D02*
D03*
X387449Y475295D02*
D03*
X464820Y444500D02*
D03*
X457200D02*
D03*
X449580D02*
D03*
X441960D02*
D03*
X464820Y454660D02*
D03*
X457200D02*
D03*
X449580D02*
D03*
X441960D02*
D03*
X464820Y464820D02*
D03*
X457200D02*
D03*
X449580D02*
D03*
X441960D02*
D03*
X464820Y474980D02*
D03*
X457200D02*
D03*
X449580D02*
D03*
X441960D02*
D03*
Y485140D02*
D03*
X449580D02*
D03*
X457200D02*
D03*
X464820D02*
D03*
X403799Y521735D02*
D03*
X398300Y512210D02*
D03*
X392801Y521735D02*
D03*
X387302Y505860D02*
D03*
X464820Y535940D02*
D03*
X457200D02*
D03*
X449580D02*
D03*
X441960D02*
D03*
Y525780D02*
D03*
X449580D02*
D03*
X457200D02*
D03*
X464820D02*
D03*
X441960Y515620D02*
D03*
X449580D02*
D03*
X457200D02*
D03*
X464820D02*
D03*
X441960Y505460D02*
D03*
X449580D02*
D03*
X457200D02*
D03*
X464820D02*
D03*
X441960Y495300D02*
D03*
X449580D02*
D03*
X457200D02*
D03*
X464820D02*
D03*
Y160020D02*
D03*
X457200D02*
D03*
X449580D02*
D03*
X441960D02*
D03*
Y149860D02*
D03*
X449580D02*
D03*
X457200D02*
D03*
X464820D02*
D03*
X441960Y139700D02*
D03*
X449580D02*
D03*
X457200D02*
D03*
X464820D02*
D03*
X441960Y129540D02*
D03*
X449580D02*
D03*
X457200D02*
D03*
X464820D02*
D03*
X441960Y119380D02*
D03*
X449580D02*
D03*
X457200D02*
D03*
X464820D02*
D03*
Y210820D02*
D03*
X457200D02*
D03*
X449580D02*
D03*
X441960D02*
D03*
Y200660D02*
D03*
X449580D02*
D03*
X457200D02*
D03*
X464820D02*
D03*
X441960Y190500D02*
D03*
X449580D02*
D03*
X457200D02*
D03*
X464820D02*
D03*
X441960Y180340D02*
D03*
X449580D02*
D03*
X457200D02*
D03*
X464820D02*
D03*
X441960Y170180D02*
D03*
X449580D02*
D03*
X457200D02*
D03*
X464820D02*
D03*
X392801Y196615D02*
D03*
X403799D02*
D03*
X398300Y187090D02*
D03*
X387302Y180740D02*
D03*
X398300Y143910D02*
D03*
X403799Y134385D02*
D03*
X392801D02*
D03*
X387449Y150175D02*
D03*
D39*
X353000Y474370D02*
D03*
Y506870D02*
D03*
Y149250D02*
D03*
Y181750D02*
D03*
M02*
