G04*
G04 #@! TF.GenerationSoftware,Altium Limited,Altium Designer,25.8.1 (18)*
G04*
G04 Layer_Physical_Order=2*
G04 Layer_Color=16711680*
%FSLAX44Y44*%
%MOMM*%
G71*
G04*
G04 #@! TF.SameCoordinates,99744387-A38E-4539-A8C8-20A6DD82CAC9*
G04*
G04*
G04 #@! TF.FilePolarity,Positive*
G04*
G01*
G75*
%ADD10C,0.2540*%
%ADD40C,1.5240*%
%ADD41R,2.1000X2.1000*%
%ADD42C,2.1000*%
%ADD43C,1.8600*%
%ADD44R,1.8600X1.8600*%
%ADD45R,2.1000X2.1000*%
%ADD46C,0.3810*%
%ADD47C,0.3000*%
%ADD48C,0.2540*%
%ADD49C,0.5080*%
G36*
X558570Y383940D02*
X376710D01*
Y433940D01*
X558570D01*
Y383940D01*
D02*
G37*
G36*
Y333940D02*
X376710D01*
Y381350D01*
X558570D01*
Y333940D01*
D02*
G37*
G36*
X310670Y493160D02*
X366550Y437280D01*
Y329330D01*
X339880D01*
Y433470D01*
X300510Y472840D01*
X299240Y471570D01*
X262410D01*
Y549040D01*
X310670D01*
Y493160D01*
D02*
G37*
G36*
X538578Y550714D02*
X538578Y550714D01*
X540935Y550661D01*
X544782Y549894D01*
X548652Y548290D01*
X552135Y545961D01*
X555097Y542998D01*
X557424Y539515D01*
X559027Y535644D01*
X559844Y531535D01*
Y529440D01*
Y436374D01*
X559843Y436373D01*
X559682Y436099D01*
X557304Y434215D01*
X376710D01*
X376516Y434134D01*
X376435Y433940D01*
Y384051D01*
X376435Y383940D01*
X376479Y382645D01*
X376435Y381350D01*
X376435Y381239D01*
Y333940D01*
X376516Y333746D01*
X376710Y333665D01*
X557304D01*
X558570Y333665D01*
X559843Y331507D01*
X559844Y331506D01*
X559844Y217934D01*
X559843Y217933D01*
X559682Y217659D01*
X557304Y215775D01*
X376710D01*
X376516Y215694D01*
X376435Y215500D01*
Y165611D01*
X376435Y165500D01*
X376479Y164205D01*
X376435Y162910D01*
X376435Y162799D01*
Y115500D01*
X376516Y115306D01*
X376710Y115225D01*
X557304D01*
X558570Y115225D01*
X559843Y113067D01*
X559844Y113066D01*
Y18570D01*
X559760Y18116D01*
X559760Y18116D01*
X559596Y16266D01*
X558630Y12679D01*
X557058Y9313D01*
X554926Y6270D01*
X552299Y3644D01*
X549257Y1512D01*
X545891Y-60D01*
X542304Y-1026D01*
X540454Y-1190D01*
X540000Y-1274D01*
X361364D01*
X361363Y-1274D01*
X359205Y0D01*
X359205Y1266D01*
Y216615D01*
X359205Y218585D01*
X359205Y218585D01*
X359194Y218611D01*
X359200Y218639D01*
X359200Y218639D01*
X359157Y218851D01*
X359157Y218852D01*
X359127Y218897D01*
X359116Y218951D01*
X359116Y218951D01*
X359071Y218981D01*
X359040Y219026D01*
X358987Y219037D01*
X358941Y219067D01*
X358729Y219110D01*
X358729Y219110D01*
X358701Y219104D01*
X358675Y219115D01*
X358675Y219115D01*
X356884Y219115D01*
X356884D01*
X356705Y219115D01*
X342105D01*
X340135Y219115D01*
X340135Y219115D01*
X340109Y219104D01*
X340081Y219110D01*
X340081Y219110D01*
X339869Y219067D01*
X339869Y219067D01*
X339823Y219037D01*
X339770Y219026D01*
X339769Y219026D01*
X339739Y218981D01*
X339694Y218951D01*
X339694Y218951D01*
X339683Y218897D01*
X339653Y218852D01*
X339653Y218851D01*
X339610Y218639D01*
X339610Y218639D01*
X339616Y218611D01*
X339605Y218585D01*
X339605Y218585D01*
X339605Y216795D01*
Y216794D01*
X339605Y216615D01*
Y111165D01*
X321785D01*
X319815Y111165D01*
X319815Y111165D01*
X319789Y111154D01*
X319761Y111160D01*
X319761Y111160D01*
X319549Y111117D01*
X319549Y111117D01*
X319503Y111087D01*
X319450Y111076D01*
X319449Y111076D01*
X319419Y111031D01*
X319374Y111000D01*
X319363Y110947D01*
X319333Y110901D01*
X319290Y110689D01*
X319290Y110689D01*
X319296Y110661D01*
X319285Y110635D01*
X319285Y110635D01*
X319285Y108845D01*
Y108844D01*
X319285Y108665D01*
Y1266D01*
X319285Y0D01*
X317127Y-1274D01*
X317126Y-1274D01*
X20000D01*
X17905Y-1274D01*
X13796Y-457D01*
X9925Y1146D01*
X6442Y3473D01*
X3479Y6435D01*
X1150Y9918D01*
X-454Y13788D01*
X-1273Y17897D01*
X-1274Y19992D01*
Y355720D01*
Y526912D01*
X-1274Y529452D01*
X-1191Y531957D01*
X-453Y535654D01*
X1151Y539524D01*
X3480Y543006D01*
X6443Y545968D01*
X9926Y548294D01*
X13797Y549897D01*
X17905Y550714D01*
X20000Y550714D01*
X260288Y550714D01*
X262135Y548255D01*
Y471570D01*
X262216Y471376D01*
X262410Y471295D01*
X299240D01*
X299240Y471295D01*
X299434Y471376D01*
X301781Y471180D01*
X339605Y433356D01*
Y329330D01*
X339686Y329136D01*
X339880Y329055D01*
X366550D01*
X366744Y329136D01*
X366825Y329330D01*
Y437280D01*
X366825Y437280D01*
X366744Y437474D01*
X310945Y493274D01*
Y548174D01*
X310945Y549040D01*
X312792Y550714D01*
X536226D01*
X538578Y550714D01*
D02*
G37*
G36*
X558570Y165500D02*
X376710D01*
Y215500D01*
X558570D01*
Y165500D01*
D02*
G37*
G36*
Y115500D02*
X376710D01*
Y162910D01*
X558570D01*
Y115500D01*
D02*
G37*
G36*
X358888Y218798D02*
X358930Y218585D01*
Y0D01*
X319560D01*
Y110635D01*
X319602Y110848D01*
X319815Y110890D01*
X339880D01*
Y218585D01*
X339922Y218798D01*
X340135Y218840D01*
X358675D01*
X358888Y218798D01*
D02*
G37*
%LPC*%
G36*
X133907Y540404D02*
X131833D01*
X129831Y539867D01*
X128035Y538831D01*
X126569Y537365D01*
X125533Y535569D01*
X124996Y533567D01*
Y531493D01*
X125533Y529491D01*
X126569Y527695D01*
X128035Y526229D01*
X129831Y525193D01*
X131833Y524656D01*
X133907D01*
X135909Y525193D01*
X137705Y526229D01*
X139171Y527695D01*
X140207Y529491D01*
X140744Y531493D01*
Y533567D01*
X140207Y535569D01*
X139171Y537365D01*
X137705Y538831D01*
X135909Y539867D01*
X133907Y540404D01*
D02*
G37*
G36*
X108507D02*
X106433D01*
X104431Y539867D01*
X102635Y538831D01*
X101169Y537365D01*
X100133Y535569D01*
X99596Y533567D01*
Y531493D01*
X100133Y529491D01*
X101169Y527695D01*
X102635Y526229D01*
X104431Y525193D01*
X106433Y524656D01*
X108507D01*
X110509Y525193D01*
X112305Y526229D01*
X113771Y527695D01*
X114807Y529491D01*
X115344Y531493D01*
Y533567D01*
X114807Y535569D01*
X113771Y537365D01*
X112305Y538831D01*
X110509Y539867D01*
X108507Y540404D01*
D02*
G37*
G36*
X422197Y534054D02*
X420123D01*
X418121Y533517D01*
X416325Y532481D01*
X414859Y531015D01*
X413823Y529219D01*
X413286Y527217D01*
Y525143D01*
X413823Y523141D01*
X414859Y521345D01*
X416325Y519879D01*
X418121Y518843D01*
X420123Y518306D01*
X422197D01*
X424199Y518843D01*
X425995Y519879D01*
X427461Y521345D01*
X428497Y523141D01*
X429034Y525143D01*
Y527217D01*
X428497Y529219D01*
X427461Y531015D01*
X425995Y532481D01*
X424199Y533517D01*
X422197Y534054D01*
D02*
G37*
G36*
X217354Y526844D02*
X198246D01*
Y507736D01*
X217354D01*
Y526844D01*
D02*
G37*
G36*
X133907Y464204D02*
X131833D01*
X129831Y463667D01*
X128035Y462631D01*
X126569Y461165D01*
X125533Y459369D01*
X124996Y457367D01*
Y455293D01*
X125533Y453291D01*
X126569Y451495D01*
X128035Y450029D01*
X129831Y448993D01*
X131833Y448456D01*
X133907D01*
X135909Y448993D01*
X137705Y450029D01*
X139171Y451495D01*
X140207Y453291D01*
X140744Y455293D01*
Y457367D01*
X140207Y459369D01*
X139171Y461165D01*
X137705Y462631D01*
X135909Y463667D01*
X133907Y464204D01*
D02*
G37*
G36*
X108507D02*
X106433D01*
X104431Y463667D01*
X102635Y462631D01*
X101169Y461165D01*
X100133Y459369D01*
X99596Y457367D01*
Y455293D01*
X100133Y453291D01*
X101169Y451495D01*
X102635Y450029D01*
X104431Y448993D01*
X106433Y448456D01*
X108507D01*
X110509Y448993D01*
X112305Y450029D01*
X113771Y451495D01*
X114807Y453291D01*
X115344Y455293D01*
Y457367D01*
X114807Y459369D01*
X113771Y461165D01*
X112305Y462631D01*
X110509Y463667D01*
X108507Y464204D01*
D02*
G37*
G36*
X40754Y335474D02*
X19246D01*
Y313966D01*
X40754D01*
Y335474D01*
D02*
G37*
G36*
X209058Y476044D02*
X206542D01*
X204112Y475393D01*
X201934Y474135D01*
X200155Y472356D01*
X198897Y470178D01*
X198246Y467748D01*
Y465232D01*
X198897Y462802D01*
X200155Y460624D01*
X201934Y458845D01*
X204112Y457587D01*
X206542Y456936D01*
X209058D01*
X211488Y457587D01*
X213315Y458642D01*
X254410Y417547D01*
Y389492D01*
X253691Y388773D01*
X253266Y387746D01*
Y386634D01*
X253691Y385607D01*
X254410Y384888D01*
Y318270D01*
X254894Y317104D01*
X259553Y312444D01*
X259974Y312024D01*
X259974Y312024D01*
X260277Y311898D01*
X260509Y311666D01*
X260509Y311666D01*
X260837Y311666D01*
X261140Y311540D01*
X261443Y311666D01*
X261771D01*
X262003Y311898D01*
X262306Y312024D01*
X262432Y312327D01*
X262664Y312559D01*
Y312887D01*
X262790Y313190D01*
X262664Y313493D01*
Y313821D01*
X262432Y314053D01*
X262307Y314356D01*
X262306Y314356D01*
X261886Y314777D01*
X257710Y318953D01*
Y384888D01*
X258429Y385607D01*
X258854Y386634D01*
Y387746D01*
X258429Y388773D01*
X257710Y389492D01*
Y418230D01*
X257226Y419396D01*
X215648Y460975D01*
X216703Y462802D01*
X217354Y465232D01*
Y467748D01*
X216703Y470178D01*
X215445Y472356D01*
X213666Y474135D01*
X211488Y475393D01*
X209058Y476044D01*
D02*
G37*
G36*
X133907Y321964D02*
X131833D01*
X129831Y321427D01*
X128035Y320391D01*
X126569Y318925D01*
X125533Y317129D01*
X124996Y315127D01*
Y313053D01*
X125533Y311051D01*
X126569Y309255D01*
X128035Y307789D01*
X129831Y306753D01*
X131833Y306216D01*
X133907D01*
X135909Y306753D01*
X137705Y307789D01*
X139171Y309255D01*
X140207Y311051D01*
X140744Y313053D01*
Y315127D01*
X140207Y317129D01*
X139171Y318925D01*
X137705Y320391D01*
X135909Y321427D01*
X133907Y321964D01*
D02*
G37*
G36*
X108507D02*
X106433D01*
X104431Y321427D01*
X102635Y320391D01*
X101169Y318925D01*
X100133Y317129D01*
X99596Y315127D01*
Y313053D01*
X100133Y311051D01*
X101169Y309255D01*
X102635Y307789D01*
X104431Y306753D01*
X106433Y306216D01*
X108507D01*
X110509Y306753D01*
X112305Y307789D01*
X113771Y309255D01*
X114807Y311051D01*
X115344Y313053D01*
Y315127D01*
X114807Y317129D01*
X113771Y318925D01*
X112305Y320391D01*
X110509Y321427D01*
X108507Y321964D01*
D02*
G37*
G36*
X133907Y245764D02*
X131833D01*
X129831Y245227D01*
X128035Y244191D01*
X126569Y242725D01*
X125533Y240929D01*
X124996Y238927D01*
Y236853D01*
X125533Y234851D01*
X126569Y233055D01*
X128035Y231589D01*
X129831Y230553D01*
X131833Y230016D01*
X133907D01*
X135909Y230553D01*
X137705Y231589D01*
X139171Y233055D01*
X140207Y234851D01*
X140744Y236853D01*
Y238927D01*
X140207Y240929D01*
X139171Y242725D01*
X137705Y244191D01*
X135909Y245227D01*
X133907Y245764D01*
D02*
G37*
G36*
X108507D02*
X106433D01*
X104431Y245227D01*
X102635Y244191D01*
X101169Y242725D01*
X100133Y240929D01*
X99596Y238927D01*
Y236853D01*
X100133Y234851D01*
X101169Y233055D01*
X102635Y231589D01*
X104431Y230553D01*
X106433Y230016D01*
X108507D01*
X110509Y230553D01*
X112305Y231589D01*
X113771Y233055D01*
X114807Y234851D01*
X115344Y236853D01*
Y238927D01*
X114807Y240929D01*
X113771Y242725D01*
X112305Y244191D01*
X110509Y245227D01*
X108507Y245764D01*
D02*
G37*
G36*
X31416Y235474D02*
X28584D01*
X25849Y234741D01*
X23397Y233325D01*
X21395Y231323D01*
X19979Y228871D01*
X19246Y226136D01*
Y223304D01*
X19979Y220569D01*
X21395Y218117D01*
X23397Y216115D01*
X25849Y214699D01*
X28584Y213966D01*
X31416D01*
X34151Y214699D01*
X36603Y216115D01*
X38605Y218117D01*
X40021Y220569D01*
X40754Y223304D01*
Y226136D01*
X40021Y228871D01*
X38605Y231323D01*
X36603Y233325D01*
X34151Y234741D01*
X31416Y235474D01*
D02*
G37*
G36*
X256616Y171544D02*
X255504D01*
X254477Y171119D01*
X253691Y170333D01*
X253266Y169306D01*
Y168194D01*
X253691Y167167D01*
X254410Y166448D01*
Y156023D01*
X217634Y119246D01*
X217150Y118080D01*
Y92249D01*
X215112Y91703D01*
X212934Y90445D01*
X211155Y88666D01*
X209897Y86488D01*
X209246Y84058D01*
Y81542D01*
X209897Y79112D01*
X211155Y76934D01*
X212934Y75155D01*
X215112Y73897D01*
X217542Y73246D01*
X220058D01*
X222488Y73897D01*
X224666Y75155D01*
X226445Y76934D01*
X227703Y79112D01*
X228354Y81542D01*
Y84058D01*
X227703Y86488D01*
X226445Y88666D01*
X224666Y90445D01*
X222488Y91703D01*
X220450Y92249D01*
Y117397D01*
X257226Y154174D01*
X257710Y155340D01*
Y166448D01*
X258429Y167167D01*
X258854Y168194D01*
Y169306D01*
X258429Y170333D01*
X257643Y171119D01*
X256616Y171544D01*
D02*
G37*
G36*
X228354Y41554D02*
X209246D01*
Y22446D01*
X228354D01*
Y41554D01*
D02*
G37*
G36*
X422197Y32404D02*
X420123D01*
X418121Y31867D01*
X416325Y30831D01*
X414859Y29365D01*
X413823Y27569D01*
X413286Y25567D01*
Y23493D01*
X413823Y21491D01*
X414859Y19695D01*
X416325Y18229D01*
X418121Y17193D01*
X420123Y16656D01*
X422197D01*
X424199Y17193D01*
X425995Y18229D01*
X427461Y19695D01*
X428497Y21491D01*
X429034Y23493D01*
Y25567D01*
X428497Y27569D01*
X427461Y29365D01*
X425995Y30831D01*
X424199Y31867D01*
X422197Y32404D01*
D02*
G37*
%LPD*%
D10*
X256060Y318270D02*
X261140Y313190D01*
X256060Y318270D02*
Y387190D01*
X207800Y466490D02*
X256060Y418230D01*
Y387190D02*
Y418230D01*
Y155340D02*
Y168750D01*
X218800Y82800D02*
Y118080D01*
X256060Y155340D01*
D40*
X421160Y75330D02*
D03*
Y24530D02*
D03*
Y475380D02*
D03*
Y526180D02*
D03*
X132870Y532530D02*
D03*
X107470D02*
D03*
Y456330D02*
D03*
X132870D02*
D03*
X107470Y237890D02*
D03*
Y314090D02*
D03*
X132870Y237890D02*
D03*
Y314090D02*
D03*
D41*
X336940Y517440D02*
D03*
X286940Y32000D02*
D03*
D42*
Y517440D02*
D03*
X30000Y274720D02*
D03*
X526570Y408940D02*
D03*
Y190500D02*
D03*
X30000Y224720D02*
D03*
X336940Y32000D02*
D03*
D43*
X218800Y57400D02*
D03*
X207800Y491890D02*
D03*
Y466490D02*
D03*
X218800Y82800D02*
D03*
D44*
X207800Y517290D02*
D03*
X218800Y32000D02*
D03*
D45*
X526570Y358940D02*
D03*
Y140500D02*
D03*
X30000Y324720D02*
D03*
D46*
X392801Y359175D02*
D03*
X392948Y365440D02*
D03*
X387449Y368615D02*
D03*
X392801Y352825D02*
D03*
X403799D02*
D03*
X381950Y371790D02*
D03*
Y365440D02*
D03*
X398300Y362350D02*
D03*
X392801Y415055D02*
D03*
X403799D02*
D03*
X392801Y408705D02*
D03*
X398300Y405530D02*
D03*
X392801Y402355D02*
D03*
X387302Y399180D02*
D03*
X381802Y402355D02*
D03*
Y396005D02*
D03*
X398300Y411880D02*
D03*
Y356000D02*
D03*
X381802Y177565D02*
D03*
Y183915D02*
D03*
X387302Y180740D02*
D03*
X392801Y183915D02*
D03*
X398300Y187090D02*
D03*
X392801Y190265D02*
D03*
X403799Y196615D02*
D03*
X392801D02*
D03*
X398300Y193440D02*
D03*
X398300Y143910D02*
D03*
X381950Y147000D02*
D03*
Y153350D02*
D03*
X403799Y134385D02*
D03*
X392801D02*
D03*
X387449Y150175D02*
D03*
X392948Y147000D02*
D03*
X392801Y140735D02*
D03*
X398300Y137560D02*
D03*
X352640Y341690D02*
D03*
Y348190D02*
D03*
Y419690D02*
D03*
Y426190D02*
D03*
Y123250D02*
D03*
Y129750D02*
D03*
Y201250D02*
D03*
Y207750D02*
D03*
D47*
X311940Y152500D02*
D03*
Y139500D02*
D03*
Y178500D02*
D03*
Y191500D02*
D03*
X319940D02*
D03*
Y178500D02*
D03*
Y165500D02*
D03*
Y152500D02*
D03*
Y139500D02*
D03*
X303940Y178500D02*
D03*
Y165500D02*
D03*
Y152500D02*
D03*
Y139500D02*
D03*
X311940Y165500D02*
D03*
X303940Y191500D02*
D03*
X311940Y370940D02*
D03*
Y357940D02*
D03*
Y396940D02*
D03*
Y409940D02*
D03*
X319940D02*
D03*
Y396940D02*
D03*
Y383940D02*
D03*
Y370940D02*
D03*
Y357940D02*
D03*
X303940Y396940D02*
D03*
Y383940D02*
D03*
Y370940D02*
D03*
Y357940D02*
D03*
X311940Y383940D02*
D03*
X303940Y409940D02*
D03*
D48*
X210340Y402890D02*
D03*
X229390Y197450D02*
D03*
X210340Y184450D02*
D03*
X271643Y162250D02*
D03*
Y188250D02*
D03*
Y194750D02*
D03*
X160430Y147350D02*
D03*
Y366040D02*
D03*
X271240Y380690D02*
D03*
Y406690D02*
D03*
X271643Y413190D02*
D03*
X107470Y392270D02*
D03*
X132870D02*
D03*
X107470Y173830D02*
D03*
X132870D02*
D03*
X149270Y466490D02*
D03*
Y82800D02*
D03*
Y32000D02*
D03*
X229390Y416070D02*
D03*
X489740Y497480D02*
D03*
X516410Y495480D02*
D03*
X489740Y55230D02*
D03*
X516410Y53230D02*
D03*
X149270Y517290D02*
D03*
X327180Y402990D02*
D03*
Y364890D02*
D03*
Y184550D02*
D03*
Y146450D02*
D03*
X261140Y313190D02*
D03*
D49*
X256060Y387190D02*
D03*
Y168750D02*
D03*
M02*
