G04*
G04 #@! TF.GenerationSoftware,Altium Limited,Altium Designer,26.5.0 (11)*
G04*
G04 Layer_Physical_Order=1*
G04 Layer_Color=255*
G04 Board_Origin=25968898|13934251*
%FSLAX44Y44*%
%MOMM*%
G71*
G04*
G04 #@! TF.SameCoordinates,52F1D67A-09F0-48E2-AEE0-20A34439047D*
G04*
G04*
G04 #@! TF.FilePolarity,Positive*
G04*
G01*
G75*
%ADD11C,0.2540*%
%ADD14R,0.9500X1.0000*%
%ADD15R,1.6000X0.3000*%
%ADD16R,2.2600X6.0300*%
%ADD17R,1.0000X0.9500*%
G04:AMPARAMS|DCode=18|XSize=0.94mm|YSize=1.02mm|CornerRadius=0.094mm|HoleSize=0mm|Usage=FLASHONLY|Rotation=90.000|XOffset=0mm|YOffset=0mm|HoleType=Round|Shape=RoundedRectangle|*
%AMROUNDEDRECTD18*
21,1,0.9400,0.8320,0,0,90.0*
21,1,0.7520,1.0200,0,0,90.0*
1,1,0.1880,0.4160,0.3760*
1,1,0.1880,0.4160,-0.3760*
1,1,0.1880,-0.4160,-0.3760*
1,1,0.1880,-0.4160,0.3760*
%
%ADD18ROUNDEDRECTD18*%
%ADD19R,1.1500X1.4500*%
%ADD20R,1.4500X1.1500*%
%ADD40R,3.8500X5.5000*%
%ADD41C,0.3810*%
%ADD42R,2.1000X2.1000*%
%ADD43C,2.1000*%
%ADD44C,1.5240*%
%ADD45R,2.1000X2.1000*%
%ADD46R,1.8600X1.8600*%
%ADD47C,1.8600*%
%ADD48C,0.4000*%
%ADD49C,0.3810*%
%ADD50C,0.3000*%
%ADD51C,0.5000*%
%ADD52C,0.5080*%
G36*
X412713Y519923D02*
Y519737D01*
X391858Y498881D01*
X348039Y498881D01*
X332982Y498868D01*
X332011Y499867D01*
Y504370D01*
X348940D01*
Y504556D01*
X350365D01*
X351017Y503903D01*
X352304Y503370D01*
X353696D01*
X354983Y503903D01*
X355967Y504887D01*
X356500Y506174D01*
Y507566D01*
X355967Y508853D01*
X354983Y509837D01*
X353696Y510370D01*
X352304D01*
X351017Y509837D01*
X350365Y509184D01*
X348940D01*
Y509370D01*
X332011D01*
Y517370D01*
X348940D01*
Y517556D01*
X359590D01*
Y513870D01*
X371090D01*
Y522597D01*
X374859Y526366D01*
X406271D01*
X412713Y519923D01*
D02*
G37*
G36*
X589280Y523240D02*
X502520D01*
X469900Y490620D01*
X423305D01*
Y540620D01*
X469900D01*
X518560Y589280D01*
X589280D01*
Y523240D01*
D02*
G37*
G36*
X708660Y568960D02*
X782320D01*
X810260Y541020D01*
X889000D01*
Y490220D01*
X744220D01*
X693420Y523240D01*
X640080D01*
Y589280D01*
X688340D01*
X708660Y568960D01*
D02*
G37*
G36*
X412713Y461424D02*
Y461237D01*
X406351Y454874D01*
X374859D01*
X371090Y458643D01*
Y467370D01*
X359590D01*
Y463685D01*
X348940D01*
Y463870D01*
X331957D01*
Y471870D01*
X348940D01*
Y472056D01*
X350365D01*
X351017Y471403D01*
X352304Y470870D01*
X353696D01*
X354983Y471403D01*
X355967Y472387D01*
X356500Y473674D01*
Y475066D01*
X355967Y476353D01*
X354983Y477337D01*
X353696Y477870D01*
X352304D01*
X351017Y477337D01*
X350365Y476684D01*
X348940D01*
Y476870D01*
X331957D01*
Y482343D01*
X347476Y482345D01*
X391792D01*
X412713Y461424D01*
D02*
G37*
G36*
X470665Y489855D02*
X502520Y458000D01*
X589280D01*
Y391960D01*
X518560D01*
X469900Y440620D01*
X423305D01*
Y489538D01*
X469900D01*
X470665Y489855D01*
X470665Y489855D01*
D02*
G37*
G36*
X743630Y489313D02*
X743934Y489256D01*
X744220Y489138D01*
X889000D01*
Y439420D01*
X810260D01*
X782320Y411480D01*
X708660D01*
X688340Y391160D01*
X640080D01*
Y457200D01*
X693420D01*
X743227Y489575D01*
X743630Y489313D01*
D02*
G37*
G36*
X412713Y194803D02*
Y194617D01*
X391874Y173777D01*
X348051Y173777D01*
X332995Y173764D01*
X332023Y174763D01*
Y179250D01*
X348940D01*
Y179436D01*
X350365D01*
X351017Y178783D01*
X352304Y178250D01*
X353696D01*
X354983Y178783D01*
X355967Y179767D01*
X356500Y181054D01*
Y182446D01*
X355967Y183733D01*
X354983Y184717D01*
X353696Y185250D01*
X352304D01*
X351017Y184717D01*
X350365Y184065D01*
X348940D01*
Y184250D01*
X332023D01*
Y192250D01*
X348940D01*
Y192435D01*
X359590D01*
Y188750D01*
X371090D01*
Y197477D01*
X374859Y201245D01*
X406271D01*
X412713Y194803D01*
D02*
G37*
G36*
X589280Y198120D02*
X502520D01*
X469900Y165500D01*
X423305D01*
Y215500D01*
X469900D01*
X518560Y264160D01*
X589280D01*
Y198120D01*
D02*
G37*
G36*
X708660Y243840D02*
X782320D01*
X810260Y215900D01*
X889000D01*
Y165100D01*
X744220D01*
X693420Y198120D01*
X640080D01*
Y264160D01*
X688340D01*
X708660Y243840D01*
D02*
G37*
G36*
X412713Y136304D02*
Y136117D01*
X406351Y129754D01*
X374859D01*
X371090Y133523D01*
Y142250D01*
X359590D01*
Y138565D01*
X348940D01*
Y138750D01*
X331942D01*
Y146750D01*
X348940D01*
Y146936D01*
X350365D01*
X351017Y146283D01*
X352304Y145750D01*
X353696D01*
X354983Y146283D01*
X355967Y147267D01*
X356500Y148554D01*
Y149946D01*
X355967Y151233D01*
X354983Y152217D01*
X353696Y152750D01*
X352304D01*
X351017Y152217D01*
X350365Y151565D01*
X348940D01*
Y151750D01*
X331942D01*
Y157249D01*
X347461Y157250D01*
X391767D01*
X412713Y136304D01*
D02*
G37*
G36*
X743630Y164193D02*
X743934Y164136D01*
X744220Y164018D01*
X889000D01*
Y114300D01*
X810260D01*
X782320Y86360D01*
X708660D01*
X688340Y66040D01*
X640080D01*
Y132080D01*
X693420D01*
X743227Y164454D01*
X743630Y164193D01*
D02*
G37*
G36*
X502520Y132080D02*
X589280D01*
Y66040D01*
X518560D01*
X469900Y114700D01*
X423305D01*
Y164418D01*
X469900D01*
X470100Y164500D01*
X502520Y132080D01*
D02*
G37*
D11*
X10160Y287020D02*
X37230Y314090D01*
X10160Y231140D02*
Y287020D01*
Y231140D02*
X125330Y115970D01*
X37230Y314090D02*
X107470D01*
X125330Y115970D02*
X185630D01*
X30000Y242433D02*
X140073Y132360D01*
X160430Y147350D02*
X173130D01*
X132870Y173830D02*
Y186530D01*
X107470Y314090D02*
X132870D01*
X91720Y457480D02*
X173130D01*
X30000Y395760D02*
X91720Y457480D01*
X30000Y378060D02*
Y395760D01*
X140073Y132360D02*
X173130D01*
X30000Y242433D02*
Y278060D01*
X107470Y527450D02*
Y563010D01*
X109664Y565205D01*
X118900D01*
X107470Y639210D02*
X132870D01*
X118900Y565205D02*
X128135Y574440D01*
X132870Y527450D02*
Y563010D01*
Y621430D02*
Y639210D01*
X107470Y498950D02*
Y511650D01*
X132870Y498950D02*
Y511650D01*
X160430Y472720D02*
X173130D01*
X128135Y574440D02*
X140816D01*
X132870Y621430D02*
X153767Y600533D01*
X132870Y563010D02*
X159540Y536340D01*
X149270Y623970D02*
X161970D01*
X140816Y574440D02*
X173836Y541420D01*
X161970Y573170D02*
Y585870D01*
X153767Y600533D02*
X180437D01*
X229570Y493870D02*
X256060D01*
X210340Y480870D02*
X283940D01*
X159540Y536340D02*
X226850D01*
X179970Y573170D02*
X207800D01*
X179970Y623970D02*
X207800D01*
X180437Y600533D02*
X207800Y573170D01*
X173836Y541420D02*
X228954D01*
X207800Y623970D02*
X207950Y624120D01*
X210340Y496870D02*
Y509570D01*
X339940Y519870D02*
X365340D01*
X301250Y638430D02*
X412153D01*
X365340Y519870D02*
Y520120D01*
X373900Y528680D01*
X407230D01*
X415028Y520882D01*
X412153Y638430D02*
X417723Y632860D01*
X421160D01*
X489740D01*
Y604160D02*
Y616860D01*
Y632860D02*
X516410D01*
Y602160D02*
Y614860D01*
X415028Y518778D02*
Y520882D01*
X373900Y452560D02*
X407310D01*
X415028Y460278D01*
Y462382D01*
X390040Y487370D02*
X415028Y462382D01*
X390120Y493870D02*
X415028Y518778D01*
X283940Y474370D02*
Y480870D01*
X339940Y454870D02*
X352640D01*
X339940Y448370D02*
X352640D01*
X283940Y532870D02*
Y547770D01*
Y563570D02*
X286885Y566515D01*
Y624065D01*
X286940Y624120D01*
X301250Y638430D01*
X339940Y532870D02*
X352640D01*
X339940Y526370D02*
X352640D01*
X339940Y506870D02*
X353000D01*
X339940Y487370D02*
X390040D01*
X339940Y493870D02*
X390120D01*
X339940Y474370D02*
X353000D01*
X339940Y461370D02*
X365340D01*
Y461120D02*
Y461370D01*
Y461120D02*
X373900Y452560D01*
X229390Y510050D02*
Y522750D01*
Y494050D02*
X229570Y493870D01*
X226850Y536340D02*
X262820Y500370D01*
X228954Y541420D02*
X263504Y506870D01*
X207950Y624120D02*
X286940D01*
X262820Y500370D02*
X283940D01*
X263504Y506870D02*
X283940D01*
X271240Y513370D02*
X283940D01*
X271643Y519870D02*
X283940D01*
Y526370D02*
Y532870D01*
X256060Y493870D02*
X283940D01*
X261140Y448370D02*
X283940D01*
X271240Y487370D02*
X283940D01*
X261140Y419870D02*
Y432570D01*
X149270Y32000D02*
X161970D01*
X149270Y82800D02*
X161970D01*
X107470Y173830D02*
Y186530D01*
X210340Y171750D02*
Y184450D01*
X271643Y188250D02*
X283940D01*
X271643Y162250D02*
X283940D01*
X229390Y184750D02*
Y197450D01*
X271643Y194750D02*
X283940D01*
X516410Y40530D02*
Y53230D01*
X489740Y42530D02*
Y55230D01*
X326000Y181750D02*
X339940D01*
X326000Y149250D02*
X339940D01*
Y181750D02*
X353000D01*
X339940Y149250D02*
X353000D01*
X336940Y32000D02*
Y32050D01*
X261540Y107450D02*
X336940Y32050D01*
X261140Y107450D02*
X261540D01*
X185630Y115970D02*
X218800Y82800D01*
X489740Y24530D02*
X516410D01*
X421160D02*
X489740D01*
X419935D02*
X421160D01*
X412466Y32000D02*
X419935Y24530D01*
X336940Y32000D02*
X412466D01*
X407310Y127440D02*
X415028Y135158D01*
X390040Y162250D02*
X415028Y137262D01*
X407230Y203560D02*
X415028Y195762D01*
Y193658D02*
Y195762D01*
X373900Y203560D02*
X407230D01*
X339940Y162250D02*
X390040D01*
X415028Y135158D02*
Y137262D01*
X390120Y168750D02*
X415028Y193658D01*
X373900Y127440D02*
X407310D01*
X339940Y168750D02*
X390120D01*
X339940Y123250D02*
X352640D01*
X339940Y129750D02*
X352640D01*
X339940Y201250D02*
X352640D01*
X339940Y207750D02*
X352640D01*
X339940D02*
Y212430D01*
X283940Y238450D02*
X313920D01*
X339940Y212430D01*
X218800Y32000D02*
X236430Y14370D01*
X319310D01*
X336940Y32000D01*
X132870Y237890D02*
X159540Y211220D01*
X226850D01*
X262820Y175250D01*
X283940D01*
X132870Y202330D02*
Y237890D01*
X107470D02*
X109664Y240084D01*
X118900D01*
X128135Y249320D01*
X140816D01*
X173836Y216300D01*
X228954D01*
X263504Y181750D01*
X283940D01*
X107470Y202330D02*
Y237890D01*
X256060Y168750D02*
X283940D01*
X229390D02*
X256060D01*
X179970Y32000D02*
X218800D01*
X179970Y82800D02*
X218800D01*
X283940Y149250D02*
Y155750D01*
X210340D02*
X283940D01*
X261140Y123250D02*
X283940D01*
Y201250D02*
Y207750D01*
Y222650D01*
X339940Y194750D02*
X365340D01*
Y195000D01*
X373900Y203560D01*
X339940Y136250D02*
X365340D01*
Y136000D02*
Y136250D01*
Y136000D02*
X373900Y127440D01*
D14*
X381340Y194750D02*
D03*
X365340Y519870D02*
D03*
X381340D02*
D03*
X365340Y461370D02*
D03*
X381340D02*
D03*
X173130Y457480D02*
D03*
X189130D02*
D03*
X173130Y472720D02*
D03*
X189130D02*
D03*
X173130Y147350D02*
D03*
X189130D02*
D03*
Y132360D02*
D03*
X173130D02*
D03*
X365340Y194750D02*
D03*
X381340Y136250D02*
D03*
X365340D02*
D03*
D15*
X339940Y175250D02*
D03*
Y188250D02*
D03*
X283940Y532870D02*
D03*
Y526370D02*
D03*
Y519870D02*
D03*
Y513370D02*
D03*
Y506870D02*
D03*
Y500370D02*
D03*
Y493870D02*
D03*
Y487370D02*
D03*
Y480870D02*
D03*
Y474370D02*
D03*
Y467870D02*
D03*
Y461370D02*
D03*
Y454870D02*
D03*
Y448370D02*
D03*
X339940Y532870D02*
D03*
Y526370D02*
D03*
Y519870D02*
D03*
Y513370D02*
D03*
Y506870D02*
D03*
Y500370D02*
D03*
Y493870D02*
D03*
Y487370D02*
D03*
Y480870D02*
D03*
Y474370D02*
D03*
Y467870D02*
D03*
Y461370D02*
D03*
Y454870D02*
D03*
Y448370D02*
D03*
X283940Y162250D02*
D03*
Y188250D02*
D03*
Y194750D02*
D03*
X339940Y181750D02*
D03*
Y149250D02*
D03*
X283940Y207750D02*
D03*
Y201250D02*
D03*
Y181750D02*
D03*
Y175250D02*
D03*
Y168750D02*
D03*
Y155750D02*
D03*
Y149250D02*
D03*
Y142750D02*
D03*
Y136250D02*
D03*
Y129750D02*
D03*
Y123250D02*
D03*
X339940Y207750D02*
D03*
Y201250D02*
D03*
Y194750D02*
D03*
Y168750D02*
D03*
Y162250D02*
D03*
Y155750D02*
D03*
Y142750D02*
D03*
Y136250D02*
D03*
Y129750D02*
D03*
Y123250D02*
D03*
D16*
X311940Y490620D02*
D03*
Y165500D02*
D03*
D17*
X210340Y480870D02*
D03*
Y496870D02*
D03*
X229390Y494050D02*
D03*
Y510050D02*
D03*
X489740Y632860D02*
D03*
Y616860D02*
D03*
X210340Y171750D02*
D03*
X229390Y184750D02*
D03*
X516410Y40530D02*
D03*
Y24530D02*
D03*
X229390Y168750D02*
D03*
X210340Y155750D02*
D03*
D18*
X132870Y511650D02*
D03*
Y527450D02*
D03*
X283940Y563570D02*
D03*
Y547770D02*
D03*
X107470Y511650D02*
D03*
Y527450D02*
D03*
X261140Y432570D02*
D03*
Y448370D02*
D03*
X107470Y186530D02*
D03*
X132870D02*
D03*
X283940Y222650D02*
D03*
Y238450D02*
D03*
X261140Y107450D02*
D03*
Y123250D02*
D03*
X107470Y202330D02*
D03*
X132870D02*
D03*
D19*
X179970Y573170D02*
D03*
X161970D02*
D03*
X179970Y623970D02*
D03*
X161970D02*
D03*
Y82800D02*
D03*
Y32000D02*
D03*
X179970Y82800D02*
D03*
Y32000D02*
D03*
D20*
X516410Y632860D02*
D03*
Y614860D02*
D03*
X489740Y42530D02*
D03*
Y24530D02*
D03*
D40*
X564530Y231540D02*
D03*
X664030D02*
D03*
Y99460D02*
D03*
X564530D02*
D03*
Y556660D02*
D03*
X664030D02*
D03*
Y424580D02*
D03*
X564530D02*
D03*
D41*
X189130Y457480D02*
Y457730D01*
Y472470D02*
Y472720D01*
Y457730D02*
X193325Y461925D01*
X189130Y472470D02*
X193325Y468275D01*
Y461925D02*
X233120D01*
X193325Y468275D02*
X235750D01*
X233120Y461925D02*
X233600Y461445D01*
X235750Y468275D02*
X236230Y467795D01*
X283865Y461445D02*
X283940Y461370D01*
X283865Y467795D02*
X283940Y467870D01*
X233600Y461445D02*
X283865D01*
X236230Y467795D02*
X283865D01*
X189130Y147100D02*
Y147350D01*
X193200Y143030D02*
X235813D01*
X189130Y147100D02*
X193200Y143030D01*
X283865Y142675D02*
X283940Y142750D01*
X236168Y142675D02*
X283865D01*
X235813Y143030D02*
X236168Y142675D01*
X233538Y136325D02*
X283865D01*
X233183Y136680D02*
X233538Y136325D01*
X193200Y136680D02*
X233183D01*
X189130Y132610D02*
X193200Y136680D01*
X189130Y132360D02*
Y132610D01*
X283865Y136325D02*
X283940Y136250D01*
D42*
X856500Y140500D02*
D03*
X30000Y378060D02*
D03*
X856500Y465620D02*
D03*
D43*
Y190500D02*
D03*
X286940Y624120D02*
D03*
X856500Y515620D02*
D03*
X30000Y328060D02*
D03*
X336940Y32000D02*
D03*
X30000Y278060D02*
D03*
D44*
X749300Y99460D02*
D03*
X744220Y231540D02*
D03*
X132870Y639210D02*
D03*
X107470D02*
D03*
X132870Y563010D02*
D03*
X107470D02*
D03*
X421160Y632860D02*
D03*
Y582060D02*
D03*
X744220Y424580D02*
D03*
Y556660D02*
D03*
Y282340D02*
D03*
X749300Y48660D02*
D03*
X744220Y607460D02*
D03*
Y373780D02*
D03*
X421160Y75330D02*
D03*
Y24530D02*
D03*
X132870Y314090D02*
D03*
Y237890D02*
D03*
X107470Y314090D02*
D03*
Y237890D02*
D03*
D45*
X336940Y624120D02*
D03*
X286940Y32000D02*
D03*
D46*
X207800Y623970D02*
D03*
X218800Y32000D02*
D03*
D47*
X207800Y573170D02*
D03*
Y598570D02*
D03*
X218800Y57400D02*
D03*
Y82800D02*
D03*
D48*
X160430Y147350D02*
D03*
X132870Y173830D02*
D03*
X352640Y526370D02*
D03*
Y532870D02*
D03*
X107470Y498950D02*
D03*
X132870D02*
D03*
X149270Y623970D02*
D03*
X160430Y472720D02*
D03*
X161970Y585870D02*
D03*
X210340Y509570D02*
D03*
X229390Y522750D02*
D03*
X271240Y487370D02*
D03*
Y513370D02*
D03*
X271643Y519870D02*
D03*
X352640Y454870D02*
D03*
X489740Y604160D02*
D03*
X516410Y602160D02*
D03*
X352640Y448370D02*
D03*
X261140Y419870D02*
D03*
X149270Y32000D02*
D03*
Y82800D02*
D03*
X107470Y173830D02*
D03*
X271643Y162250D02*
D03*
X210340Y184450D02*
D03*
X229390Y197450D02*
D03*
X271643Y194750D02*
D03*
Y188250D02*
D03*
X516410Y53230D02*
D03*
X489740Y55230D02*
D03*
X352640Y123250D02*
D03*
Y129750D02*
D03*
Y201250D02*
D03*
Y207750D02*
D03*
D49*
X464820Y160020D02*
D03*
X457200D02*
D03*
X449580D02*
D03*
X441960D02*
D03*
Y149860D02*
D03*
X449580D02*
D03*
X457200D02*
D03*
X464820D02*
D03*
X441960Y139700D02*
D03*
X449580D02*
D03*
X457200D02*
D03*
X464820D02*
D03*
X441960Y129540D02*
D03*
X449580D02*
D03*
X457200D02*
D03*
X464820D02*
D03*
X441960Y119380D02*
D03*
X449580D02*
D03*
X457200D02*
D03*
X464820D02*
D03*
Y210820D02*
D03*
X457200D02*
D03*
X449580D02*
D03*
X441960D02*
D03*
Y200660D02*
D03*
X449580D02*
D03*
X457200D02*
D03*
X464820D02*
D03*
X441960Y190500D02*
D03*
X449580D02*
D03*
X457200D02*
D03*
X464820D02*
D03*
X441960Y180340D02*
D03*
X449580D02*
D03*
X457200D02*
D03*
X464820D02*
D03*
X441960Y170180D02*
D03*
X449580D02*
D03*
X457200D02*
D03*
X464820D02*
D03*
Y485140D02*
D03*
X457200D02*
D03*
X449580D02*
D03*
X441960D02*
D03*
Y474980D02*
D03*
X449580D02*
D03*
X457200D02*
D03*
X464820D02*
D03*
X441960Y464820D02*
D03*
X449580D02*
D03*
X457200D02*
D03*
X464820D02*
D03*
X441960Y454660D02*
D03*
X449580D02*
D03*
X457200D02*
D03*
X464820D02*
D03*
X441960Y444500D02*
D03*
X449580D02*
D03*
X457200D02*
D03*
X464820D02*
D03*
Y495300D02*
D03*
X457200D02*
D03*
X449580D02*
D03*
X441960D02*
D03*
X464820Y505460D02*
D03*
X457200D02*
D03*
X449580D02*
D03*
X441960D02*
D03*
X464820Y515620D02*
D03*
X457200D02*
D03*
X449580D02*
D03*
X441960D02*
D03*
X464820Y525780D02*
D03*
X457200D02*
D03*
X449580D02*
D03*
X441960D02*
D03*
Y535940D02*
D03*
X449580D02*
D03*
X457200D02*
D03*
X464820D02*
D03*
X392801Y196615D02*
D03*
X403799D02*
D03*
X398300Y187090D02*
D03*
X387302Y180740D02*
D03*
Y505860D02*
D03*
X392801Y521735D02*
D03*
X387449Y475295D02*
D03*
X403799Y459505D02*
D03*
X392801D02*
D03*
X398300Y512210D02*
D03*
X403799Y521735D02*
D03*
X398300Y469030D02*
D03*
X398300Y143910D02*
D03*
X403799Y134385D02*
D03*
X392801D02*
D03*
X387449Y150175D02*
D03*
D50*
X311940Y477620D02*
D03*
Y464620D02*
D03*
Y503620D02*
D03*
Y516620D02*
D03*
X319940D02*
D03*
Y503620D02*
D03*
Y490620D02*
D03*
Y477620D02*
D03*
Y464620D02*
D03*
X303940Y503620D02*
D03*
Y490620D02*
D03*
Y477620D02*
D03*
Y464620D02*
D03*
X311940Y490620D02*
D03*
X303940Y516620D02*
D03*
Y139500D02*
D03*
X311940Y152500D02*
D03*
X303940D02*
D03*
X311940Y165500D02*
D03*
Y139500D02*
D03*
X319940D02*
D03*
Y165500D02*
D03*
Y152500D02*
D03*
X303940Y178500D02*
D03*
Y165500D02*
D03*
Y191500D02*
D03*
X311940Y178500D02*
D03*
X319940D02*
D03*
X311940Y191500D02*
D03*
X319940D02*
D03*
D51*
X353000Y474370D02*
D03*
Y506870D02*
D03*
X326000Y181750D02*
D03*
Y149250D02*
D03*
X353000Y181750D02*
D03*
Y149250D02*
D03*
D52*
X256060Y493870D02*
D03*
Y168750D02*
D03*
M02*
