G04*
G04 #@! TF.GenerationSoftware,Altium Limited,Altium Designer,26.5.0 (11)*
G04*
G04 Layer_Color=16711935*
G04 Board_Origin=25968898|13934251*
%FSLAX44Y44*%
%MOMM*%
G71*
G04*
G04 #@! TF.SameCoordinates,52F1D67A-09F0-48E2-AEE0-20A34439047D*
G04*
G04*
G04 #@! TF.FilePolarity,Positive*
G04*
G01*
G75*
%ADD13C,0.1270*%
D13*
X189800Y651270D02*
X236800D01*
Y545870D02*
Y651270D01*
X189800Y545870D02*
X236800D01*
X189800D02*
Y651270D01*
X127870Y510550D02*
Y528550D01*
X137870Y510550D02*
Y528550D01*
X127870D02*
X137870D01*
X127870Y510550D02*
X137870D01*
X278940Y564670D02*
X288940D01*
X278940Y546670D02*
X288940D01*
X278940D02*
Y564670D01*
X288940Y546670D02*
Y564670D01*
X160970Y566670D02*
Y579670D01*
Y566670D02*
X180970D01*
Y579670D01*
X160970D02*
X180970D01*
X160970Y630470D02*
X180970D01*
Y617470D02*
Y630470D01*
X160970Y617470D02*
X180970D01*
X160970D02*
Y630470D01*
X509910Y613860D02*
X522910D01*
Y633860D01*
X509910D02*
X522910D01*
X509910Y613860D02*
Y633860D01*
X102470Y510550D02*
Y528550D01*
X112470Y510550D02*
Y528550D01*
X102470D02*
X112470D01*
X102470Y510550D02*
X112470D01*
X266140Y431470D02*
Y449470D01*
X256140Y431470D02*
Y449470D01*
Y431470D02*
X266140D01*
X256140Y449470D02*
X266140D01*
X496240Y23530D02*
Y43530D01*
X483240Y23530D02*
X496240D01*
X483240D02*
Y43530D01*
X496240D01*
X236800Y4700D02*
Y110100D01*
X189800D02*
X236800D01*
X189800Y4700D02*
Y110100D01*
Y4700D02*
X236800D01*
X160970Y76300D02*
Y89300D01*
Y76300D02*
X180970D01*
Y89300D01*
X160970D02*
X180970D01*
X160970Y25500D02*
Y38500D01*
Y25500D02*
X180970D01*
Y38500D01*
X160970D02*
X180970D01*
X278940Y239550D02*
X288940D01*
X278940Y221550D02*
X288940D01*
X278940D02*
Y239550D01*
X288940Y221550D02*
Y239550D01*
X256140Y124350D02*
X266140D01*
X256140Y106350D02*
X266140D01*
X256140D02*
Y124350D01*
X266140Y106350D02*
Y124350D01*
X102470Y185430D02*
X112470D01*
X102470Y203430D02*
X112470D01*
Y185430D02*
Y203430D01*
X102470Y185430D02*
Y203430D01*
X127870Y185430D02*
X137870D01*
X127870Y203430D02*
X137870D01*
Y185430D02*
Y203430D01*
X127870Y185430D02*
Y203430D01*
M02*
