G04*
G04 #@! TF.GenerationSoftware,Altium Limited,Altium Designer,26.6.0 (10)*
G04*
G04 Layer_Color=2752767*
G04 Board_Origin=25968898|13934251*
%FSLAX44Y44*%
%MOMM*%
G71*
G04*
G04 #@! TF.SameCoordinates,28262C2E-F151-4320-BF17-60C4C4611D1B*
G04*
G04*
G04 #@! TF.FilePolarity,Positive*
G04*
G01*
G75*
%ADD12C,0.1270*%
%ADD52C,0.1693*%
D12*
X107470Y557930D02*
X102390Y568090D01*
X112550D01*
X107470Y557930D01*
X132870D02*
X127790Y568090D01*
X137950D01*
X132870Y557930D01*
X205260Y570630D02*
Y568090D01*
X210340D01*
Y570630D01*
X212880D01*
Y575710D01*
X210340D01*
Y578250D01*
X205260D01*
Y575710D01*
X202720D01*
Y570630D01*
X205260D01*
X107470Y634130D02*
X102390Y644290D01*
X112550D01*
X107470Y634130D01*
X132870D02*
X127790Y644290D01*
X137950D01*
X132870Y634130D01*
X281860Y619040D02*
Y629200D01*
X292020D01*
Y619040D01*
X281860D01*
X205260Y621430D02*
Y618890D01*
X210340D01*
Y621430D01*
X212880D01*
Y626510D01*
X210340D01*
Y629050D01*
X205260D01*
Y626510D01*
X202720D01*
Y621430D01*
X205260D01*
X281860Y26920D02*
Y37080D01*
X292020D01*
Y26920D01*
X281860D01*
X216260Y54860D02*
Y52320D01*
X221340D01*
Y54860D01*
X223880D01*
Y59940D01*
X221340D01*
Y62480D01*
X216260D01*
Y59940D01*
X213720D01*
Y54860D01*
X216260D01*
X24920Y322980D02*
Y333140D01*
X35080D01*
Y322980D01*
X24920D01*
X205260Y596030D02*
Y593490D01*
X210340D01*
Y596030D01*
X212880D01*
Y601110D01*
X210340D01*
Y603650D01*
X205260D01*
Y601110D01*
X202720D01*
Y596030D01*
X205260D01*
X331860Y619040D02*
Y629200D01*
X342020D01*
Y619040D01*
X331860D01*
X851420Y185420D02*
Y195580D01*
X861580D01*
Y185420D01*
X851420D01*
Y135420D02*
Y145580D01*
X861580D01*
Y135420D01*
X851420D01*
X24920Y372980D02*
Y383140D01*
X35080D01*
Y372980D01*
X24920D01*
X851420Y460540D02*
Y470700D01*
X861580D01*
Y460540D01*
X851420D01*
Y510540D02*
Y520700D01*
X861580D01*
Y510540D01*
X851420D01*
X331860Y26920D02*
Y37080D01*
X342020D01*
Y26920D01*
X331860D01*
X132870Y309010D02*
X127790Y319170D01*
X137950D01*
X132870Y309010D01*
Y232810D02*
X127790Y242970D01*
X137950D01*
X132870Y232810D01*
X107470Y309010D02*
X102390Y319170D01*
X112550D01*
X107470Y309010D01*
Y232810D02*
X102390Y242970D01*
X112550D01*
X107470Y232810D01*
X24920Y272980D02*
Y283140D01*
X35080D01*
Y272980D01*
X24920D01*
X216260Y80260D02*
Y77720D01*
X221340D01*
Y80260D01*
X223880D01*
Y85340D01*
X221340D01*
Y87880D01*
X216260D01*
Y85340D01*
X213720D01*
Y80260D01*
X216260D01*
Y29460D02*
Y26920D01*
X221340D01*
Y29460D01*
X223880D01*
Y34540D01*
X221340D01*
Y37080D01*
X216260D01*
Y34540D01*
X213720D01*
Y29460D01*
X216260D01*
X303940Y186420D02*
X306480Y188960D01*
X309020D01*
X306480Y191500D01*
X309020Y194040D01*
X306480D01*
X303940Y196580D01*
X301400Y194040D01*
X298860D01*
X301400Y191500D01*
X298860Y188960D01*
X301400D01*
X303940Y186420D01*
X311940Y160420D02*
X314480Y162960D01*
X317020D01*
X314480Y165500D01*
X317020Y168040D01*
X314480D01*
X311940Y170580D01*
X309400Y168040D01*
X306860D01*
X309400Y165500D01*
X306860Y162960D01*
X309400D01*
X311940Y160420D01*
X303940Y134420D02*
X306480Y136960D01*
X309020D01*
X306480Y139500D01*
X309020Y142040D01*
X306480D01*
X303940Y144580D01*
X301400Y142040D01*
X298860D01*
X301400Y139500D01*
X298860Y136960D01*
X301400D01*
X303940Y134420D01*
Y147420D02*
X306480Y149960D01*
X309020D01*
X306480Y152500D01*
X309020Y155040D01*
X306480D01*
X303940Y157580D01*
X301400Y155040D01*
X298860D01*
X301400Y152500D01*
X298860Y149960D01*
X301400D01*
X303940Y147420D01*
Y160420D02*
X306480Y162960D01*
X309020D01*
X306480Y165500D01*
X309020Y168040D01*
X306480D01*
X303940Y170580D01*
X301400Y168040D01*
X298860D01*
X301400Y165500D01*
X298860Y162960D01*
X301400D01*
X303940Y160420D01*
Y173420D02*
X306480Y175960D01*
X309020D01*
X306480Y178500D01*
X309020Y181040D01*
X306480D01*
X303940Y183580D01*
X301400Y181040D01*
X298860D01*
X301400Y178500D01*
X298860Y175960D01*
X301400D01*
X303940Y173420D01*
X319940Y134420D02*
X322480Y136960D01*
X325020D01*
X322480Y139500D01*
X325020Y142040D01*
X322480D01*
X319940Y144580D01*
X317400Y142040D01*
X314860D01*
X317400Y139500D01*
X314860Y136960D01*
X317400D01*
X319940Y134420D01*
Y147420D02*
X322480Y149960D01*
X325020D01*
X322480Y152500D01*
X325020Y155040D01*
X322480D01*
X319940Y157580D01*
X317400Y155040D01*
X314860D01*
X317400Y152500D01*
X314860Y149960D01*
X317400D01*
X319940Y147420D01*
Y160420D02*
X322480Y162960D01*
X325020D01*
X322480Y165500D01*
X325020Y168040D01*
X322480D01*
X319940Y170580D01*
X317400Y168040D01*
X314860D01*
X317400Y165500D01*
X314860Y162960D01*
X317400D01*
X319940Y160420D01*
Y173420D02*
X322480Y175960D01*
X325020D01*
X322480Y178500D01*
X325020Y181040D01*
X322480D01*
X319940Y183580D01*
X317400Y181040D01*
X314860D01*
X317400Y178500D01*
X314860Y175960D01*
X317400D01*
X319940Y173420D01*
Y186420D02*
X322480Y188960D01*
X325020D01*
X322480Y191500D01*
X325020Y194040D01*
X322480D01*
X319940Y196580D01*
X317400Y194040D01*
X314860D01*
X317400Y191500D01*
X314860Y188960D01*
X317400D01*
X319940Y186420D01*
X311940D02*
X314480Y188960D01*
X317020D01*
X314480Y191500D01*
X317020Y194040D01*
X314480D01*
X311940Y196580D01*
X309400Y194040D01*
X306860D01*
X309400Y191500D01*
X306860Y188960D01*
X309400D01*
X311940Y186420D01*
Y173420D02*
X314480Y175960D01*
X317020D01*
X314480Y178500D01*
X317020Y181040D01*
X314480D01*
X311940Y183580D01*
X309400Y181040D01*
X306860D01*
X309400Y178500D01*
X306860Y175960D01*
X309400D01*
X311940Y173420D01*
Y134420D02*
X314480Y136960D01*
X317020D01*
X314480Y139500D01*
X317020Y142040D01*
X314480D01*
X311940Y144580D01*
X309400Y142040D01*
X306860D01*
X309400Y139500D01*
X306860Y136960D01*
X309400D01*
X311940Y134420D01*
Y147420D02*
X314480Y149960D01*
X317020D01*
X314480Y152500D01*
X317020Y155040D01*
X314480D01*
X311940Y157580D01*
X309400Y155040D01*
X306860D01*
X309400Y152500D01*
X306860Y149960D01*
X309400D01*
X311940Y147420D01*
X303940Y511540D02*
X306480Y514080D01*
X309020D01*
X306480Y516620D01*
X309020Y519160D01*
X306480D01*
X303940Y521700D01*
X301400Y519160D01*
X298860D01*
X301400Y516620D01*
X298860Y514080D01*
X301400D01*
X303940Y511540D01*
X311940Y485540D02*
X314480Y488080D01*
X317020D01*
X314480Y490620D01*
X317020Y493160D01*
X314480D01*
X311940Y495700D01*
X309400Y493160D01*
X306860D01*
X309400Y490620D01*
X306860Y488080D01*
X309400D01*
X311940Y485540D01*
X303940Y459540D02*
X306480Y462080D01*
X309020D01*
X306480Y464620D01*
X309020Y467160D01*
X306480D01*
X303940Y469700D01*
X301400Y467160D01*
X298860D01*
X301400Y464620D01*
X298860Y462080D01*
X301400D01*
X303940Y459540D01*
Y472540D02*
X306480Y475080D01*
X309020D01*
X306480Y477620D01*
X309020Y480160D01*
X306480D01*
X303940Y482700D01*
X301400Y480160D01*
X298860D01*
X301400Y477620D01*
X298860Y475080D01*
X301400D01*
X303940Y472540D01*
Y485540D02*
X306480Y488080D01*
X309020D01*
X306480Y490620D01*
X309020Y493160D01*
X306480D01*
X303940Y495700D01*
X301400Y493160D01*
X298860D01*
X301400Y490620D01*
X298860Y488080D01*
X301400D01*
X303940Y485540D01*
Y498540D02*
X306480Y501080D01*
X309020D01*
X306480Y503620D01*
X309020Y506160D01*
X306480D01*
X303940Y508700D01*
X301400Y506160D01*
X298860D01*
X301400Y503620D01*
X298860Y501080D01*
X301400D01*
X303940Y498540D01*
X319940Y459540D02*
X322480Y462080D01*
X325020D01*
X322480Y464620D01*
X325020Y467160D01*
X322480D01*
X319940Y469700D01*
X317400Y467160D01*
X314860D01*
X317400Y464620D01*
X314860Y462080D01*
X317400D01*
X319940Y459540D01*
Y472540D02*
X322480Y475080D01*
X325020D01*
X322480Y477620D01*
X325020Y480160D01*
X322480D01*
X319940Y482700D01*
X317400Y480160D01*
X314860D01*
X317400Y477620D01*
X314860Y475080D01*
X317400D01*
X319940Y472540D01*
Y485540D02*
X322480Y488080D01*
X325020D01*
X322480Y490620D01*
X325020Y493160D01*
X322480D01*
X319940Y495700D01*
X317400Y493160D01*
X314860D01*
X317400Y490620D01*
X314860Y488080D01*
X317400D01*
X319940Y485540D01*
Y498540D02*
X322480Y501080D01*
X325020D01*
X322480Y503620D01*
X325020Y506160D01*
X322480D01*
X319940Y508700D01*
X317400Y506160D01*
X314860D01*
X317400Y503620D01*
X314860Y501080D01*
X317400D01*
X319940Y498540D01*
Y511540D02*
X322480Y514080D01*
X325020D01*
X322480Y516620D01*
X325020Y519160D01*
X322480D01*
X319940Y521700D01*
X317400Y519160D01*
X314860D01*
X317400Y516620D01*
X314860Y514080D01*
X317400D01*
X319940Y511540D01*
X311940D02*
X314480Y514080D01*
X317020D01*
X314480Y516620D01*
X317020Y519160D01*
X314480D01*
X311940Y521700D01*
X309400Y519160D01*
X306860D01*
X309400Y516620D01*
X306860Y514080D01*
X309400D01*
X311940Y511540D01*
Y498540D02*
X314480Y501080D01*
X317020D01*
X314480Y503620D01*
X317020Y506160D01*
X314480D01*
X311940Y508700D01*
X309400Y506160D01*
X306860D01*
X309400Y503620D01*
X306860Y501080D01*
X309400D01*
X311940Y498540D01*
Y459540D02*
X314480Y462080D01*
X317020D01*
X314480Y464620D01*
X317020Y467160D01*
X314480D01*
X311940Y469700D01*
X309400Y467160D01*
X306860D01*
X309400Y464620D01*
X306860Y462080D01*
X309400D01*
X311940Y459540D01*
Y472540D02*
X314480Y475080D01*
X317020D01*
X314480Y477620D01*
X317020Y480160D01*
X314480D01*
X311940Y482700D01*
X309400Y480160D01*
X306860D01*
X309400Y477620D01*
X306860Y475080D01*
X309400D01*
X311940Y472540D01*
X261140Y414790D02*
X263680Y417330D01*
X266220D01*
X263680Y419870D01*
X266220Y422410D01*
X263680D01*
X261140Y424950D01*
X258600Y422410D01*
X256060D01*
X258600Y419870D01*
X256060Y417330D01*
X258600D01*
X261140Y414790D01*
X256060Y488790D02*
X258600Y491330D01*
X261140D01*
X258600Y493870D01*
X261140Y496410D01*
X258600D01*
X256060Y498950D01*
X253520Y496410D01*
X250980D01*
X253520Y493870D01*
X250980Y491330D01*
X253520D01*
X256060Y488790D01*
X398300Y463950D02*
X400840Y466490D01*
X403380D01*
X400840Y469030D01*
X403380Y471570D01*
X400840D01*
X398300Y474110D01*
X395760Y471570D01*
X393220D01*
X395760Y469030D01*
X393220Y466490D01*
X395760D01*
X398300Y463950D01*
X392801Y454425D02*
X395341Y456965D01*
X397881D01*
X395341Y459505D01*
X397881Y462045D01*
X395341D01*
X392801Y464585D01*
X390261Y462045D01*
X387721D01*
X390261Y459505D01*
X387721Y456965D01*
X390261D01*
X392801Y454425D01*
X403799D02*
X406339Y456965D01*
X408879D01*
X406339Y459505D01*
X408879Y462045D01*
X406339D01*
X403799Y464585D01*
X401259Y462045D01*
X398719D01*
X401259Y459505D01*
X398719Y456965D01*
X401259D01*
X403799Y454425D01*
X387449Y470215D02*
X389989Y472755D01*
X392529D01*
X389989Y475295D01*
X392529Y477835D01*
X389989D01*
X387449Y480375D01*
X384909Y477835D01*
X382369D01*
X384909Y475295D01*
X382369Y472755D01*
X384909D01*
X387449Y470215D01*
X464820Y439420D02*
X467360Y441960D01*
X469900D01*
X467360Y444500D01*
X469900Y447040D01*
X467360D01*
X464820Y449580D01*
X462280Y447040D01*
X459740D01*
X462280Y444500D01*
X459740Y441960D01*
X462280D01*
X464820Y439420D01*
X457200D02*
X459740Y441960D01*
X462280D01*
X459740Y444500D01*
X462280Y447040D01*
X459740D01*
X457200Y449580D01*
X454660Y447040D01*
X452120D01*
X454660Y444500D01*
X452120Y441960D01*
X454660D01*
X457200Y439420D01*
X449580D02*
X452120Y441960D01*
X454660D01*
X452120Y444500D01*
X454660Y447040D01*
X452120D01*
X449580Y449580D01*
X447040Y447040D01*
X444500D01*
X447040Y444500D01*
X444500Y441960D01*
X447040D01*
X449580Y439420D01*
X441960D02*
X444500Y441960D01*
X447040D01*
X444500Y444500D01*
X447040Y447040D01*
X444500D01*
X441960Y449580D01*
X439420Y447040D01*
X436880D01*
X439420Y444500D01*
X436880Y441960D01*
X439420D01*
X441960Y439420D01*
X464820Y449580D02*
X467360Y452120D01*
X469900D01*
X467360Y454660D01*
X469900Y457200D01*
X467360D01*
X464820Y459740D01*
X462280Y457200D01*
X459740D01*
X462280Y454660D01*
X459740Y452120D01*
X462280D01*
X464820Y449580D01*
X457200D02*
X459740Y452120D01*
X462280D01*
X459740Y454660D01*
X462280Y457200D01*
X459740D01*
X457200Y459740D01*
X454660Y457200D01*
X452120D01*
X454660Y454660D01*
X452120Y452120D01*
X454660D01*
X457200Y449580D01*
X449580D02*
X452120Y452120D01*
X454660D01*
X452120Y454660D01*
X454660Y457200D01*
X452120D01*
X449580Y459740D01*
X447040Y457200D01*
X444500D01*
X447040Y454660D01*
X444500Y452120D01*
X447040D01*
X449580Y449580D01*
X441960D02*
X444500Y452120D01*
X447040D01*
X444500Y454660D01*
X447040Y457200D01*
X444500D01*
X441960Y459740D01*
X439420Y457200D01*
X436880D01*
X439420Y454660D01*
X436880Y452120D01*
X439420D01*
X441960Y449580D01*
X464820Y459740D02*
X467360Y462280D01*
X469900D01*
X467360Y464820D01*
X469900Y467360D01*
X467360D01*
X464820Y469900D01*
X462280Y467360D01*
X459740D01*
X462280Y464820D01*
X459740Y462280D01*
X462280D01*
X464820Y459740D01*
X457200D02*
X459740Y462280D01*
X462280D01*
X459740Y464820D01*
X462280Y467360D01*
X459740D01*
X457200Y469900D01*
X454660Y467360D01*
X452120D01*
X454660Y464820D01*
X452120Y462280D01*
X454660D01*
X457200Y459740D01*
X449580D02*
X452120Y462280D01*
X454660D01*
X452120Y464820D01*
X454660Y467360D01*
X452120D01*
X449580Y469900D01*
X447040Y467360D01*
X444500D01*
X447040Y464820D01*
X444500Y462280D01*
X447040D01*
X449580Y459740D01*
X441960D02*
X444500Y462280D01*
X447040D01*
X444500Y464820D01*
X447040Y467360D01*
X444500D01*
X441960Y469900D01*
X439420Y467360D01*
X436880D01*
X439420Y464820D01*
X436880Y462280D01*
X439420D01*
X441960Y459740D01*
X464820Y469900D02*
X467360Y472440D01*
X469900D01*
X467360Y474980D01*
X469900Y477520D01*
X467360D01*
X464820Y480060D01*
X462280Y477520D01*
X459740D01*
X462280Y474980D01*
X459740Y472440D01*
X462280D01*
X464820Y469900D01*
X457200D02*
X459740Y472440D01*
X462280D01*
X459740Y474980D01*
X462280Y477520D01*
X459740D01*
X457200Y480060D01*
X454660Y477520D01*
X452120D01*
X454660Y474980D01*
X452120Y472440D01*
X454660D01*
X457200Y469900D01*
X449580D02*
X452120Y472440D01*
X454660D01*
X452120Y474980D01*
X454660Y477520D01*
X452120D01*
X449580Y480060D01*
X447040Y477520D01*
X444500D01*
X447040Y474980D01*
X444500Y472440D01*
X447040D01*
X449580Y469900D01*
X441960D02*
X444500Y472440D01*
X447040D01*
X444500Y474980D01*
X447040Y477520D01*
X444500D01*
X441960Y480060D01*
X439420Y477520D01*
X436880D01*
X439420Y474980D01*
X436880Y472440D01*
X439420D01*
X441960Y469900D01*
Y480060D02*
X444500Y482600D01*
X447040D01*
X444500Y485140D01*
X447040Y487680D01*
X444500D01*
X441960Y490220D01*
X439420Y487680D01*
X436880D01*
X439420Y485140D01*
X436880Y482600D01*
X439420D01*
X441960Y480060D01*
X449580D02*
X452120Y482600D01*
X454660D01*
X452120Y485140D01*
X454660Y487680D01*
X452120D01*
X449580Y490220D01*
X447040Y487680D01*
X444500D01*
X447040Y485140D01*
X444500Y482600D01*
X447040D01*
X449580Y480060D01*
X457200D02*
X459740Y482600D01*
X462280D01*
X459740Y485140D01*
X462280Y487680D01*
X459740D01*
X457200Y490220D01*
X454660Y487680D01*
X452120D01*
X454660Y485140D01*
X452120Y482600D01*
X454660D01*
X457200Y480060D01*
X464820D02*
X467360Y482600D01*
X469900D01*
X467360Y485140D01*
X469900Y487680D01*
X467360D01*
X464820Y490220D01*
X462280Y487680D01*
X459740D01*
X462280Y485140D01*
X459740Y482600D01*
X462280D01*
X464820Y480060D01*
X403799Y516655D02*
X406339Y519195D01*
X408879D01*
X406339Y521735D01*
X408879Y524275D01*
X406339D01*
X403799Y526815D01*
X401259Y524275D01*
X398719D01*
X401259Y521735D01*
X398719Y519195D01*
X401259D01*
X403799Y516655D01*
X398300Y507130D02*
X400840Y509670D01*
X403380D01*
X400840Y512210D01*
X403380Y514750D01*
X400840D01*
X398300Y517290D01*
X395760Y514750D01*
X393220D01*
X395760Y512210D01*
X393220Y509670D01*
X395760D01*
X398300Y507130D01*
X392801Y516655D02*
X395341Y519195D01*
X397881D01*
X395341Y521735D01*
X397881Y524275D01*
X395341D01*
X392801Y526815D01*
X390261Y524275D01*
X387721D01*
X390261Y521735D01*
X387721Y519195D01*
X390261D01*
X392801Y516655D01*
X387302Y500780D02*
X389842Y503320D01*
X392382D01*
X389842Y505860D01*
X392382Y508400D01*
X389842D01*
X387302Y510940D01*
X384762Y508400D01*
X382222D01*
X384762Y505860D01*
X382222Y503320D01*
X384762D01*
X387302Y500780D01*
X464820Y530860D02*
X467360Y533400D01*
X469900D01*
X467360Y535940D01*
X469900Y538480D01*
X467360D01*
X464820Y541020D01*
X462280Y538480D01*
X459740D01*
X462280Y535940D01*
X459740Y533400D01*
X462280D01*
X464820Y530860D01*
X457200D02*
X459740Y533400D01*
X462280D01*
X459740Y535940D01*
X462280Y538480D01*
X459740D01*
X457200Y541020D01*
X454660Y538480D01*
X452120D01*
X454660Y535940D01*
X452120Y533400D01*
X454660D01*
X457200Y530860D01*
X449580D02*
X452120Y533400D01*
X454660D01*
X452120Y535940D01*
X454660Y538480D01*
X452120D01*
X449580Y541020D01*
X447040Y538480D01*
X444500D01*
X447040Y535940D01*
X444500Y533400D01*
X447040D01*
X449580Y530860D01*
X441960D02*
X444500Y533400D01*
X447040D01*
X444500Y535940D01*
X447040Y538480D01*
X444500D01*
X441960Y541020D01*
X439420Y538480D01*
X436880D01*
X439420Y535940D01*
X436880Y533400D01*
X439420D01*
X441960Y530860D01*
Y520700D02*
X444500Y523240D01*
X447040D01*
X444500Y525780D01*
X447040Y528320D01*
X444500D01*
X441960Y530860D01*
X439420Y528320D01*
X436880D01*
X439420Y525780D01*
X436880Y523240D01*
X439420D01*
X441960Y520700D01*
X449580D02*
X452120Y523240D01*
X454660D01*
X452120Y525780D01*
X454660Y528320D01*
X452120D01*
X449580Y530860D01*
X447040Y528320D01*
X444500D01*
X447040Y525780D01*
X444500Y523240D01*
X447040D01*
X449580Y520700D01*
X457200D02*
X459740Y523240D01*
X462280D01*
X459740Y525780D01*
X462280Y528320D01*
X459740D01*
X457200Y530860D01*
X454660Y528320D01*
X452120D01*
X454660Y525780D01*
X452120Y523240D01*
X454660D01*
X457200Y520700D01*
X464820D02*
X467360Y523240D01*
X469900D01*
X467360Y525780D01*
X469900Y528320D01*
X467360D01*
X464820Y530860D01*
X462280Y528320D01*
X459740D01*
X462280Y525780D01*
X459740Y523240D01*
X462280D01*
X464820Y520700D01*
X441960Y510540D02*
X444500Y513080D01*
X447040D01*
X444500Y515620D01*
X447040Y518160D01*
X444500D01*
X441960Y520700D01*
X439420Y518160D01*
X436880D01*
X439420Y515620D01*
X436880Y513080D01*
X439420D01*
X441960Y510540D01*
X449580D02*
X452120Y513080D01*
X454660D01*
X452120Y515620D01*
X454660Y518160D01*
X452120D01*
X449580Y520700D01*
X447040Y518160D01*
X444500D01*
X447040Y515620D01*
X444500Y513080D01*
X447040D01*
X449580Y510540D01*
X457200D02*
X459740Y513080D01*
X462280D01*
X459740Y515620D01*
X462280Y518160D01*
X459740D01*
X457200Y520700D01*
X454660Y518160D01*
X452120D01*
X454660Y515620D01*
X452120Y513080D01*
X454660D01*
X457200Y510540D01*
X464820D02*
X467360Y513080D01*
X469900D01*
X467360Y515620D01*
X469900Y518160D01*
X467360D01*
X464820Y520700D01*
X462280Y518160D01*
X459740D01*
X462280Y515620D01*
X459740Y513080D01*
X462280D01*
X464820Y510540D01*
X441960Y500380D02*
X444500Y502920D01*
X447040D01*
X444500Y505460D01*
X447040Y508000D01*
X444500D01*
X441960Y510540D01*
X439420Y508000D01*
X436880D01*
X439420Y505460D01*
X436880Y502920D01*
X439420D01*
X441960Y500380D01*
X449580D02*
X452120Y502920D01*
X454660D01*
X452120Y505460D01*
X454660Y508000D01*
X452120D01*
X449580Y510540D01*
X447040Y508000D01*
X444500D01*
X447040Y505460D01*
X444500Y502920D01*
X447040D01*
X449580Y500380D01*
X457200D02*
X459740Y502920D01*
X462280D01*
X459740Y505460D01*
X462280Y508000D01*
X459740D01*
X457200Y510540D01*
X454660Y508000D01*
X452120D01*
X454660Y505460D01*
X452120Y502920D01*
X454660D01*
X457200Y500380D01*
X464820D02*
X467360Y502920D01*
X469900D01*
X467360Y505460D01*
X469900Y508000D01*
X467360D01*
X464820Y510540D01*
X462280Y508000D01*
X459740D01*
X462280Y505460D01*
X459740Y502920D01*
X462280D01*
X464820Y500380D01*
X441960Y490220D02*
X444500Y492760D01*
X447040D01*
X444500Y495300D01*
X447040Y497840D01*
X444500D01*
X441960Y500380D01*
X439420Y497840D01*
X436880D01*
X439420Y495300D01*
X436880Y492760D01*
X439420D01*
X441960Y490220D01*
X449580D02*
X452120Y492760D01*
X454660D01*
X452120Y495300D01*
X454660Y497840D01*
X452120D01*
X449580Y500380D01*
X447040Y497840D01*
X444500D01*
X447040Y495300D01*
X444500Y492760D01*
X447040D01*
X449580Y490220D01*
X457200D02*
X459740Y492760D01*
X462280D01*
X459740Y495300D01*
X462280Y497840D01*
X459740D01*
X457200Y500380D01*
X454660Y497840D01*
X452120D01*
X454660Y495300D01*
X452120Y492760D01*
X454660D01*
X457200Y490220D01*
X464820D02*
X467360Y492760D01*
X469900D01*
X467360Y495300D01*
X469900Y497840D01*
X467360D01*
X464820Y500380D01*
X462280Y497840D01*
X459740D01*
X462280Y495300D01*
X459740Y492760D01*
X462280D01*
X464820Y490220D01*
X355600Y444500D02*
X358140Y447040D01*
X360680D01*
X358140Y449580D01*
X360680Y452120D01*
X358140D01*
X355600Y454660D01*
X353060Y452120D01*
X350520D01*
X353060Y449580D01*
X350520Y447040D01*
X353060D01*
X355600Y444500D01*
Y525780D02*
X358140Y528320D01*
X360680D01*
X358140Y530860D01*
X360680Y533400D01*
X358140D01*
X355600Y535940D01*
X353060Y533400D01*
X350520D01*
X353060Y530860D01*
X350520Y528320D01*
X353060D01*
X355600Y525780D01*
Y533400D02*
X358140Y535940D01*
X360680D01*
X358140Y538480D01*
X360680Y541020D01*
X358140D01*
X355600Y543560D01*
X353060Y541020D01*
X350520D01*
X353060Y538480D01*
X350520Y535940D01*
X353060D01*
X355600Y533400D01*
Y436880D02*
X358140Y439420D01*
X360680D01*
X358140Y441960D01*
X360680Y444500D01*
X358140D01*
X355600Y447040D01*
X353060Y444500D01*
X350520D01*
X353060Y441960D01*
X350520Y439420D01*
X353060D01*
X355600Y436880D01*
X353000Y469290D02*
X355540Y471830D01*
X358080D01*
X355540Y474370D01*
X358080Y476910D01*
X355540D01*
X353000Y479450D01*
X350460Y476910D01*
X347920D01*
X350460Y474370D01*
X347920Y471830D01*
X350460D01*
X353000Y469290D01*
Y501790D02*
X355540Y504330D01*
X358080D01*
X355540Y506870D01*
X358080Y509410D01*
X355540D01*
X353000Y511950D01*
X350460Y509410D01*
X347920D01*
X350460Y506870D01*
X347920Y504330D01*
X350460D01*
X353000Y501790D01*
X271240Y482290D02*
X273780Y484830D01*
X276320D01*
X273780Y487370D01*
X276320Y489910D01*
X273780D01*
X271240Y492450D01*
X268700Y489910D01*
X266160D01*
X268700Y487370D01*
X266160Y484830D01*
X268700D01*
X271240Y482290D01*
X266700Y510540D02*
X269240Y513080D01*
X271780D01*
X269240Y515620D01*
X271780Y518160D01*
X269240D01*
X266700Y520700D01*
X264160Y518160D01*
X261620D01*
X264160Y515620D01*
X261620Y513080D01*
X264160D01*
X266700Y510540D01*
Y520700D02*
X269240Y523240D01*
X271780D01*
X269240Y525780D01*
X271780Y528320D01*
X269240D01*
X266700Y530860D01*
X264160Y528320D01*
X261620D01*
X264160Y525780D01*
X261620Y523240D01*
X264160D01*
X266700Y520700D01*
Y185420D02*
X269240Y187960D01*
X271780D01*
X269240Y190500D01*
X271780Y193040D01*
X269240D01*
X266700Y195580D01*
X264160Y193040D01*
X261620D01*
X264160Y190500D01*
X261620Y187960D01*
X264160D01*
X266700Y185420D01*
Y195580D02*
X269240Y198120D01*
X271780D01*
X269240Y200660D01*
X271780Y203200D01*
X269240D01*
X266700Y205740D01*
X264160Y203200D01*
X261620D01*
X264160Y200660D01*
X261620Y198120D01*
X264160D01*
X266700Y195580D01*
X487680Y337820D02*
X490220Y340360D01*
X492760D01*
X490220Y342900D01*
X492760Y345440D01*
X490220D01*
X487680Y347980D01*
X485140Y345440D01*
X482600D01*
X485140Y342900D01*
X482600Y340360D01*
X485140D01*
X487680Y337820D01*
X454660D02*
X457200Y340360D01*
X459740D01*
X457200Y342900D01*
X459740Y345440D01*
X457200D01*
X454660Y347980D01*
X452120Y345440D01*
X449580D01*
X452120Y342900D01*
X449580Y340360D01*
X452120D01*
X454660Y337820D01*
Y304800D02*
X457200Y307340D01*
X459740D01*
X457200Y309880D01*
X459740Y312420D01*
X457200D01*
X454660Y314960D01*
X452120Y312420D01*
X449580D01*
X452120Y309880D01*
X449580Y307340D01*
X452120D01*
X454660Y304800D01*
X487680D02*
X490220Y307340D01*
X492760D01*
X490220Y309880D01*
X492760Y312420D01*
X490220D01*
X487680Y314960D01*
X485140Y312420D01*
X482600D01*
X485140Y309880D01*
X482600Y307340D01*
X485140D01*
X487680Y304800D01*
X353000Y144170D02*
X355540Y146710D01*
X358080D01*
X355540Y149250D01*
X358080Y151790D01*
X355540D01*
X353000Y154330D01*
X350460Y151790D01*
X347920D01*
X350460Y149250D01*
X347920Y146710D01*
X350460D01*
X353000Y144170D01*
Y176670D02*
X355540Y179210D01*
X358080D01*
X355540Y181750D01*
X358080Y184290D01*
X355540D01*
X353000Y186830D01*
X350460Y184290D01*
X347920D01*
X350460Y181750D01*
X347920Y179210D01*
X350460D01*
X353000Y176670D01*
X489740Y50150D02*
X492280Y52690D01*
X494820D01*
X492280Y55230D01*
X494820Y57770D01*
X492280D01*
X489740Y60310D01*
X487200Y57770D01*
X484660D01*
X487200Y55230D01*
X484660Y52690D01*
X487200D01*
X489740Y50150D01*
X516410Y48150D02*
X518950Y50690D01*
X521490D01*
X518950Y53230D01*
X521490Y55770D01*
X518950D01*
X516410Y58310D01*
X513870Y55770D01*
X511330D01*
X513870Y53230D01*
X511330Y50690D01*
X513870D01*
X516410Y48150D01*
X229390Y192370D02*
X231930Y194910D01*
X234470D01*
X231930Y197450D01*
X234470Y199990D01*
X231930D01*
X229390Y202530D01*
X226850Y199990D01*
X224310D01*
X226850Y197450D01*
X224310Y194910D01*
X226850D01*
X229390Y192370D01*
X210340Y179370D02*
X212880Y181910D01*
X215420D01*
X212880Y184450D01*
X215420Y186990D01*
X212880D01*
X210340Y189530D01*
X207800Y186990D01*
X205260D01*
X207800Y184450D01*
X205260Y181910D01*
X207800D01*
X210340Y179370D01*
X271643Y157170D02*
X274183Y159710D01*
X276723D01*
X274183Y162250D01*
X276723Y164790D01*
X274183D01*
X271643Y167330D01*
X269103Y164790D01*
X266563D01*
X269103Y162250D01*
X266563Y159710D01*
X269103D01*
X271643Y157170D01*
X107470Y168750D02*
X110010Y171290D01*
X112550D01*
X110010Y173830D01*
X112550Y176370D01*
X110010D01*
X107470Y178910D01*
X104930Y176370D01*
X102390D01*
X104930Y173830D01*
X102390Y171290D01*
X104930D01*
X107470Y168750D01*
X149270Y77720D02*
X151810Y80260D01*
X154350D01*
X151810Y82800D01*
X154350Y85340D01*
X151810D01*
X149270Y87880D01*
X146730Y85340D01*
X144190D01*
X146730Y82800D01*
X144190Y80260D01*
X146730D01*
X149270Y77720D01*
Y26920D02*
X151810Y29460D01*
X154350D01*
X151810Y32000D01*
X154350Y34540D01*
X151810D01*
X149270Y37080D01*
X146730Y34540D01*
X144190D01*
X146730Y32000D01*
X144190Y29460D01*
X146730D01*
X149270Y26920D01*
X516410Y597080D02*
X518950Y599620D01*
X521490D01*
X518950Y602160D01*
X521490Y604700D01*
X518950D01*
X516410Y607240D01*
X513870Y604700D01*
X511330D01*
X513870Y602160D01*
X511330Y599620D01*
X513870D01*
X516410Y597080D01*
X489740Y599080D02*
X492280Y601620D01*
X494820D01*
X492280Y604160D01*
X494820Y606700D01*
X492280D01*
X489740Y609240D01*
X487200Y606700D01*
X484660D01*
X487200Y604160D01*
X484660Y601620D01*
X487200D01*
X489740Y599080D01*
X229390Y517670D02*
X231930Y520210D01*
X234470D01*
X231930Y522750D01*
X234470Y525290D01*
X231930D01*
X229390Y527830D01*
X226850Y525290D01*
X224310D01*
X226850Y522750D01*
X224310Y520210D01*
X226850D01*
X229390Y517670D01*
X210340Y504490D02*
X212880Y507030D01*
X215420D01*
X212880Y509570D01*
X215420Y512110D01*
X212880D01*
X210340Y514650D01*
X207800Y512110D01*
X205260D01*
X207800Y509570D01*
X205260Y507030D01*
X207800D01*
X210340Y504490D01*
X161970Y580790D02*
X164510Y583330D01*
X167050D01*
X164510Y585870D01*
X167050Y588410D01*
X164510D01*
X161970Y590950D01*
X159430Y588410D01*
X156890D01*
X159430Y585870D01*
X156890Y583330D01*
X159430D01*
X161970Y580790D01*
X160430Y467640D02*
X162970Y470180D01*
X165510D01*
X162970Y472720D01*
X165510Y475260D01*
X162970D01*
X160430Y477800D01*
X157890Y475260D01*
X155350D01*
X157890Y472720D01*
X155350Y470180D01*
X157890D01*
X160430Y467640D01*
X149270Y618890D02*
X151810Y621430D01*
X154350D01*
X151810Y623970D01*
X154350Y626510D01*
X151810D01*
X149270Y629050D01*
X146730Y626510D01*
X144190D01*
X146730Y623970D01*
X144190Y621430D01*
X146730D01*
X149270Y618890D01*
X132870Y493870D02*
X135410Y496410D01*
X137950D01*
X135410Y498950D01*
X137950Y501490D01*
X135410D01*
X132870Y504030D01*
X130330Y501490D01*
X127790D01*
X130330Y498950D01*
X127790Y496410D01*
X130330D01*
X132870Y493870D01*
X107470D02*
X110010Y496410D01*
X112550D01*
X110010Y498950D01*
X112550Y501490D01*
X110010D01*
X107470Y504030D01*
X104930Y501490D01*
X102390D01*
X104930Y498950D01*
X102390Y496410D01*
X104930D01*
X107470Y493870D01*
X132870Y168750D02*
X135410Y171290D01*
X137950D01*
X135410Y173830D01*
X137950Y176370D01*
X135410D01*
X132870Y178910D01*
X130330Y176370D01*
X127790D01*
X130330Y173830D01*
X127790Y171290D01*
X130330D01*
X132870Y168750D01*
X160430Y142270D02*
X162970Y144810D01*
X165510D01*
X162970Y147350D01*
X165510Y149890D01*
X162970D01*
X160430Y152430D01*
X157890Y149890D01*
X155350D01*
X157890Y147350D01*
X155350Y144810D01*
X157890D01*
X160430Y142270D01*
X355600Y119380D02*
X358140Y121920D01*
X360680D01*
X358140Y124460D01*
X360680Y127000D01*
X358140D01*
X355600Y129540D01*
X353060Y127000D01*
X350520D01*
X353060Y124460D01*
X350520Y121920D01*
X353060D01*
X355600Y119380D01*
X353060Y111760D02*
X355600Y114300D01*
X358140D01*
X355600Y116840D01*
X358140Y119380D01*
X355600D01*
X353060Y121920D01*
X350520Y119380D01*
X347980D01*
X350520Y116840D01*
X347980Y114300D01*
X350520D01*
X353060Y111760D01*
Y198120D02*
X355600Y200660D01*
X358140D01*
X355600Y203200D01*
X358140Y205740D01*
X355600D01*
X353060Y208280D01*
X350520Y205740D01*
X347980D01*
X350520Y203200D01*
X347980Y200660D01*
X350520D01*
X353060Y198120D01*
X355600Y205740D02*
X358140Y208280D01*
X360680D01*
X358140Y210820D01*
X360680Y213360D01*
X358140D01*
X355600Y215900D01*
X353060Y213360D01*
X350520D01*
X353060Y210820D01*
X350520Y208280D01*
X353060D01*
X355600Y205740D01*
X464820Y154940D02*
X467360Y157480D01*
X469900D01*
X467360Y160020D01*
X469900Y162560D01*
X467360D01*
X464820Y165100D01*
X462280Y162560D01*
X459740D01*
X462280Y160020D01*
X459740Y157480D01*
X462280D01*
X464820Y154940D01*
X457200D02*
X459740Y157480D01*
X462280D01*
X459740Y160020D01*
X462280Y162560D01*
X459740D01*
X457200Y165100D01*
X454660Y162560D01*
X452120D01*
X454660Y160020D01*
X452120Y157480D01*
X454660D01*
X457200Y154940D01*
X449580D02*
X452120Y157480D01*
X454660D01*
X452120Y160020D01*
X454660Y162560D01*
X452120D01*
X449580Y165100D01*
X447040Y162560D01*
X444500D01*
X447040Y160020D01*
X444500Y157480D01*
X447040D01*
X449580Y154940D01*
X441960D02*
X444500Y157480D01*
X447040D01*
X444500Y160020D01*
X447040Y162560D01*
X444500D01*
X441960Y165100D01*
X439420Y162560D01*
X436880D01*
X439420Y160020D01*
X436880Y157480D01*
X439420D01*
X441960Y154940D01*
Y144780D02*
X444500Y147320D01*
X447040D01*
X444500Y149860D01*
X447040Y152400D01*
X444500D01*
X441960Y154940D01*
X439420Y152400D01*
X436880D01*
X439420Y149860D01*
X436880Y147320D01*
X439420D01*
X441960Y144780D01*
X449580D02*
X452120Y147320D01*
X454660D01*
X452120Y149860D01*
X454660Y152400D01*
X452120D01*
X449580Y154940D01*
X447040Y152400D01*
X444500D01*
X447040Y149860D01*
X444500Y147320D01*
X447040D01*
X449580Y144780D01*
X457200D02*
X459740Y147320D01*
X462280D01*
X459740Y149860D01*
X462280Y152400D01*
X459740D01*
X457200Y154940D01*
X454660Y152400D01*
X452120D01*
X454660Y149860D01*
X452120Y147320D01*
X454660D01*
X457200Y144780D01*
X464820D02*
X467360Y147320D01*
X469900D01*
X467360Y149860D01*
X469900Y152400D01*
X467360D01*
X464820Y154940D01*
X462280Y152400D01*
X459740D01*
X462280Y149860D01*
X459740Y147320D01*
X462280D01*
X464820Y144780D01*
X441960Y134620D02*
X444500Y137160D01*
X447040D01*
X444500Y139700D01*
X447040Y142240D01*
X444500D01*
X441960Y144780D01*
X439420Y142240D01*
X436880D01*
X439420Y139700D01*
X436880Y137160D01*
X439420D01*
X441960Y134620D01*
X449580D02*
X452120Y137160D01*
X454660D01*
X452120Y139700D01*
X454660Y142240D01*
X452120D01*
X449580Y144780D01*
X447040Y142240D01*
X444500D01*
X447040Y139700D01*
X444500Y137160D01*
X447040D01*
X449580Y134620D01*
X457200D02*
X459740Y137160D01*
X462280D01*
X459740Y139700D01*
X462280Y142240D01*
X459740D01*
X457200Y144780D01*
X454660Y142240D01*
X452120D01*
X454660Y139700D01*
X452120Y137160D01*
X454660D01*
X457200Y134620D01*
X464820D02*
X467360Y137160D01*
X469900D01*
X467360Y139700D01*
X469900Y142240D01*
X467360D01*
X464820Y144780D01*
X462280Y142240D01*
X459740D01*
X462280Y139700D01*
X459740Y137160D01*
X462280D01*
X464820Y134620D01*
X441960Y124460D02*
X444500Y127000D01*
X447040D01*
X444500Y129540D01*
X447040Y132080D01*
X444500D01*
X441960Y134620D01*
X439420Y132080D01*
X436880D01*
X439420Y129540D01*
X436880Y127000D01*
X439420D01*
X441960Y124460D01*
X449580D02*
X452120Y127000D01*
X454660D01*
X452120Y129540D01*
X454660Y132080D01*
X452120D01*
X449580Y134620D01*
X447040Y132080D01*
X444500D01*
X447040Y129540D01*
X444500Y127000D01*
X447040D01*
X449580Y124460D01*
X457200D02*
X459740Y127000D01*
X462280D01*
X459740Y129540D01*
X462280Y132080D01*
X459740D01*
X457200Y134620D01*
X454660Y132080D01*
X452120D01*
X454660Y129540D01*
X452120Y127000D01*
X454660D01*
X457200Y124460D01*
X464820D02*
X467360Y127000D01*
X469900D01*
X467360Y129540D01*
X469900Y132080D01*
X467360D01*
X464820Y134620D01*
X462280Y132080D01*
X459740D01*
X462280Y129540D01*
X459740Y127000D01*
X462280D01*
X464820Y124460D01*
X441960Y114300D02*
X444500Y116840D01*
X447040D01*
X444500Y119380D01*
X447040Y121920D01*
X444500D01*
X441960Y124460D01*
X439420Y121920D01*
X436880D01*
X439420Y119380D01*
X436880Y116840D01*
X439420D01*
X441960Y114300D01*
X449580D02*
X452120Y116840D01*
X454660D01*
X452120Y119380D01*
X454660Y121920D01*
X452120D01*
X449580Y124460D01*
X447040Y121920D01*
X444500D01*
X447040Y119380D01*
X444500Y116840D01*
X447040D01*
X449580Y114300D01*
X457200D02*
X459740Y116840D01*
X462280D01*
X459740Y119380D01*
X462280Y121920D01*
X459740D01*
X457200Y124460D01*
X454660Y121920D01*
X452120D01*
X454660Y119380D01*
X452120Y116840D01*
X454660D01*
X457200Y114300D01*
X464820D02*
X467360Y116840D01*
X469900D01*
X467360Y119380D01*
X469900Y121920D01*
X467360D01*
X464820Y124460D01*
X462280Y121920D01*
X459740D01*
X462280Y119380D01*
X459740Y116840D01*
X462280D01*
X464820Y114300D01*
Y205740D02*
X467360Y208280D01*
X469900D01*
X467360Y210820D01*
X469900Y213360D01*
X467360D01*
X464820Y215900D01*
X462280Y213360D01*
X459740D01*
X462280Y210820D01*
X459740Y208280D01*
X462280D01*
X464820Y205740D01*
X457200D02*
X459740Y208280D01*
X462280D01*
X459740Y210820D01*
X462280Y213360D01*
X459740D01*
X457200Y215900D01*
X454660Y213360D01*
X452120D01*
X454660Y210820D01*
X452120Y208280D01*
X454660D01*
X457200Y205740D01*
X449580D02*
X452120Y208280D01*
X454660D01*
X452120Y210820D01*
X454660Y213360D01*
X452120D01*
X449580Y215900D01*
X447040Y213360D01*
X444500D01*
X447040Y210820D01*
X444500Y208280D01*
X447040D01*
X449580Y205740D01*
X441960D02*
X444500Y208280D01*
X447040D01*
X444500Y210820D01*
X447040Y213360D01*
X444500D01*
X441960Y215900D01*
X439420Y213360D01*
X436880D01*
X439420Y210820D01*
X436880Y208280D01*
X439420D01*
X441960Y205740D01*
Y195580D02*
X444500Y198120D01*
X447040D01*
X444500Y200660D01*
X447040Y203200D01*
X444500D01*
X441960Y205740D01*
X439420Y203200D01*
X436880D01*
X439420Y200660D01*
X436880Y198120D01*
X439420D01*
X441960Y195580D01*
X449580D02*
X452120Y198120D01*
X454660D01*
X452120Y200660D01*
X454660Y203200D01*
X452120D01*
X449580Y205740D01*
X447040Y203200D01*
X444500D01*
X447040Y200660D01*
X444500Y198120D01*
X447040D01*
X449580Y195580D01*
X457200D02*
X459740Y198120D01*
X462280D01*
X459740Y200660D01*
X462280Y203200D01*
X459740D01*
X457200Y205740D01*
X454660Y203200D01*
X452120D01*
X454660Y200660D01*
X452120Y198120D01*
X454660D01*
X457200Y195580D01*
X464820D02*
X467360Y198120D01*
X469900D01*
X467360Y200660D01*
X469900Y203200D01*
X467360D01*
X464820Y205740D01*
X462280Y203200D01*
X459740D01*
X462280Y200660D01*
X459740Y198120D01*
X462280D01*
X464820Y195580D01*
X441960Y185420D02*
X444500Y187960D01*
X447040D01*
X444500Y190500D01*
X447040Y193040D01*
X444500D01*
X441960Y195580D01*
X439420Y193040D01*
X436880D01*
X439420Y190500D01*
X436880Y187960D01*
X439420D01*
X441960Y185420D01*
X449580D02*
X452120Y187960D01*
X454660D01*
X452120Y190500D01*
X454660Y193040D01*
X452120D01*
X449580Y195580D01*
X447040Y193040D01*
X444500D01*
X447040Y190500D01*
X444500Y187960D01*
X447040D01*
X449580Y185420D01*
X457200D02*
X459740Y187960D01*
X462280D01*
X459740Y190500D01*
X462280Y193040D01*
X459740D01*
X457200Y195580D01*
X454660Y193040D01*
X452120D01*
X454660Y190500D01*
X452120Y187960D01*
X454660D01*
X457200Y185420D01*
X464820D02*
X467360Y187960D01*
X469900D01*
X467360Y190500D01*
X469900Y193040D01*
X467360D01*
X464820Y195580D01*
X462280Y193040D01*
X459740D01*
X462280Y190500D01*
X459740Y187960D01*
X462280D01*
X464820Y185420D01*
X441960Y175260D02*
X444500Y177800D01*
X447040D01*
X444500Y180340D01*
X447040Y182880D01*
X444500D01*
X441960Y185420D01*
X439420Y182880D01*
X436880D01*
X439420Y180340D01*
X436880Y177800D01*
X439420D01*
X441960Y175260D01*
X449580D02*
X452120Y177800D01*
X454660D01*
X452120Y180340D01*
X454660Y182880D01*
X452120D01*
X449580Y185420D01*
X447040Y182880D01*
X444500D01*
X447040Y180340D01*
X444500Y177800D01*
X447040D01*
X449580Y175260D01*
X457200D02*
X459740Y177800D01*
X462280D01*
X459740Y180340D01*
X462280Y182880D01*
X459740D01*
X457200Y185420D01*
X454660Y182880D01*
X452120D01*
X454660Y180340D01*
X452120Y177800D01*
X454660D01*
X457200Y175260D01*
X464820D02*
X467360Y177800D01*
X469900D01*
X467360Y180340D01*
X469900Y182880D01*
X467360D01*
X464820Y185420D01*
X462280Y182880D01*
X459740D01*
X462280Y180340D01*
X459740Y177800D01*
X462280D01*
X464820Y175260D01*
X441960Y165100D02*
X444500Y167640D01*
X447040D01*
X444500Y170180D01*
X447040Y172720D01*
X444500D01*
X441960Y175260D01*
X439420Y172720D01*
X436880D01*
X439420Y170180D01*
X436880Y167640D01*
X439420D01*
X441960Y165100D01*
X449580D02*
X452120Y167640D01*
X454660D01*
X452120Y170180D01*
X454660Y172720D01*
X452120D01*
X449580Y175260D01*
X447040Y172720D01*
X444500D01*
X447040Y170180D01*
X444500Y167640D01*
X447040D01*
X449580Y165100D01*
X457200D02*
X459740Y167640D01*
X462280D01*
X459740Y170180D01*
X462280Y172720D01*
X459740D01*
X457200Y175260D01*
X454660Y172720D01*
X452120D01*
X454660Y170180D01*
X452120Y167640D01*
X454660D01*
X457200Y165100D01*
X464820D02*
X467360Y167640D01*
X469900D01*
X467360Y170180D01*
X469900Y172720D01*
X467360D01*
X464820Y175260D01*
X462280Y172720D01*
X459740D01*
X462280Y170180D01*
X459740Y167640D01*
X462280D01*
X464820Y165100D01*
X392801Y191535D02*
X395341Y194075D01*
X397881D01*
X395341Y196615D01*
X397881Y199155D01*
X395341D01*
X392801Y201695D01*
X390261Y199155D01*
X387721D01*
X390261Y196615D01*
X387721Y194075D01*
X390261D01*
X392801Y191535D01*
X403799D02*
X406339Y194075D01*
X408879D01*
X406339Y196615D01*
X408879Y199155D01*
X406339D01*
X403799Y201695D01*
X401259Y199155D01*
X398719D01*
X401259Y196615D01*
X398719Y194075D01*
X401259D01*
X403799Y191535D01*
X398300Y182010D02*
X400840Y184550D01*
X403380D01*
X400840Y187090D01*
X403380Y189630D01*
X400840D01*
X398300Y192170D01*
X395760Y189630D01*
X393220D01*
X395760Y187090D01*
X393220Y184550D01*
X395760D01*
X398300Y182010D01*
X387302Y175660D02*
X389842Y178200D01*
X392382D01*
X389842Y180740D01*
X392382Y183280D01*
X389842D01*
X387302Y185820D01*
X384762Y183280D01*
X382222D01*
X384762Y180740D01*
X382222Y178200D01*
X384762D01*
X387302Y175660D01*
X398300Y138830D02*
X400840Y141370D01*
X403380D01*
X400840Y143910D01*
X403380Y146450D01*
X400840D01*
X398300Y148990D01*
X395760Y146450D01*
X393220D01*
X395760Y143910D01*
X393220Y141370D01*
X395760D01*
X398300Y138830D01*
X403799Y129305D02*
X406339Y131845D01*
X408879D01*
X406339Y134385D01*
X408879Y136925D01*
X406339D01*
X403799Y139465D01*
X401259Y136925D01*
X398719D01*
X401259Y134385D01*
X398719Y131845D01*
X401259D01*
X403799Y129305D01*
X392801D02*
X395341Y131845D01*
X397881D01*
X395341Y134385D01*
X397881Y136925D01*
X395341D01*
X392801Y139465D01*
X390261Y136925D01*
X387721D01*
X390261Y134385D01*
X387721Y131845D01*
X390261D01*
X392801Y129305D01*
X387449Y145095D02*
X389989Y147635D01*
X392529D01*
X389989Y150175D01*
X392529Y152715D01*
X389989D01*
X387449Y155255D01*
X384909Y152715D01*
X382369D01*
X384909Y150175D01*
X382369Y147635D01*
X384909D01*
X387449Y145095D01*
X256060Y163670D02*
X258600Y166210D01*
X261140D01*
X258600Y168750D01*
X261140Y171290D01*
X258600D01*
X256060Y173830D01*
X253520Y171290D01*
X250980D01*
X253520Y168750D01*
X250980Y166210D01*
X253520D01*
X256060Y163670D01*
D52*
X426240Y632860D02*
G03*
X426240Y632860I-5080J0D01*
G01*
X395760Y406400D02*
G03*
X395760Y406400I-5080J0D01*
G01*
Y297180D02*
G03*
X395760Y297180I-5080J0D01*
G01*
Y355600D02*
G03*
X395760Y355600I-5080J0D01*
G01*
X426240Y75330D02*
G03*
X426240Y75330I-5080J0D01*
G01*
X749300Y373780D02*
G03*
X749300Y373780I-5080J0D01*
G01*
Y607460D02*
G03*
X749300Y607460I-5080J0D01*
G01*
X754380Y48660D02*
G03*
X754380Y48660I-5080J0D01*
G01*
X749300Y282340D02*
G03*
X749300Y282340I-5080J0D01*
G01*
X426240Y582060D02*
G03*
X426240Y582060I-5080J0D01*
G01*
X395760Y246380D02*
G03*
X395760Y246380I-5080J0D01*
G01*
X749300Y231540D02*
G03*
X749300Y231540I-5080J0D01*
G01*
X754380Y99460D02*
G03*
X754380Y99460I-5080J0D01*
G01*
X749300Y424580D02*
G03*
X749300Y424580I-5080J0D01*
G01*
Y556660D02*
G03*
X749300Y556660I-5080J0D01*
G01*
X426240Y24530D02*
G03*
X426240Y24530I-5080J0D01*
G01*
M02*
