G04*
G04 #@! TF.GenerationSoftware,Altium Limited,Altium Designer,26.6.0 (10)*
G04*
G04 Layer_Color=32768*
G04 Board_Origin=25968898|13934251*
%FSLAX44Y44*%
%MOMM*%
G71*
G04*
G04 #@! TF.SameCoordinates,28262C2E-F151-4320-BF17-60C4C4611D1B*
G04*
G04*
G04 #@! TF.FilePolarity,Positive*
G04*
G01*
G75*
%ADD51C,0.0500*%
D51*
X291540Y540570D02*
Y570770D01*
X276340Y540570D02*
X291540D01*
X276340D02*
Y570770D01*
X291540D01*
X253540Y455570D02*
X268740D01*
X253540Y425370D02*
Y455570D01*
Y425370D02*
X268740D01*
Y455570D01*
X444660Y305680D02*
X464660D01*
X444660Y270680D02*
Y305680D01*
Y270680D02*
X464660D01*
Y305680D01*
X444660Y347100D02*
X464660D01*
Y382100D01*
X444660D02*
X464660D01*
X444660Y347100D02*
Y382100D01*
X239280Y543370D02*
Y653770D01*
X187280Y543370D02*
X239280D01*
X187280D02*
Y653770D01*
X239280D01*
X125270Y504450D02*
Y534650D01*
X140470D01*
Y504450D02*
Y534650D01*
X125270Y504450D02*
X140470D01*
X153470Y563170D02*
Y583170D01*
Y563170D02*
X188470D01*
Y583170D01*
X153470D02*
X188470D01*
X153470Y633970D02*
X188470D01*
Y613970D02*
Y633970D01*
X153470Y613970D02*
X188470D01*
X153470D02*
Y633970D01*
X506410Y606360D02*
X526410D01*
Y641360D01*
X506410D02*
X526410D01*
X506410Y606360D02*
Y641360D01*
X99870Y504450D02*
Y534650D01*
X115070D01*
Y504450D02*
Y534650D01*
X99870Y504450D02*
X115070D01*
X499740Y16030D02*
Y51030D01*
X479740Y16030D02*
X499740D01*
X479740D02*
Y51030D01*
X499740D01*
X187320Y2200D02*
X239320D01*
Y112600D01*
X187320D02*
X239320D01*
X187320Y2200D02*
Y112600D01*
X153470Y72800D02*
Y92800D01*
Y72800D02*
X188470D01*
Y92800D01*
X153470D02*
X188470D01*
X153470Y22000D02*
Y42000D01*
Y22000D02*
X188470D01*
Y42000D01*
X153470D02*
X188470D01*
X276340Y245650D02*
X291540D01*
X276340Y215450D02*
Y245650D01*
Y215450D02*
X291540D01*
Y245650D01*
X253540Y130450D02*
X268740D01*
X253540Y100250D02*
Y130450D01*
Y100250D02*
X268740D01*
Y130450D01*
X99870Y179330D02*
X115070D01*
Y209530D01*
X99870D02*
X115070D01*
X99870Y179330D02*
Y209530D01*
X125270Y179330D02*
X140470D01*
Y209530D01*
X125270D02*
X140470D01*
X125270Y179330D02*
Y209530D01*
M02*
