G04*
G04 #@! TF.GenerationSoftware,Altium Limited,Altium Designer,26.6.0 (10)*
G04*
G04 Layer_Color=128*
G04 Board_Origin=25968898|13934251*
%FSLAX44Y44*%
%MOMM*%
G71*
G04*
G04 #@! TF.SameCoordinates,28262C2E-F151-4320-BF17-60C4C4611D1B*
G04*
G04*
G04 #@! TF.FilePolarity,Positive*
G04*
G01*
G75*
%ADD12C,0.1270*%
D12*
X102620Y563010D02*
X112320D01*
X107470Y558160D02*
Y567860D01*
X128020Y563010D02*
X137720D01*
X132870Y558160D02*
Y567860D01*
X201600Y573170D02*
X214000D01*
X207800Y566970D02*
Y579370D01*
X102620Y639210D02*
X112320D01*
X107470Y634360D02*
Y644060D01*
X128020Y639210D02*
X137720D01*
X132870Y634360D02*
Y644060D01*
X417350Y632860D02*
X424970D01*
X421160Y629050D02*
Y636670D01*
X386870Y406400D02*
X394490D01*
X390680Y402590D02*
Y410210D01*
X279940Y624120D02*
X293940D01*
X286940Y617120D02*
Y631120D01*
X201600Y623970D02*
X214000D01*
X207800Y617770D02*
Y630170D01*
X386870Y297180D02*
X394490D01*
X390680Y293370D02*
Y300990D01*
X386870Y355600D02*
X394490D01*
X390680Y351790D02*
Y359410D01*
X417350Y75330D02*
X424970D01*
X421160Y71520D02*
Y79140D01*
X279940Y32000D02*
X293940D01*
X286940Y25000D02*
Y39000D01*
X212600Y57400D02*
X225000D01*
X218800Y51200D02*
Y63600D01*
X23000Y328060D02*
X37000D01*
X30000Y321060D02*
Y335060D01*
X740410Y373780D02*
X748030D01*
X744220Y369970D02*
Y377590D01*
X740410Y607460D02*
X748030D01*
X744220Y603650D02*
Y611270D01*
X745490Y48660D02*
X753110D01*
X749300Y44850D02*
Y52470D01*
X740410Y282340D02*
X748030D01*
X744220Y278530D02*
Y286150D01*
X417350Y582060D02*
X424970D01*
X421160Y578250D02*
Y585870D01*
X201600Y598570D02*
X214000D01*
X207800Y592370D02*
Y604770D01*
X329940Y624120D02*
X343940D01*
X336940Y617120D02*
Y631120D01*
X386870Y246380D02*
X394490D01*
X390680Y242570D02*
Y250190D01*
X740410Y231540D02*
X748030D01*
X744220Y227730D02*
Y235350D01*
X849500Y190500D02*
X863500D01*
X856500Y183500D02*
Y197500D01*
X849500Y140500D02*
X863500D01*
X856500Y133500D02*
Y147500D01*
X745490Y99460D02*
X753110D01*
X749300Y95650D02*
Y103270D01*
X23000Y378060D02*
X37000D01*
X30000Y371060D02*
Y385060D01*
X740410Y424580D02*
X748030D01*
X744220Y420770D02*
Y428390D01*
X849500Y465620D02*
X863500D01*
X856500Y458620D02*
Y472620D01*
X740410Y556660D02*
X748030D01*
X744220Y552850D02*
Y560470D01*
X849500Y515620D02*
X863500D01*
X856500Y508620D02*
Y522620D01*
X417350Y24530D02*
X424970D01*
X421160Y20720D02*
Y28340D01*
X329940Y32000D02*
X343940D01*
X336940Y25000D02*
Y39000D01*
X128020Y314090D02*
X137720D01*
X132870Y309240D02*
Y318940D01*
X128020Y237890D02*
X137720D01*
X132870Y233040D02*
Y242740D01*
X102620Y314090D02*
X112320D01*
X107470Y309240D02*
Y318940D01*
X102620Y237890D02*
X112320D01*
X107470Y233040D02*
Y242740D01*
X23000Y278060D02*
X37000D01*
X30000Y271060D02*
Y285060D01*
X212600Y82800D02*
X225000D01*
X218800Y76600D02*
Y89000D01*
X212600Y32000D02*
X225000D01*
X218800Y25800D02*
Y38200D01*
X302440Y191500D02*
X305440D01*
X303940Y190000D02*
Y193000D01*
X310440Y165500D02*
X313440D01*
X311940Y164000D02*
Y167000D01*
X302440Y139500D02*
X305440D01*
X303940Y138000D02*
Y141000D01*
X302440Y152500D02*
X305440D01*
X303940Y151000D02*
Y154000D01*
X302440Y165500D02*
X305440D01*
X303940Y164000D02*
Y167000D01*
X302440Y178500D02*
X305440D01*
X303940Y177000D02*
Y180000D01*
X318440Y139500D02*
X321440D01*
X319940Y138000D02*
Y141000D01*
X318440Y152500D02*
X321440D01*
X319940Y151000D02*
Y154000D01*
X318440Y165500D02*
X321440D01*
X319940Y164000D02*
Y167000D01*
X318440Y178500D02*
X321440D01*
X319940Y177000D02*
Y180000D01*
X318440Y191500D02*
X321440D01*
X319940Y190000D02*
Y193000D01*
X310440Y191500D02*
X313440D01*
X311940Y190000D02*
Y193000D01*
X310440Y178500D02*
X313440D01*
X311940Y177000D02*
Y180000D01*
X310440Y139500D02*
X313440D01*
X311940Y138000D02*
Y141000D01*
X310440Y152500D02*
X313440D01*
X311940Y151000D02*
Y154000D01*
X302440Y516620D02*
X305440D01*
X303940Y515120D02*
Y518120D01*
X310440Y490620D02*
X313440D01*
X311940Y489120D02*
Y492120D01*
X302440Y464620D02*
X305440D01*
X303940Y463120D02*
Y466120D01*
X302440Y477620D02*
X305440D01*
X303940Y476120D02*
Y479120D01*
X302440Y490620D02*
X305440D01*
X303940Y489120D02*
Y492120D01*
X302440Y503620D02*
X305440D01*
X303940Y502120D02*
Y505120D01*
X318440Y464620D02*
X321440D01*
X319940Y463120D02*
Y466120D01*
X318440Y477620D02*
X321440D01*
X319940Y476120D02*
Y479120D01*
X318440Y490620D02*
X321440D01*
X319940Y489120D02*
Y492120D01*
X318440Y503620D02*
X321440D01*
X319940Y502120D02*
Y505120D01*
X318440Y516620D02*
X321440D01*
X319940Y515120D02*
Y518120D01*
X310440Y516620D02*
X313440D01*
X311940Y515120D02*
Y518120D01*
X310440Y503620D02*
X313440D01*
X311940Y502120D02*
Y505120D01*
X310440Y464620D02*
X313440D01*
X311940Y463120D02*
Y466120D01*
X310440Y477620D02*
X313440D01*
X311940Y476120D02*
Y479120D01*
X259640Y419870D02*
X262640D01*
X261140Y418370D02*
Y421370D01*
X254560Y493870D02*
X257560D01*
X256060Y492370D02*
Y495370D01*
X396800Y469030D02*
X399800D01*
X398300Y467530D02*
Y470530D01*
X391301Y459505D02*
X394301D01*
X392801Y458005D02*
Y461005D01*
X402299Y459505D02*
X405299D01*
X403799Y458005D02*
Y461005D01*
X385949Y475295D02*
X388949D01*
X387449Y473795D02*
Y476795D01*
X463320Y444500D02*
X466320D01*
X464820Y443000D02*
Y446000D01*
X455700Y444500D02*
X458700D01*
X457200Y443000D02*
Y446000D01*
X448080Y444500D02*
X451080D01*
X449580Y443000D02*
Y446000D01*
X440460Y444500D02*
X443460D01*
X441960Y443000D02*
Y446000D01*
X463320Y454660D02*
X466320D01*
X464820Y453160D02*
Y456160D01*
X455700Y454660D02*
X458700D01*
X457200Y453160D02*
Y456160D01*
X448080Y454660D02*
X451080D01*
X449580Y453160D02*
Y456160D01*
X440460Y454660D02*
X443460D01*
X441960Y453160D02*
Y456160D01*
X463320Y464820D02*
X466320D01*
X464820Y463320D02*
Y466320D01*
X455700Y464820D02*
X458700D01*
X457200Y463320D02*
Y466320D01*
X448080Y464820D02*
X451080D01*
X449580Y463320D02*
Y466320D01*
X440460Y464820D02*
X443460D01*
X441960Y463320D02*
Y466320D01*
X463320Y474980D02*
X466320D01*
X464820Y473480D02*
Y476480D01*
X455700Y474980D02*
X458700D01*
X457200Y473480D02*
Y476480D01*
X448080Y474980D02*
X451080D01*
X449580Y473480D02*
Y476480D01*
X440460Y474980D02*
X443460D01*
X441960Y473480D02*
Y476480D01*
X440460Y485140D02*
X443460D01*
X441960Y483640D02*
Y486640D01*
X448080Y485140D02*
X451080D01*
X449580Y483640D02*
Y486640D01*
X455700Y485140D02*
X458700D01*
X457200Y483640D02*
Y486640D01*
X463320Y485140D02*
X466320D01*
X464820Y483640D02*
Y486640D01*
X402299Y521735D02*
X405299D01*
X403799Y520235D02*
Y523235D01*
X396800Y512210D02*
X399800D01*
X398300Y510710D02*
Y513710D01*
X391301Y521735D02*
X394301D01*
X392801Y520235D02*
Y523235D01*
X385802Y505860D02*
X388802D01*
X387302Y504360D02*
Y507360D01*
X463320Y535940D02*
X466320D01*
X464820Y534440D02*
Y537440D01*
X455700Y535940D02*
X458700D01*
X457200Y534440D02*
Y537440D01*
X448080Y535940D02*
X451080D01*
X449580Y534440D02*
Y537440D01*
X440460Y535940D02*
X443460D01*
X441960Y534440D02*
Y537440D01*
X440460Y525780D02*
X443460D01*
X441960Y524280D02*
Y527280D01*
X448080Y525780D02*
X451080D01*
X449580Y524280D02*
Y527280D01*
X455700Y525780D02*
X458700D01*
X457200Y524280D02*
Y527280D01*
X463320Y525780D02*
X466320D01*
X464820Y524280D02*
Y527280D01*
X440460Y515620D02*
X443460D01*
X441960Y514120D02*
Y517120D01*
X448080Y515620D02*
X451080D01*
X449580Y514120D02*
Y517120D01*
X455700Y515620D02*
X458700D01*
X457200Y514120D02*
Y517120D01*
X463320Y515620D02*
X466320D01*
X464820Y514120D02*
Y517120D01*
X440460Y505460D02*
X443460D01*
X441960Y503960D02*
Y506960D01*
X448080Y505460D02*
X451080D01*
X449580Y503960D02*
Y506960D01*
X455700Y505460D02*
X458700D01*
X457200Y503960D02*
Y506960D01*
X463320Y505460D02*
X466320D01*
X464820Y503960D02*
Y506960D01*
X440460Y495300D02*
X443460D01*
X441960Y493800D02*
Y496800D01*
X448080Y495300D02*
X451080D01*
X449580Y493800D02*
Y496800D01*
X455700Y495300D02*
X458700D01*
X457200Y493800D02*
Y496800D01*
X463320Y495300D02*
X466320D01*
X464820Y493800D02*
Y496800D01*
X354100Y449580D02*
X357100D01*
X355600Y448080D02*
Y451080D01*
X354100Y530860D02*
X357100D01*
X355600Y529360D02*
Y532360D01*
X354100Y538480D02*
X357100D01*
X355600Y536980D02*
Y539980D01*
X354100Y441960D02*
X357100D01*
X355600Y440460D02*
Y443460D01*
X351500Y474370D02*
X354500D01*
X353000Y472870D02*
Y475870D01*
X351500Y506870D02*
X354500D01*
X353000Y505370D02*
Y508370D01*
X269740Y487370D02*
X272740D01*
X271240Y485870D02*
Y488870D01*
X265200Y515620D02*
X268200D01*
X266700Y514120D02*
Y517120D01*
X265200Y525780D02*
X268200D01*
X266700Y524280D02*
Y527280D01*
X265200Y190500D02*
X268200D01*
X266700Y189000D02*
Y192000D01*
X265200Y200660D02*
X268200D01*
X266700Y199160D02*
Y202160D01*
X486180Y342900D02*
X489180D01*
X487680Y341400D02*
Y344400D01*
X453160Y342900D02*
X456160D01*
X454660Y341400D02*
Y344400D01*
X453160Y309880D02*
X456160D01*
X454660Y308380D02*
Y311380D01*
X486180Y309880D02*
X489180D01*
X487680Y308380D02*
Y311380D01*
X351500Y149250D02*
X354500D01*
X353000Y147750D02*
Y150750D01*
X351500Y181750D02*
X354500D01*
X353000Y180250D02*
Y183250D01*
X488240Y55230D02*
X491240D01*
X489740Y53730D02*
Y56730D01*
X514910Y53230D02*
X517910D01*
X516410Y51730D02*
Y54730D01*
X227890Y197450D02*
X230890D01*
X229390Y195950D02*
Y198950D01*
X208840Y184450D02*
X211840D01*
X210340Y182950D02*
Y185950D01*
X270143Y162250D02*
X273143D01*
X271643Y160750D02*
Y163750D01*
X105970Y173830D02*
X108970D01*
X107470Y172330D02*
Y175330D01*
X147770Y82800D02*
X150770D01*
X149270Y81300D02*
Y84300D01*
X147770Y32000D02*
X150770D01*
X149270Y30500D02*
Y33500D01*
X514910Y602160D02*
X517910D01*
X516410Y600660D02*
Y603660D01*
X488240Y604160D02*
X491240D01*
X489740Y602660D02*
Y605660D01*
X227890Y522750D02*
X230890D01*
X229390Y521250D02*
Y524250D01*
X208840Y509570D02*
X211840D01*
X210340Y508070D02*
Y511070D01*
X160470Y585870D02*
X163470D01*
X161970Y584370D02*
Y587370D01*
X158930Y472720D02*
X161930D01*
X160430Y471220D02*
Y474220D01*
X147770Y623970D02*
X150770D01*
X149270Y622470D02*
Y625470D01*
X131370Y498950D02*
X134370D01*
X132870Y497450D02*
Y500450D01*
X105970Y498950D02*
X108970D01*
X107470Y497450D02*
Y500450D01*
X131370Y173830D02*
X134370D01*
X132870Y172330D02*
Y175330D01*
X158930Y147350D02*
X161930D01*
X160430Y145850D02*
Y148850D01*
X354100Y124460D02*
X357100D01*
X355600Y122960D02*
Y125960D01*
X351560Y116840D02*
X354560D01*
X353060Y115340D02*
Y118340D01*
X351560Y203200D02*
X354560D01*
X353060Y201700D02*
Y204700D01*
X354100Y210820D02*
X357100D01*
X355600Y209320D02*
Y212320D01*
X463320Y160020D02*
X466320D01*
X464820Y158520D02*
Y161520D01*
X455700Y160020D02*
X458700D01*
X457200Y158520D02*
Y161520D01*
X448080Y160020D02*
X451080D01*
X449580Y158520D02*
Y161520D01*
X440460Y160020D02*
X443460D01*
X441960Y158520D02*
Y161520D01*
X440460Y149860D02*
X443460D01*
X441960Y148360D02*
Y151360D01*
X448080Y149860D02*
X451080D01*
X449580Y148360D02*
Y151360D01*
X455700Y149860D02*
X458700D01*
X457200Y148360D02*
Y151360D01*
X463320Y149860D02*
X466320D01*
X464820Y148360D02*
Y151360D01*
X440460Y139700D02*
X443460D01*
X441960Y138200D02*
Y141200D01*
X448080Y139700D02*
X451080D01*
X449580Y138200D02*
Y141200D01*
X455700Y139700D02*
X458700D01*
X457200Y138200D02*
Y141200D01*
X463320Y139700D02*
X466320D01*
X464820Y138200D02*
Y141200D01*
X440460Y129540D02*
X443460D01*
X441960Y128040D02*
Y131040D01*
X448080Y129540D02*
X451080D01*
X449580Y128040D02*
Y131040D01*
X455700Y129540D02*
X458700D01*
X457200Y128040D02*
Y131040D01*
X463320Y129540D02*
X466320D01*
X464820Y128040D02*
Y131040D01*
X440460Y119380D02*
X443460D01*
X441960Y117880D02*
Y120880D01*
X448080Y119380D02*
X451080D01*
X449580Y117880D02*
Y120880D01*
X455700Y119380D02*
X458700D01*
X457200Y117880D02*
Y120880D01*
X463320Y119380D02*
X466320D01*
X464820Y117880D02*
Y120880D01*
X463320Y210820D02*
X466320D01*
X464820Y209320D02*
Y212320D01*
X455700Y210820D02*
X458700D01*
X457200Y209320D02*
Y212320D01*
X448080Y210820D02*
X451080D01*
X449580Y209320D02*
Y212320D01*
X440460Y210820D02*
X443460D01*
X441960Y209320D02*
Y212320D01*
X440460Y200660D02*
X443460D01*
X441960Y199160D02*
Y202160D01*
X448080Y200660D02*
X451080D01*
X449580Y199160D02*
Y202160D01*
X455700Y200660D02*
X458700D01*
X457200Y199160D02*
Y202160D01*
X463320Y200660D02*
X466320D01*
X464820Y199160D02*
Y202160D01*
X440460Y190500D02*
X443460D01*
X441960Y189000D02*
Y192000D01*
X448080Y190500D02*
X451080D01*
X449580Y189000D02*
Y192000D01*
X455700Y190500D02*
X458700D01*
X457200Y189000D02*
Y192000D01*
X463320Y190500D02*
X466320D01*
X464820Y189000D02*
Y192000D01*
X440460Y180340D02*
X443460D01*
X441960Y178840D02*
Y181840D01*
X448080Y180340D02*
X451080D01*
X449580Y178840D02*
Y181840D01*
X455700Y180340D02*
X458700D01*
X457200Y178840D02*
Y181840D01*
X463320Y180340D02*
X466320D01*
X464820Y178840D02*
Y181840D01*
X440460Y170180D02*
X443460D01*
X441960Y168680D02*
Y171680D01*
X448080Y170180D02*
X451080D01*
X449580Y168680D02*
Y171680D01*
X455700Y170180D02*
X458700D01*
X457200Y168680D02*
Y171680D01*
X463320Y170180D02*
X466320D01*
X464820Y168680D02*
Y171680D01*
X391301Y196615D02*
X394301D01*
X392801Y195115D02*
Y198115D01*
X402299Y196615D02*
X405299D01*
X403799Y195115D02*
Y198115D01*
X396800Y187090D02*
X399800D01*
X398300Y185590D02*
Y188590D01*
X385802Y180740D02*
X388802D01*
X387302Y179240D02*
Y182240D01*
X396800Y143910D02*
X399800D01*
X398300Y142410D02*
Y145410D01*
X402299Y134385D02*
X405299D01*
X403799Y132885D02*
Y135885D01*
X391301Y134385D02*
X394301D01*
X392801Y132885D02*
Y135885D01*
X385949Y150175D02*
X388949D01*
X387449Y148675D02*
Y151675D01*
X254560Y168750D02*
X257560D01*
X256060Y167250D02*
Y170250D01*
M02*
