G04*
G04 #@! TF.GenerationSoftware,Altium Limited,Altium Designer,26.5.0 (11)*
G04*
G04 Layer_Color=128*
G04 Board_Origin=25968898|13934251*
%FSLAX44Y44*%
%MOMM*%
G71*
G04*
G04 #@! TF.SameCoordinates,52F1D67A-09F0-48E2-AEE0-20A34439047D*
G04*
G04*
G04 #@! TF.FilePolarity,Positive*
G04*
G01*
G75*
%ADD13C,0.1270*%
D13*
X849500Y140500D02*
X863500D01*
X856500Y133500D02*
Y147500D01*
X849500Y190500D02*
X863500D01*
X856500Y183500D02*
Y197500D01*
X745490Y99460D02*
X753110D01*
X749300Y95650D02*
Y103270D01*
X740410Y231540D02*
X748030D01*
X744220Y227730D02*
Y235350D01*
X279940Y624120D02*
X293940D01*
X286940Y617120D02*
Y631120D01*
X329940Y624120D02*
X343940D01*
X336940Y617120D02*
Y631120D01*
X128020Y639210D02*
X137720D01*
X132870Y634360D02*
Y644060D01*
X102620Y639210D02*
X112320D01*
X107470Y634360D02*
Y644060D01*
X128020Y563010D02*
X137720D01*
X132870Y558160D02*
Y567860D01*
X102620Y563010D02*
X112320D01*
X107470Y558160D02*
Y567860D01*
X201600Y623970D02*
X214000D01*
X207800Y617770D02*
Y630170D01*
X201600Y573170D02*
X214000D01*
X207800Y566970D02*
Y579370D01*
X201600Y598570D02*
X214000D01*
X207800Y592370D02*
Y604770D01*
X417350Y632860D02*
X424970D01*
X421160Y629050D02*
Y636670D01*
X417350Y582060D02*
X424970D01*
X421160Y578250D02*
Y585870D01*
X23000Y378060D02*
X37000D01*
X30000Y371060D02*
Y385060D01*
X740410Y424580D02*
X748030D01*
X744220Y420770D02*
Y428390D01*
X849500Y465620D02*
X863500D01*
X856500Y458620D02*
Y472620D01*
X740410Y556660D02*
X748030D01*
X744220Y552850D02*
Y560470D01*
X849500Y515620D02*
X863500D01*
X856500Y508620D02*
Y522620D01*
X740410Y282340D02*
X748030D01*
X744220Y278530D02*
Y286150D01*
X745490Y48660D02*
X753110D01*
X749300Y44850D02*
Y52470D01*
X740410Y607460D02*
X748030D01*
X744220Y603650D02*
Y611270D01*
X740410Y373780D02*
X748030D01*
X744220Y369970D02*
Y377590D01*
X23000Y328060D02*
X37000D01*
X30000Y321060D02*
Y335060D01*
X212600Y57400D02*
X225000D01*
X218800Y51200D02*
Y63600D01*
X279940Y32000D02*
X293940D01*
X286940Y25000D02*
Y39000D01*
X417350Y75330D02*
X424970D01*
X421160Y71520D02*
Y79140D01*
X417350Y24530D02*
X424970D01*
X421160Y20720D02*
Y28340D01*
X329940Y32000D02*
X343940D01*
X336940Y25000D02*
Y39000D01*
X128020Y314090D02*
X137720D01*
X132870Y309240D02*
Y318940D01*
X128020Y237890D02*
X137720D01*
X132870Y233040D02*
Y242740D01*
X102620Y314090D02*
X112320D01*
X107470Y309240D02*
Y318940D01*
X102620Y237890D02*
X112320D01*
X107470Y233040D02*
Y242740D01*
X23000Y278060D02*
X37000D01*
X30000Y271060D02*
Y285060D01*
X212600Y82800D02*
X225000D01*
X218800Y76600D02*
Y89000D01*
X212600Y32000D02*
X225000D01*
X218800Y25800D02*
Y38200D01*
X159430Y147350D02*
X161430D01*
X160430Y146350D02*
Y148350D01*
X131870Y173830D02*
X133870D01*
X132870Y172830D02*
Y174830D01*
X463867Y160020D02*
X465773D01*
X464820Y159067D02*
Y160972D01*
X456247Y160020D02*
X458153D01*
X457200Y159067D02*
Y160972D01*
X448628Y160020D02*
X450532D01*
X449580Y159067D02*
Y160972D01*
X441007Y160020D02*
X442912D01*
X441960Y159067D02*
Y160972D01*
X441007Y149860D02*
X442912D01*
X441960Y148907D02*
Y150813D01*
X448628Y149860D02*
X450532D01*
X449580Y148907D02*
Y150813D01*
X456247Y149860D02*
X458153D01*
X457200Y148907D02*
Y150813D01*
X463867Y149860D02*
X465773D01*
X464820Y148907D02*
Y150813D01*
X441007Y139700D02*
X442912D01*
X441960Y138748D02*
Y140653D01*
X448628Y139700D02*
X450532D01*
X449580Y138748D02*
Y140653D01*
X456247Y139700D02*
X458153D01*
X457200Y138748D02*
Y140653D01*
X463867Y139700D02*
X465773D01*
X464820Y138748D02*
Y140653D01*
X441007Y129540D02*
X442912D01*
X441960Y128588D02*
Y130492D01*
X448628Y129540D02*
X450532D01*
X449580Y128588D02*
Y130492D01*
X456247Y129540D02*
X458153D01*
X457200Y128588D02*
Y130492D01*
X463867Y129540D02*
X465773D01*
X464820Y128588D02*
Y130492D01*
X441007Y119380D02*
X442912D01*
X441960Y118427D02*
Y120332D01*
X448628Y119380D02*
X450532D01*
X449580Y118427D02*
Y120332D01*
X456247Y119380D02*
X458153D01*
X457200Y118427D02*
Y120332D01*
X463867Y119380D02*
X465773D01*
X464820Y118427D02*
Y120332D01*
X463867Y210820D02*
X465773D01*
X464820Y209867D02*
Y211772D01*
X456247Y210820D02*
X458153D01*
X457200Y209867D02*
Y211772D01*
X448628Y210820D02*
X450532D01*
X449580Y209867D02*
Y211772D01*
X441007Y210820D02*
X442912D01*
X441960Y209867D02*
Y211772D01*
X441007Y200660D02*
X442912D01*
X441960Y199708D02*
Y201612D01*
X448628Y200660D02*
X450532D01*
X449580Y199708D02*
Y201612D01*
X456247Y200660D02*
X458153D01*
X457200Y199708D02*
Y201612D01*
X463867Y200660D02*
X465773D01*
X464820Y199708D02*
Y201612D01*
X441007Y190500D02*
X442912D01*
X441960Y189548D02*
Y191453D01*
X448628Y190500D02*
X450532D01*
X449580Y189548D02*
Y191453D01*
X456247Y190500D02*
X458153D01*
X457200Y189548D02*
Y191453D01*
X463867Y190500D02*
X465773D01*
X464820Y189548D02*
Y191453D01*
X441007Y180340D02*
X442912D01*
X441960Y179387D02*
Y181292D01*
X448628Y180340D02*
X450532D01*
X449580Y179387D02*
Y181292D01*
X456247Y180340D02*
X458153D01*
X457200Y179387D02*
Y181292D01*
X463867Y180340D02*
X465773D01*
X464820Y179387D02*
Y181292D01*
X441007Y170180D02*
X442912D01*
X441960Y169228D02*
Y171133D01*
X448628Y170180D02*
X450532D01*
X449580Y169228D02*
Y171133D01*
X456247Y170180D02*
X458153D01*
X457200Y169228D02*
Y171133D01*
X463867Y170180D02*
X465773D01*
X464820Y169228D02*
Y171133D01*
X463867Y485140D02*
X465773D01*
X464820Y484188D02*
Y486092D01*
X456247Y485140D02*
X458153D01*
X457200Y484188D02*
Y486092D01*
X448628Y485140D02*
X450532D01*
X449580Y484188D02*
Y486092D01*
X441007Y485140D02*
X442912D01*
X441960Y484188D02*
Y486092D01*
X441007Y474980D02*
X442912D01*
X441960Y474027D02*
Y475933D01*
X448628Y474980D02*
X450532D01*
X449580Y474027D02*
Y475933D01*
X456247Y474980D02*
X458153D01*
X457200Y474027D02*
Y475933D01*
X463867Y474980D02*
X465773D01*
X464820Y474027D02*
Y475933D01*
X441007Y464820D02*
X442912D01*
X441960Y463867D02*
Y465773D01*
X448628Y464820D02*
X450532D01*
X449580Y463867D02*
Y465773D01*
X456247Y464820D02*
X458153D01*
X457200Y463867D02*
Y465773D01*
X463867Y464820D02*
X465773D01*
X464820Y463867D02*
Y465773D01*
X441007Y454660D02*
X442912D01*
X441960Y453708D02*
Y455612D01*
X448628Y454660D02*
X450532D01*
X449580Y453708D02*
Y455612D01*
X456247Y454660D02*
X458153D01*
X457200Y453708D02*
Y455612D01*
X463867Y454660D02*
X465773D01*
X464820Y453708D02*
Y455612D01*
X441007Y444500D02*
X442912D01*
X441960Y443548D02*
Y445452D01*
X448628Y444500D02*
X450532D01*
X449580Y443548D02*
Y445452D01*
X456247Y444500D02*
X458153D01*
X457200Y443548D02*
Y445452D01*
X463867Y444500D02*
X465773D01*
X464820Y443548D02*
Y445452D01*
X463867Y495300D02*
X465773D01*
X464820Y494347D02*
Y496253D01*
X456247Y495300D02*
X458153D01*
X457200Y494347D02*
Y496253D01*
X448628Y495300D02*
X450532D01*
X449580Y494347D02*
Y496253D01*
X441007Y495300D02*
X442912D01*
X441960Y494347D02*
Y496253D01*
X463867Y505460D02*
X465773D01*
X464820Y504507D02*
Y506413D01*
X456247Y505460D02*
X458153D01*
X457200Y504507D02*
Y506413D01*
X448628Y505460D02*
X450532D01*
X449580Y504507D02*
Y506413D01*
X441007Y505460D02*
X442912D01*
X441960Y504507D02*
Y506413D01*
X463867Y515620D02*
X465773D01*
X464820Y514668D02*
Y516572D01*
X456247Y515620D02*
X458153D01*
X457200Y514668D02*
Y516572D01*
X448628Y515620D02*
X450532D01*
X449580Y514668D02*
Y516572D01*
X441007Y515620D02*
X442912D01*
X441960Y514668D02*
Y516572D01*
X463867Y525780D02*
X465773D01*
X464820Y524827D02*
Y526732D01*
X456247Y525780D02*
X458153D01*
X457200Y524827D02*
Y526732D01*
X448628Y525780D02*
X450532D01*
X449580Y524827D02*
Y526732D01*
X441007Y525780D02*
X442912D01*
X441960Y524827D02*
Y526732D01*
X441007Y535940D02*
X442912D01*
X441960Y534987D02*
Y536893D01*
X448628Y535940D02*
X450532D01*
X449580Y534987D02*
Y536893D01*
X456247Y535940D02*
X458153D01*
X457200Y534987D02*
Y536893D01*
X463867Y535940D02*
X465773D01*
X464820Y534987D02*
Y536893D01*
X391848Y196615D02*
X393753D01*
X392801Y195662D02*
Y197568D01*
X402847Y196615D02*
X404752D01*
X403799Y195662D02*
Y197568D01*
X397348Y187090D02*
X399253D01*
X398300Y186138D02*
Y188043D01*
X386349Y180740D02*
X388254D01*
X387302Y179788D02*
Y181693D01*
X311190Y477620D02*
X312690D01*
X311940Y476870D02*
Y478370D01*
X311190Y464620D02*
X312690D01*
X311940Y463870D02*
Y465370D01*
X311190Y503620D02*
X312690D01*
X311940Y502870D02*
Y504370D01*
X311190Y516620D02*
X312690D01*
X311940Y515870D02*
Y517370D01*
X319190Y516620D02*
X320690D01*
X319940Y515870D02*
Y517370D01*
X319190Y503620D02*
X320690D01*
X319940Y502870D02*
Y504370D01*
X319190Y490620D02*
X320690D01*
X319940Y489870D02*
Y491370D01*
X319190Y477620D02*
X320690D01*
X319940Y476870D02*
Y478370D01*
X319190Y464620D02*
X320690D01*
X319940Y463870D02*
Y465370D01*
X303190Y503620D02*
X304690D01*
X303940Y502870D02*
Y504370D01*
X303190Y490620D02*
X304690D01*
X303940Y489870D02*
Y491370D01*
X303190Y477620D02*
X304690D01*
X303940Y476870D02*
Y478370D01*
X303190Y464620D02*
X304690D01*
X303940Y463870D02*
Y465370D01*
X311190Y490620D02*
X312690D01*
X311940Y489870D02*
Y491370D01*
X303190Y516620D02*
X304690D01*
X303940Y515870D02*
Y517370D01*
X351640Y526370D02*
X353640D01*
X352640Y525370D02*
Y527370D01*
X351640Y532870D02*
X353640D01*
X352640Y531870D02*
Y533870D01*
X351500Y474370D02*
X354500D01*
X353000Y472870D02*
Y475870D01*
X351500Y506870D02*
X354500D01*
X353000Y505370D02*
Y508370D01*
X386349Y505860D02*
X388254D01*
X387302Y504908D02*
Y506813D01*
X391848Y521735D02*
X393753D01*
X392801Y520783D02*
Y522687D01*
X386496Y475295D02*
X388401D01*
X387449Y474342D02*
Y476247D01*
X106470Y498950D02*
X108470D01*
X107470Y497950D02*
Y499950D01*
X131870Y498950D02*
X133870D01*
X132870Y497950D02*
Y499950D01*
X148270Y623970D02*
X150270D01*
X149270Y622970D02*
Y624970D01*
X159430Y472720D02*
X161430D01*
X160430Y471720D02*
Y473720D01*
X160970Y585870D02*
X162970D01*
X161970Y584870D02*
Y586870D01*
X209340Y509570D02*
X211340D01*
X210340Y508570D02*
Y510570D01*
X228390Y522750D02*
X230390D01*
X229390Y521750D02*
Y523750D01*
X254790Y493870D02*
X257330D01*
X256060Y492600D02*
Y495140D01*
X270240Y487370D02*
X272240D01*
X271240Y486370D02*
Y488370D01*
X270240Y513370D02*
X272240D01*
X271240Y512370D02*
Y514370D01*
X270643Y519870D02*
X272643D01*
X271643Y518870D02*
Y520870D01*
X351640Y454870D02*
X353640D01*
X352640Y453870D02*
Y455870D01*
X402847Y459505D02*
X404752D01*
X403799Y458553D02*
Y460457D01*
X391848Y459505D02*
X393753D01*
X392801Y458553D02*
Y460457D01*
X397348Y512210D02*
X399253D01*
X398300Y511258D02*
Y513162D01*
X402847Y521735D02*
X404752D01*
X403799Y520783D02*
Y522687D01*
X488740Y604160D02*
X490740D01*
X489740Y603160D02*
Y605160D01*
X515410Y602160D02*
X517410D01*
X516410Y601160D02*
Y603160D01*
X397348Y469030D02*
X399253D01*
X398300Y468078D02*
Y469983D01*
X351640Y448370D02*
X353640D01*
X352640Y447370D02*
Y449370D01*
X260140Y419870D02*
X262140D01*
X261140Y418870D02*
Y420870D01*
X148270Y32000D02*
X150270D01*
X149270Y31000D02*
Y33000D01*
X148270Y82800D02*
X150270D01*
X149270Y81800D02*
Y83800D01*
X106470Y173830D02*
X108470D01*
X107470Y172830D02*
Y174830D01*
X270643Y162250D02*
X272643D01*
X271643Y161250D02*
Y163250D01*
X209340Y184450D02*
X211340D01*
X210340Y183450D02*
Y185450D01*
X228390Y197450D02*
X230390D01*
X229390Y196450D02*
Y198450D01*
X270643Y194750D02*
X272643D01*
X271643Y193750D02*
Y195750D01*
X270643Y188250D02*
X272643D01*
X271643Y187250D02*
Y189250D01*
X303190Y139500D02*
X304690D01*
X303940Y138750D02*
Y140250D01*
X311190Y152500D02*
X312690D01*
X311940Y151750D02*
Y153250D01*
X303190Y152500D02*
X304690D01*
X303940Y151750D02*
Y153250D01*
X311190Y165500D02*
X312690D01*
X311940Y164750D02*
Y166250D01*
X311190Y139500D02*
X312690D01*
X311940Y138750D02*
Y140250D01*
X319190Y139500D02*
X320690D01*
X319940Y138750D02*
Y140250D01*
X319190Y165500D02*
X320690D01*
X319940Y164750D02*
Y166250D01*
X319190Y152500D02*
X320690D01*
X319940Y151750D02*
Y153250D01*
X303190Y178500D02*
X304690D01*
X303940Y177750D02*
Y179250D01*
X303190Y165500D02*
X304690D01*
X303940Y164750D02*
Y166250D01*
X303190Y191500D02*
X304690D01*
X303940Y190750D02*
Y192250D01*
X311190Y178500D02*
X312690D01*
X311940Y177750D02*
Y179250D01*
X319190Y178500D02*
X320690D01*
X319940Y177750D02*
Y179250D01*
X311190Y191500D02*
X312690D01*
X311940Y190750D02*
Y192250D01*
X319190Y191500D02*
X320690D01*
X319940Y190750D02*
Y192250D01*
X515410Y53230D02*
X517410D01*
X516410Y52230D02*
Y54230D01*
X488740Y55230D02*
X490740D01*
X489740Y54230D02*
Y56230D01*
X324500Y181750D02*
X327500D01*
X326000Y180250D02*
Y183250D01*
X324500Y149250D02*
X327500D01*
X326000Y147750D02*
Y150750D01*
X351500Y181750D02*
X354500D01*
X353000Y180250D02*
Y183250D01*
X351500Y149250D02*
X354500D01*
X353000Y147750D02*
Y150750D01*
X397347Y143910D02*
X399253D01*
X398300Y142957D02*
Y144862D01*
X402847Y134385D02*
X404752D01*
X403799Y133433D02*
Y135337D01*
X391848Y134385D02*
X393753D01*
X392801Y133433D02*
Y135337D01*
X386496Y150175D02*
X388401D01*
X387449Y149222D02*
Y151128D01*
X351640Y123250D02*
X353640D01*
X352640Y122250D02*
Y124250D01*
X351640Y129750D02*
X353640D01*
X352640Y128750D02*
Y130750D01*
X351640Y201250D02*
X353640D01*
X352640Y200250D02*
Y202250D01*
X351640Y207750D02*
X353640D01*
X352640Y206750D02*
Y208750D01*
X254790Y168750D02*
X257330D01*
X256060Y167480D02*
Y170020D01*
M02*
