G04*
G04 #@! TF.GenerationSoftware,Altium Limited,Altium Designer,25.8.1 (18)*
G04*
G04 Layer_Color=65535*
%FSLAX44Y44*%
%MOMM*%
G71*
G04*
G04 #@! TF.SameCoordinates,99744387-A38E-4539-A8C8-20A6DD82CAC9*
G04*
G04*
G04 #@! TF.FilePolarity,Positive*
G04*
G01*
G75*
%ADD10C,0.2540*%
%ADD11C,0.2000*%
%ADD12C,0.1270*%
%ADD13C,0.1524*%
D10*
X471160Y49930D02*
G03*
X471160Y49930I-50000J0D01*
G01*
Y500780D02*
G03*
X471160Y500780I-50000J0D01*
G01*
X324440Y214500D02*
X334440D01*
Y212000D02*
Y214500D01*
X289440D02*
X299440D01*
X289440Y212000D02*
Y214500D01*
X324440Y116500D02*
X334440D01*
Y119000D01*
X289440Y116500D02*
X299440D01*
X289440D02*
Y119000D01*
X324440Y432940D02*
X334440D01*
Y430440D02*
Y432940D01*
X289440D02*
X299440D01*
X289440Y430440D02*
Y432940D01*
X324440Y334940D02*
X334440D01*
Y337440D01*
X289440Y334940D02*
X299440D01*
X289440D02*
Y337440D01*
X361940Y472440D02*
Y549440D01*
X261940Y472440D02*
X361940D01*
X261940D02*
Y549440D01*
X361940D01*
X0Y199720D02*
X62220D01*
X481570Y333940D02*
X558570D01*
X481570D02*
Y433940D01*
X558570D01*
Y333940D02*
Y433940D01*
X481570Y115500D02*
X558570D01*
X481570D02*
Y215500D01*
X558570D01*
Y115500D02*
Y215500D01*
X76000Y199720D02*
Y355720D01*
X0Y199720D02*
X76000D01*
X0D02*
Y355720D01*
X76000D01*
X261940Y0D02*
Y77000D01*
X361940D01*
Y0D02*
Y77000D01*
X261940Y0D02*
X361940D01*
X404650Y19452D02*
Y29608D01*
X399572Y24530D02*
X409728D01*
X437670Y531258D02*
Y521101D01*
X442748Y526180D02*
X432592D01*
D11*
X208800Y550390D02*
G03*
X208800Y550390I-1000J0D01*
G01*
X219800Y-1100D02*
G03*
X219800Y-1100I-1000J0D01*
G01*
D12*
X182400Y142270D02*
Y152430D01*
X179860Y142270D02*
Y152430D01*
X196630Y139850D02*
Y154850D01*
X165630D02*
X196630D01*
X165630Y139850D02*
X196630D01*
X165630D02*
Y154850D01*
X182400Y127280D02*
Y137440D01*
X179860Y127280D02*
Y137440D01*
X196630Y124860D02*
Y139860D01*
X165630D02*
X196630D01*
X165630Y124860D02*
X196630D01*
X165630D02*
Y139860D01*
X290840Y440990D02*
Y456990D01*
X277040Y440990D02*
Y456990D01*
X202840Y366690D02*
X217840D01*
X202840D02*
Y397690D01*
X217840D01*
Y366690D02*
Y397690D01*
X205260Y383460D02*
X215420D01*
X205260Y380920D02*
X215420D01*
X277040Y222550D02*
Y238550D01*
X290840Y222550D02*
Y238550D01*
X224310Y178020D02*
X234470D01*
X224310Y175480D02*
X234470D01*
X221890Y161250D02*
Y192250D01*
Y161250D02*
X236890D01*
Y192250D01*
X221890D02*
X236890D01*
X224310Y396640D02*
X234470D01*
X224310Y394100D02*
X234470D01*
X221890Y379870D02*
Y410870D01*
Y379870D02*
X236890D01*
Y410870D01*
X221890D02*
X236890D01*
X179860Y360960D02*
Y371120D01*
X182400Y360960D02*
Y371120D01*
X165630Y358540D02*
X196630D01*
Y373540D01*
X165630D02*
X196630D01*
X165630Y358540D02*
Y373540D01*
X179860Y345720D02*
Y355880D01*
X182400Y345720D02*
Y355880D01*
X165630Y343300D02*
X196630D01*
Y358300D01*
X165630D02*
X196630D01*
X165630Y343300D02*
Y358300D01*
X254240Y107350D02*
Y123350D01*
X268040Y107350D02*
Y123350D01*
X114370Y186430D02*
Y202430D01*
X100570Y186430D02*
Y202430D01*
X139770Y186430D02*
Y202430D01*
X125970Y186430D02*
Y202430D01*
X254240Y325790D02*
Y341790D01*
X268040Y325790D02*
Y341790D01*
X114370Y404870D02*
Y420870D01*
X100570Y404870D02*
Y420870D01*
X139770Y404870D02*
Y420870D01*
X125970Y404870D02*
Y420870D01*
X205260Y162480D02*
X215420D01*
X205260Y165020D02*
X215420D01*
X217840Y148250D02*
Y179250D01*
X202840D02*
X217840D01*
X202840Y148250D02*
Y179250D01*
Y148250D02*
X217840D01*
X511330Y33800D02*
X521490D01*
X511330Y31260D02*
X521490D01*
X508910Y17030D02*
Y48030D01*
Y17030D02*
X523910D01*
Y48030D01*
X508910D02*
X523910D01*
X372070Y189670D02*
Y199830D01*
X374610Y189670D02*
Y199830D01*
X357840Y187250D02*
X388840D01*
Y202250D01*
X357840D02*
X388840D01*
X357840Y187250D02*
Y202250D01*
X372070Y131170D02*
Y141330D01*
X374610Y131170D02*
Y141330D01*
X357840Y128750D02*
X388840D01*
Y143750D01*
X357840D02*
X388840D01*
X357840Y128750D02*
Y143750D01*
X484660Y516910D02*
X494820D01*
X484660Y519450D02*
X494820D01*
X497240Y502680D02*
Y533680D01*
X482240D02*
X497240D01*
X482240Y502680D02*
Y533680D01*
Y502680D02*
X497240D01*
X372070Y408110D02*
Y418270D01*
X374610Y408110D02*
Y418270D01*
X357840Y405690D02*
X388840D01*
Y420690D01*
X357840D02*
X388840D01*
X357840Y405690D02*
Y420690D01*
X372070Y349610D02*
Y359770D01*
X374610Y349610D02*
Y359770D01*
X357840Y347190D02*
X388840D01*
Y362190D01*
X357840D02*
X388840D01*
X357840Y347190D02*
Y362190D01*
X295768Y222539D02*
Y218307D01*
X296614Y217461D01*
X298307D01*
X299154Y218307D01*
Y222539D01*
X304232Y217461D02*
X300846D01*
X304232Y220846D01*
Y221693D01*
X303386Y222539D01*
X301693D01*
X300846Y221693D01*
X168926Y161725D02*
X168080Y162571D01*
X166387D01*
X165540Y161725D01*
Y158339D01*
X166387Y157493D01*
X168080D01*
X168926Y158339D01*
X174004Y157493D02*
X170619D01*
X174004Y160879D01*
Y161725D01*
X173158Y162571D01*
X171465D01*
X170619Y161725D01*
X175697D02*
X176544Y162571D01*
X178236D01*
X179083Y161725D01*
Y158339D01*
X178236Y157493D01*
X176544D01*
X175697Y158339D01*
Y161725D01*
X169296Y121363D02*
X168450Y122209D01*
X166757D01*
X165910Y121363D01*
Y117977D01*
X166757Y117131D01*
X168450D01*
X169296Y117977D01*
X174375Y117131D02*
X170989D01*
X174375Y120516D01*
Y121363D01*
X173528Y122209D01*
X171835D01*
X170989Y121363D01*
X176067Y117131D02*
X177760D01*
X176914D01*
Y122209D01*
X176067Y121363D01*
X484998Y228236D02*
X483305D01*
X484151D01*
Y224004D01*
X483305Y223158D01*
X482458D01*
X481612Y224004D01*
X490076Y228236D02*
X486690D01*
Y225697D01*
X488383Y226544D01*
X489230D01*
X490076Y225697D01*
Y224004D01*
X489230Y223158D01*
X487537D01*
X486690Y224004D01*
X484998Y446676D02*
X483305D01*
X484151D01*
Y442444D01*
X483305Y441598D01*
X482458D01*
X481612Y442444D01*
X489230Y441598D02*
Y446676D01*
X486690Y444137D01*
X490076D01*
X157846Y103542D02*
X156999Y104388D01*
X155306D01*
X154460Y103542D01*
Y100156D01*
X155306Y99310D01*
X156999D01*
X157846Y100156D01*
X162924Y99310D02*
X159538D01*
X162924Y102696D01*
Y103542D01*
X162078Y104388D01*
X160385D01*
X159538Y103542D01*
X164617D02*
X165463Y104388D01*
X167156D01*
X168002Y103542D01*
Y102696D01*
X167156Y101849D01*
X168002Y101003D01*
Y100156D01*
X167156Y99310D01*
X165463D01*
X164617Y100156D01*
Y101003D01*
X165463Y101849D01*
X164617Y102696D01*
Y103542D01*
X165463Y101849D02*
X167156D01*
X157846Y52742D02*
X156999Y53588D01*
X155306D01*
X154460Y52742D01*
Y49356D01*
X155306Y48510D01*
X156999D01*
X157846Y49356D01*
X162924Y48510D02*
X159538D01*
X162924Y51896D01*
Y52742D01*
X162078Y53588D01*
X160385D01*
X159538Y52742D01*
X164617Y53588D02*
X168002D01*
Y52742D01*
X164617Y49356D01*
Y48510D01*
X157846Y487232D02*
X156999Y488078D01*
X155306D01*
X154460Y487232D01*
Y483846D01*
X155306Y483000D01*
X156999D01*
X157846Y483846D01*
X162924Y483000D02*
X159538D01*
X162924Y486386D01*
Y487232D01*
X162078Y488078D01*
X160385D01*
X159538Y487232D01*
X168002Y488078D02*
X166310Y487232D01*
X164617Y485539D01*
Y483846D01*
X165463Y483000D01*
X167156D01*
X168002Y483846D01*
Y484693D01*
X167156Y485539D01*
X164617D01*
X157846Y538032D02*
X156999Y538878D01*
X155306D01*
X154460Y538032D01*
Y534646D01*
X155306Y533800D01*
X156999D01*
X157846Y534646D01*
X162924Y533800D02*
X159538D01*
X162924Y537186D01*
Y538032D01*
X162078Y538878D01*
X160385D01*
X159538Y538032D01*
X168002Y538878D02*
X164617D01*
Y536339D01*
X166310Y537186D01*
X167156D01*
X168002Y536339D01*
Y534646D01*
X167156Y533800D01*
X165463D01*
X164617Y534646D01*
X241661Y109890D02*
X246739D01*
Y107351D01*
X245893Y106505D01*
X244200D01*
X243354Y107351D01*
Y109890D01*
Y108197D02*
X241661Y106505D01*
X246739Y101426D02*
Y104812D01*
X241661D01*
Y101426D01*
X244200Y104812D02*
Y103119D01*
X245893Y96348D02*
X246739Y97194D01*
Y98887D01*
X245893Y99734D01*
X242507D01*
X241661Y98887D01*
Y97194D01*
X242507Y96348D01*
X244200D01*
Y98041D01*
X241661Y91270D02*
Y94655D01*
X245046Y91270D01*
X245893D01*
X246739Y92116D01*
Y93809D01*
X245893Y94655D01*
X222196Y549041D02*
Y554119D01*
X224735D01*
X225582Y553273D01*
Y551580D01*
X224735Y550734D01*
X222196D01*
X223889D02*
X225582Y549041D01*
X230660Y554119D02*
X227274D01*
Y549041D01*
X230660D01*
X227274Y551580D02*
X228967D01*
X235738Y553273D02*
X234892Y554119D01*
X233199D01*
X232353Y553273D01*
Y549887D01*
X233199Y549041D01*
X234892D01*
X235738Y549887D01*
Y551580D01*
X234046D01*
X237431Y549041D02*
X239124D01*
X238277D01*
Y554119D01*
X237431Y553273D01*
X92568Y336102D02*
X91721Y336948D01*
X90028D01*
X89182Y336102D01*
Y335256D01*
X90028Y334409D01*
X91721D01*
X92568Y333563D01*
Y332716D01*
X91721Y331870D01*
X90028D01*
X89182Y332716D01*
X94260Y336948D02*
Y331870D01*
X95953Y333563D01*
X97646Y331870D01*
Y336948D01*
X102724Y331870D02*
X99339D01*
X102724Y335256D01*
Y336102D01*
X101878Y336948D01*
X100185D01*
X99339Y336102D01*
X254536Y137052D02*
Y142130D01*
X257075D01*
X257922Y141284D01*
Y139591D01*
X257075Y138745D01*
X254536D01*
X256229D02*
X257922Y137052D01*
X259614Y141284D02*
X260461Y142130D01*
X262153D01*
X263000Y141284D01*
Y140438D01*
X262153Y139591D01*
X263000Y138745D01*
Y137898D01*
X262153Y137052D01*
X260461D01*
X259614Y137898D01*
Y138745D01*
X260461Y139591D01*
X259614Y140438D01*
Y141284D01*
X260461Y139591D02*
X262153D01*
X100866Y216046D02*
Y221124D01*
X103405D01*
X104252Y220278D01*
Y218585D01*
X103405Y217739D01*
X100866D01*
X102559D02*
X104252Y216046D01*
X105944Y221124D02*
X109330D01*
Y220278D01*
X105944Y216892D01*
Y216046D01*
X126266D02*
Y221124D01*
X128805D01*
X129652Y220278D01*
Y218585D01*
X128805Y217739D01*
X126266D01*
X127959D02*
X129652Y216046D01*
X134730Y221124D02*
X133037Y220278D01*
X131344Y218585D01*
Y216892D01*
X132191Y216046D01*
X133883D01*
X134730Y216892D01*
Y217739D01*
X133883Y218585D01*
X131344D01*
X277396Y252368D02*
Y257446D01*
X279935D01*
X280782Y256600D01*
Y254907D01*
X279935Y254061D01*
X277396D01*
X279089D02*
X280782Y252368D01*
X285860Y257446D02*
X282474D01*
Y254907D01*
X284167Y255754D01*
X285014D01*
X285860Y254907D01*
Y253214D01*
X285014Y252368D01*
X283321D01*
X282474Y253214D01*
X265288Y89806D02*
X263595D01*
X264441D01*
Y85574D01*
X263595Y84728D01*
X262748D01*
X261902Y85574D01*
X266980Y88960D02*
X267827Y89806D01*
X269520D01*
X270366Y88960D01*
Y88114D01*
X269520Y87267D01*
X268673D01*
X269520D01*
X270366Y86421D01*
Y85574D01*
X269520Y84728D01*
X267827D01*
X266980Y85574D01*
X361808Y155000D02*
X360961Y155846D01*
X359268D01*
X358422Y155000D01*
Y151614D01*
X359268Y150768D01*
X360961D01*
X361808Y151614D01*
X363500Y150768D02*
X365193D01*
X364347D01*
Y155846D01*
X363500Y155000D01*
X367732Y151614D02*
X368579Y150768D01*
X370271D01*
X371118Y151614D01*
Y155000D01*
X370271Y155846D01*
X368579D01*
X367732Y155000D01*
Y154154D01*
X368579Y153307D01*
X371118D01*
X206868Y190560D02*
X206021Y191406D01*
X204328D01*
X203482Y190560D01*
Y187174D01*
X204328Y186328D01*
X206021D01*
X206868Y187174D01*
X208560Y186328D02*
X210253D01*
X209407D01*
Y191406D01*
X208560Y190560D01*
X212792D02*
X213639Y191406D01*
X215331D01*
X216178Y190560D01*
Y189714D01*
X215331Y188867D01*
X216178Y188021D01*
Y187174D01*
X215331Y186328D01*
X213639D01*
X212792Y187174D01*
Y188021D01*
X213639Y188867D01*
X212792Y189714D01*
Y190560D01*
X213639Y188867D02*
X215331D01*
X361808Y213420D02*
X360961Y214266D01*
X359268D01*
X358422Y213420D01*
Y210034D01*
X359268Y209188D01*
X360961D01*
X361808Y210034D01*
X363500Y209188D02*
X365193D01*
X364347D01*
Y214266D01*
X363500Y213420D01*
X367732Y214266D02*
X371118D01*
Y213420D01*
X367732Y210034D01*
Y209188D01*
X225918Y203514D02*
X225071Y204360D01*
X223378D01*
X222532Y203514D01*
Y200128D01*
X223378Y199282D01*
X225071D01*
X225918Y200128D01*
X227610Y199282D02*
X229303D01*
X228457D01*
Y204360D01*
X227610Y203514D01*
X235228Y204360D02*
X233535Y203514D01*
X231842Y201821D01*
Y200128D01*
X232689Y199282D01*
X234382D01*
X235228Y200128D01*
Y200975D01*
X234382Y201821D01*
X231842D01*
X512938Y59368D02*
X512091Y60214D01*
X510398D01*
X509552Y59368D01*
Y55982D01*
X510398Y55136D01*
X512091D01*
X512938Y55982D01*
X514630Y55136D02*
X516323D01*
X515477D01*
Y60214D01*
X514630Y59368D01*
X522248Y60214D02*
X518862D01*
Y57675D01*
X520555Y58522D01*
X521401D01*
X522248Y57675D01*
Y55982D01*
X521401Y55136D01*
X519709D01*
X518862Y55982D01*
X484236Y61748D02*
X483389Y62594D01*
X481696D01*
X480850Y61748D01*
Y58362D01*
X481696Y57516D01*
X483389D01*
X484236Y58362D01*
X485928Y57516D02*
X487621D01*
X486775D01*
Y62594D01*
X485928Y61748D01*
X492700Y57516D02*
Y62594D01*
X490160Y60055D01*
X493546D01*
X374508Y111820D02*
X373661Y112666D01*
X371968D01*
X371122Y111820D01*
Y108434D01*
X371968Y107588D01*
X373661D01*
X374508Y108434D01*
X376200Y107588D02*
X377893D01*
X377047D01*
Y112666D01*
X376200Y111820D01*
X380432D02*
X381279Y112666D01*
X382971D01*
X383818Y111820D01*
Y110974D01*
X382971Y110127D01*
X382125D01*
X382971D01*
X383818Y109281D01*
Y108434D01*
X382971Y107588D01*
X381279D01*
X380432Y108434D01*
X298394Y443629D02*
Y439397D01*
X299241Y438551D01*
X300934D01*
X301780Y439397D01*
Y443629D01*
X303473Y438551D02*
X305166D01*
X304319D01*
Y443629D01*
X303473Y442783D01*
X92568Y554542D02*
X91721Y555388D01*
X90028D01*
X89182Y554542D01*
Y553696D01*
X90028Y552849D01*
X91721D01*
X92568Y552003D01*
Y551156D01*
X91721Y550310D01*
X90028D01*
X89182Y551156D01*
X94260Y555388D02*
Y550310D01*
X95953Y552003D01*
X97646Y550310D01*
Y555388D01*
X99339Y550310D02*
X101032D01*
X100185D01*
Y555388D01*
X99339Y554542D01*
X254536Y355492D02*
Y360570D01*
X257075D01*
X257922Y359724D01*
Y358031D01*
X257075Y357185D01*
X254536D01*
X256229D02*
X257922Y355492D01*
X262153D02*
Y360570D01*
X259614Y358031D01*
X263000D01*
X94769Y401298D02*
X89691D01*
Y403837D01*
X90537Y404684D01*
X92230D01*
X93076Y403837D01*
Y401298D01*
Y402991D02*
X94769Y404684D01*
X90537Y406376D02*
X89691Y407223D01*
Y408916D01*
X90537Y409762D01*
X91384D01*
X92230Y408916D01*
Y408069D01*
Y408916D01*
X93076Y409762D01*
X93923D01*
X94769Y408916D01*
Y407223D01*
X93923Y406376D01*
X148109Y417808D02*
X143031D01*
Y420347D01*
X143877Y421194D01*
X145570D01*
X146416Y420347D01*
Y417808D01*
Y419501D02*
X148109Y421194D01*
Y426272D02*
Y422886D01*
X144724Y426272D01*
X143877D01*
X143031Y425426D01*
Y423733D01*
X143877Y422886D01*
X272539Y436614D02*
X267461D01*
Y439154D01*
X268307Y440000D01*
X270000D01*
X270846Y439154D01*
Y436614D01*
Y438307D02*
X272539Y440000D01*
Y441693D02*
Y443386D01*
Y442539D01*
X267461D01*
X268307Y441693D01*
X3414Y368444D02*
X1721D01*
X2567D01*
Y364212D01*
X1721Y363366D01*
X874D01*
X28Y364212D01*
X8492Y363366D02*
X5106D01*
X8492Y366752D01*
Y367598D01*
X7645Y368444D01*
X5953D01*
X5106Y367598D01*
X265288Y562246D02*
X263595D01*
X264441D01*
Y558014D01*
X263595Y557168D01*
X262748D01*
X261902Y558014D01*
X266980Y557168D02*
X268673D01*
X267827D01*
Y562246D01*
X266980Y561400D01*
X170124Y338523D02*
X169277Y339369D01*
X167584D01*
X166738Y338523D01*
Y335137D01*
X167584Y334291D01*
X169277D01*
X170124Y335137D01*
X171816D02*
X172663Y334291D01*
X174356D01*
X175202Y335137D01*
Y338523D01*
X174356Y339369D01*
X172663D01*
X171816Y338523D01*
Y337676D01*
X172663Y336830D01*
X175202D01*
X168854Y381703D02*
X168007Y382549D01*
X166315D01*
X165468Y381703D01*
Y378317D01*
X166315Y377471D01*
X168007D01*
X168854Y378317D01*
X170546Y381703D02*
X171393Y382549D01*
X173086D01*
X173932Y381703D01*
Y380856D01*
X173086Y380010D01*
X173932Y379164D01*
Y378317D01*
X173086Y377471D01*
X171393D01*
X170546Y378317D01*
Y379164D01*
X171393Y380010D01*
X170546Y380856D01*
Y381703D01*
X171393Y380010D02*
X173086D01*
X361808Y373440D02*
X360961Y374286D01*
X359268D01*
X358422Y373440D01*
Y370054D01*
X359268Y369208D01*
X360961D01*
X361808Y370054D01*
X363500Y374286D02*
X366886D01*
Y373440D01*
X363500Y370054D01*
Y369208D01*
X206868Y409000D02*
X206021Y409846D01*
X204328D01*
X203482Y409000D01*
Y405614D01*
X204328Y404768D01*
X206021D01*
X206868Y405614D01*
X211946Y409846D02*
X210253Y409000D01*
X208560Y407307D01*
Y405614D01*
X209407Y404768D01*
X211099D01*
X211946Y405614D01*
Y406461D01*
X211099Y407307D01*
X208560D01*
X361808Y431860D02*
X360961Y432706D01*
X359268D01*
X358422Y431860D01*
Y428474D01*
X359268Y427628D01*
X360961D01*
X361808Y428474D01*
X366886Y432706D02*
X363500D01*
Y430167D01*
X365193Y431014D01*
X366040D01*
X366886Y430167D01*
Y428474D01*
X366040Y427628D01*
X364347D01*
X363500Y428474D01*
X225918Y422208D02*
X225071Y423054D01*
X223378D01*
X222532Y422208D01*
Y418822D01*
X223378Y417976D01*
X225071D01*
X225918Y418822D01*
X230149Y417976D02*
Y423054D01*
X227610Y420515D01*
X230996D01*
X486268Y545018D02*
X485421Y545864D01*
X483728D01*
X482882Y545018D01*
Y541632D01*
X483728Y540786D01*
X485421D01*
X486268Y541632D01*
X487960Y545018D02*
X488807Y545864D01*
X490499D01*
X491346Y545018D01*
Y544172D01*
X490499Y543325D01*
X489653D01*
X490499D01*
X491346Y542479D01*
Y541632D01*
X490499Y540786D01*
X488807D01*
X487960Y541632D01*
X510906Y545398D02*
X510059Y546244D01*
X508366D01*
X507520Y545398D01*
Y542012D01*
X508366Y541166D01*
X510059D01*
X510906Y542012D01*
X515984Y541166D02*
X512598D01*
X515984Y544552D01*
Y545398D01*
X515137Y546244D01*
X513445D01*
X512598Y545398D01*
X374508Y562670D02*
X373661Y563516D01*
X371968D01*
X371122Y562670D01*
Y559284D01*
X371968Y558438D01*
X373661D01*
X374508Y559284D01*
X376200Y558438D02*
X377893D01*
X377047D01*
Y563516D01*
X376200Y562670D01*
D13*
X189800Y439190D02*
Y544590D01*
Y439190D02*
X236800D01*
Y544590D01*
X189800D02*
X236800D01*
Y4700D02*
Y110100D01*
X189800D02*
X236800D01*
X189800Y4700D02*
Y110100D01*
Y4700D02*
X236800D01*
M02*
