G04*
G04 #@! TF.GenerationSoftware,Altium Limited,Altium Designer,25.8.1 (18)*
G04*
G04 Layer_Color=16711935*
%FSLAX44Y44*%
%MOMM*%
G71*
G04*
G04 #@! TF.SameCoordinates,99744387-A38E-4539-A8C8-20A6DD82CAC9*
G04*
G04*
G04 #@! TF.FilePolarity,Negative*
G04*
G01*
G75*
%ADD28C,1.7272*%
%ADD29R,2.3032X2.3032*%
%ADD30C,2.3032*%
%ADD31C,2.0632*%
%ADD32R,2.0632X2.0632*%
%ADD33R,2.3032X2.3032*%
%ADD34C,0.4318*%
%ADD35C,0.4400*%
%ADD36C,0.4572*%
%ADD37C,0.5842*%
%ADD38C,0.7112*%
D28*
X421160Y75330D02*
D03*
Y24530D02*
D03*
Y475380D02*
D03*
Y526180D02*
D03*
X132870Y532530D02*
D03*
X107470D02*
D03*
Y456330D02*
D03*
X132870D02*
D03*
X107470Y237890D02*
D03*
Y314090D02*
D03*
X132870Y237890D02*
D03*
Y314090D02*
D03*
D29*
X336940Y517440D02*
D03*
X286940Y32000D02*
D03*
D30*
Y517440D02*
D03*
X30000Y274720D02*
D03*
X526570Y408940D02*
D03*
Y190500D02*
D03*
X30000Y224720D02*
D03*
X336940Y32000D02*
D03*
D31*
X218800Y57400D02*
D03*
X207800Y491890D02*
D03*
Y466490D02*
D03*
X218800Y82800D02*
D03*
D32*
X207800Y517290D02*
D03*
X218800Y32000D02*
D03*
D33*
X526570Y358940D02*
D03*
Y140500D02*
D03*
X30000Y324720D02*
D03*
D34*
X392801Y359175D02*
D03*
X392948Y365440D02*
D03*
X387449Y368615D02*
D03*
X392801Y352825D02*
D03*
X403799D02*
D03*
X381950Y371790D02*
D03*
Y365440D02*
D03*
X398300Y362350D02*
D03*
X392801Y415055D02*
D03*
X403799D02*
D03*
X392801Y408705D02*
D03*
X398300Y405530D02*
D03*
X392801Y402355D02*
D03*
X387302Y399180D02*
D03*
X381802Y402355D02*
D03*
Y396005D02*
D03*
X398300Y411880D02*
D03*
Y356000D02*
D03*
X381802Y177565D02*
D03*
Y183915D02*
D03*
X387302Y180740D02*
D03*
X392801Y183915D02*
D03*
X398300Y187090D02*
D03*
X392801Y190265D02*
D03*
X403799Y196615D02*
D03*
X392801D02*
D03*
X398300Y193440D02*
D03*
X398300Y143910D02*
D03*
X381950Y147000D02*
D03*
Y153350D02*
D03*
X403799Y134385D02*
D03*
X392801D02*
D03*
X387449Y150175D02*
D03*
X392948Y147000D02*
D03*
X392801Y140735D02*
D03*
X398300Y137560D02*
D03*
D35*
X311940Y152500D02*
D03*
Y139500D02*
D03*
Y178500D02*
D03*
Y191500D02*
D03*
X319940D02*
D03*
Y178500D02*
D03*
Y165500D02*
D03*
Y152500D02*
D03*
Y139500D02*
D03*
X303940Y178500D02*
D03*
Y165500D02*
D03*
Y152500D02*
D03*
Y139500D02*
D03*
X311940Y165500D02*
D03*
X303940Y191500D02*
D03*
X311940Y370940D02*
D03*
Y357940D02*
D03*
Y396940D02*
D03*
Y409940D02*
D03*
X319940D02*
D03*
Y396940D02*
D03*
Y383940D02*
D03*
Y370940D02*
D03*
Y357940D02*
D03*
X303940Y396940D02*
D03*
Y383940D02*
D03*
Y370940D02*
D03*
Y357940D02*
D03*
X311940Y383940D02*
D03*
X303940Y409940D02*
D03*
D36*
X210340Y402890D02*
D03*
X229390Y197450D02*
D03*
X210340Y184450D02*
D03*
X271643Y162250D02*
D03*
Y188250D02*
D03*
Y194750D02*
D03*
X160430Y147350D02*
D03*
Y366040D02*
D03*
X271240Y380690D02*
D03*
Y406690D02*
D03*
X271643Y413190D02*
D03*
X107470Y392270D02*
D03*
X132870D02*
D03*
X107470Y173830D02*
D03*
X132870D02*
D03*
X149270Y466490D02*
D03*
Y82800D02*
D03*
Y32000D02*
D03*
X229390Y416070D02*
D03*
X489740Y497480D02*
D03*
X516410Y495480D02*
D03*
X489740Y55230D02*
D03*
X516410Y53230D02*
D03*
X149270Y517290D02*
D03*
X327180Y402990D02*
D03*
Y364890D02*
D03*
Y184550D02*
D03*
Y146450D02*
D03*
X261140Y313190D02*
D03*
D37*
X352640Y341690D02*
D03*
Y348190D02*
D03*
Y419690D02*
D03*
Y426190D02*
D03*
Y123250D02*
D03*
Y129750D02*
D03*
Y201250D02*
D03*
Y207750D02*
D03*
D38*
X256060Y387190D02*
D03*
Y168750D02*
D03*
M02*
