M48
;Layer_Color=9474304
;FILE_FORMAT=4:4
METRIC,LZ
;TYPE=PLATED
T01F00S00C0.3000
T02F00S00C0.7620
T03F00S00C0.9700
T04F00S00C1.2400
T05F00S00C1.4000
%
T01
X0014927Y00032
Y000828
X0016043Y0014735
X0021034Y0018445
X0022939Y0019745
X002667Y0020066
Y001905
X0025606Y0016875
X00271643Y0016225
X0030394Y001655
X0031194
X0031994
Y001525
X0031194
X0030394
Y001395
X0031194
X0031994
Y001785
X0031194
X0030394
Y001915
X0031194
X0031994
X00353Y0018175
X0035306Y002032
X003556Y0021082
X00392801Y00196615
X00403799
X003983Y0018709
X00387302Y0018074
X00387449Y00150175
X003983Y0014391
X00403799Y00134385
X00392801
X003556Y0012446
X0035306Y0011684
X00353Y0014925
X0044196Y0014986
X0044958
X004572
X0046482
Y0016002
X004572
X0044958
X0044196
Y0017018
X0044958
X004572
X0046482
Y0018034
X004572
X0044958
X0044196
Y001905
X0044958
X004572
X0046482
Y0020066
X004572
X0044958
X0044196
Y0021082
X0044958
X004572
X0046482
Y001397
X004572
X0044958
X0044196
Y0012954
X0044958
X004572
X0046482
Y0011938
X004572
X0044958
X0044196
X0048974Y0005523
X0051641Y0005323
X0048768Y0030988
Y003429
X0045466
Y0030988
X0026114Y0041987
X0013287Y0017383
X0010747
Y0049895
X0013287
X0016043Y0047272
X0021034Y0050957
X0022939Y0052275
X002667Y0052578
Y0051562
X0025606Y0049387
X0027124Y0048737
X0030394Y0049062
X0031194
X0031994
Y0047762
X0031194
X0030394
Y0046462
X0031194
X0031994
Y0050362
X0031194
X0030394
Y0051662
X0031194
X0031994
X00353Y0050687
X003556Y0053086
Y0053848
X00392801Y00521735
X00403799
X003983Y0051221
X00387302Y0050586
X00387449Y00475295
X003983Y0046903
X00392801Y00459505
X00403799
X0044196Y0045466
X0044958
X004572
X0046482
Y004445
X004572
X0044958
X0044196
Y0046482
X0044958
X004572
X0046482
Y0047498
X004572
X0044958
X0044196
Y0048514
X0044958
X004572
X0046482
Y004953
X004572
X0044958
X0044196
Y0050546
X0044958
X004572
X0046482
Y0051562
X004572
X0044958
X0044196
Y0052578
X0044958
X004572
X0046482
Y0053594
X004572
X0044958
X0044196
X0048974Y0060416
X0051641Y0060216
X00353Y0047437
X003556Y0044958
Y0044196
X0016197Y0058587
X0014927Y0062397
T02
X0042116Y0002453
X007493Y0004866
Y0009946
X0074422Y0023154
Y0028234
Y0037378
Y0042458
X0039068Y004064
Y003556
Y0029718
Y0024638
X0042116Y0007533
Y0058206
Y0063286
X0074422Y0060746
Y0055666
T03
X0010747Y0023789
X0013287
Y0031409
X0010747
Y0056301
X0013287
Y0063921
X0010747
T04
X002188Y00032
Y000574
Y000828
X002078Y0057317
Y0059857
Y0062397
T05
X0028694Y00032
X0033694
X008565Y001405
Y001905
X0003Y0027806
Y0032806
Y0037806
X0028694Y0062412
X0033694
X008565Y0051562
Y0046562
M30
