G04*
G04 #@! TF.GenerationSoftware,Altium Limited,Altium Designer,25.8.1 (18)*
G04*
G04 Layer_Color=32768*
%FSLAX44Y44*%
%MOMM*%
G71*
G04*
G04 #@! TF.SameCoordinates,99744387-A38E-4539-A8C8-20A6DD82CAC9*
G04*
G04*
G04 #@! TF.FilePolarity,Positive*
G04*
G01*
G75*
%ADD50C,0.0500*%
D50*
X291540Y433890D02*
Y464090D01*
X276340Y433890D02*
X291540D01*
X276340D02*
Y464090D01*
X291540D01*
X187280Y547090D02*
X239280D01*
X187280Y436690D02*
Y547090D01*
Y436690D02*
X239280D01*
Y547090D01*
X187320Y2200D02*
X239320D01*
Y112600D01*
X187320D02*
X239320D01*
X187320Y2200D02*
Y112600D01*
X153470Y72800D02*
Y92800D01*
Y72800D02*
X188470D01*
Y92800D01*
X153470D02*
X188470D01*
X153470Y22000D02*
Y42000D01*
Y22000D02*
X188470D01*
Y42000D01*
X153470D02*
X188470D01*
X153470Y456490D02*
Y476490D01*
Y456490D02*
X188470D01*
Y476490D01*
X153470D02*
X188470D01*
X153470Y507290D02*
Y527290D01*
Y507290D02*
X188470D01*
Y527290D01*
X153470D02*
X188470D01*
X276340Y245650D02*
X291540D01*
X276340Y215450D02*
Y245650D01*
Y215450D02*
X291540D01*
Y245650D01*
X253540Y130450D02*
X268740D01*
X253540Y100250D02*
Y130450D01*
Y100250D02*
X268740D01*
Y130450D01*
X99870Y179330D02*
X115070D01*
Y209530D01*
X99870D02*
X115070D01*
X99870Y179330D02*
Y209530D01*
X125270Y179330D02*
X140470D01*
Y209530D01*
X125270D02*
X140470D01*
X125270Y179330D02*
Y209530D01*
X253540Y348890D02*
X268740D01*
X253540Y318690D02*
Y348890D01*
Y318690D02*
X268740D01*
Y348890D01*
X99870Y397770D02*
X115070D01*
Y427970D01*
X99870D02*
X115070D01*
X99870Y397770D02*
Y427970D01*
X125270Y397770D02*
X140470D01*
Y427970D01*
X125270D02*
X140470D01*
X125270Y397770D02*
Y427970D01*
X479740Y51030D02*
X499740D01*
X479740Y16030D02*
Y51030D01*
Y16030D02*
X499740D01*
Y51030D01*
X506410Y499680D02*
X526410D01*
Y534680D01*
X506410D02*
X526410D01*
X506410Y499680D02*
Y534680D01*
M02*
