G04*
G04 #@! TF.GenerationSoftware,Altium Limited,Altium Designer,25.8.1 (18)*
G04*
G04 Layer_Color=128*
%FSLAX44Y44*%
%MOMM*%
G71*
G04*
G04 #@! TF.SameCoordinates,99744387-A38E-4539-A8C8-20A6DD82CAC9*
G04*
G04*
G04 #@! TF.FilePolarity,Positive*
G04*
G01*
G75*
%ADD12C,0.1270*%
D12*
X417350Y75330D02*
X424970D01*
X421160Y71520D02*
Y79140D01*
X417350Y24530D02*
X424970D01*
X421160Y20720D02*
Y28340D01*
X417350Y475380D02*
X424970D01*
X421160Y471570D02*
Y479190D01*
X417350Y526180D02*
X424970D01*
X421160Y522370D02*
Y529990D01*
X329940Y517440D02*
X343940D01*
X336940Y510440D02*
Y524440D01*
X279940Y517440D02*
X293940D01*
X286940Y510440D02*
Y524440D01*
X23000Y274720D02*
X37000D01*
X30000Y267720D02*
Y281720D01*
X279940Y32000D02*
X293940D01*
X286940Y25000D02*
Y39000D01*
X212600Y57400D02*
X225000D01*
X218800Y51200D02*
Y63600D01*
X201600Y491890D02*
X214000D01*
X207800Y485690D02*
Y498090D01*
X201600Y466490D02*
X214000D01*
X207800Y460290D02*
Y472690D01*
X201600Y517290D02*
X214000D01*
X207800Y511090D02*
Y523490D01*
X212600Y82800D02*
X225000D01*
X218800Y76600D02*
Y89000D01*
X212600Y32000D02*
X225000D01*
X218800Y25800D02*
Y38200D01*
X128020Y532530D02*
X137720D01*
X132870Y527680D02*
Y537380D01*
X102620Y532530D02*
X112320D01*
X107470Y527680D02*
Y537380D01*
X102620Y456330D02*
X112320D01*
X107470Y451480D02*
Y461180D01*
X128020Y456330D02*
X137720D01*
X132870Y451480D02*
Y461180D01*
X519570Y358940D02*
X533570D01*
X526570Y351940D02*
Y365940D01*
X519570Y408940D02*
X533570D01*
X526570Y401940D02*
Y415940D01*
X519570Y140500D02*
X533570D01*
X526570Y133500D02*
Y147500D01*
X519570Y190500D02*
X533570D01*
X526570Y183500D02*
Y197500D01*
X23000Y324720D02*
X37000D01*
X30000Y317720D02*
Y331720D01*
X23000Y224720D02*
X37000D01*
X30000Y217720D02*
Y231720D01*
X102620Y237890D02*
X112320D01*
X107470Y233040D02*
Y242740D01*
X102620Y314090D02*
X112320D01*
X107470Y309240D02*
Y318940D01*
X128020Y237890D02*
X137720D01*
X132870Y233040D02*
Y242740D01*
X128020Y314090D02*
X137720D01*
X132870Y309240D02*
Y318940D01*
X329940Y32000D02*
X343940D01*
X336940Y25000D02*
Y39000D01*
X391848Y359175D02*
X393753D01*
X392801Y358223D02*
Y360127D01*
X391996Y365440D02*
X393901D01*
X392948Y364487D02*
Y366393D01*
X386496Y368615D02*
X388401D01*
X387449Y367663D02*
Y369567D01*
X391848Y352825D02*
X393753D01*
X392801Y351873D02*
Y353778D01*
X402847Y352825D02*
X404752D01*
X403799Y351873D02*
Y353778D01*
X380997Y371790D02*
X382902D01*
X381950Y370838D02*
Y372743D01*
X380997Y365440D02*
X382902D01*
X381950Y364487D02*
Y366393D01*
X397348Y362350D02*
X399253D01*
X398300Y361398D02*
Y363303D01*
X391848Y415055D02*
X393753D01*
X392801Y414103D02*
Y416007D01*
X402847Y415055D02*
X404752D01*
X403799Y414103D02*
Y416007D01*
X391848Y408705D02*
X393753D01*
X392801Y407753D02*
Y409658D01*
X397348Y405530D02*
X399253D01*
X398300Y404577D02*
Y406483D01*
X391848Y402355D02*
X393753D01*
X392801Y401403D02*
Y403307D01*
X386349Y399180D02*
X388254D01*
X387302Y398228D02*
Y400133D01*
X380850Y402355D02*
X382755D01*
X381802Y401403D02*
Y403307D01*
X380850Y396005D02*
X382755D01*
X381802Y395052D02*
Y396958D01*
X397348Y411880D02*
X399253D01*
X398300Y410928D02*
Y412832D01*
X397348Y356000D02*
X399253D01*
X398300Y355047D02*
Y356953D01*
X380850Y177565D02*
X382755D01*
X381802Y176613D02*
Y178517D01*
X380850Y183915D02*
X382755D01*
X381802Y182962D02*
Y184867D01*
X386349Y180740D02*
X388254D01*
X387302Y179788D02*
Y181693D01*
X391848Y183915D02*
X393753D01*
X392801Y182962D02*
Y184867D01*
X397348Y187090D02*
X399253D01*
X398300Y186138D02*
Y188043D01*
X391848Y190265D02*
X393753D01*
X392801Y189313D02*
Y191218D01*
X402847Y196615D02*
X404752D01*
X403799Y195662D02*
Y197568D01*
X391848Y196615D02*
X393753D01*
X392801Y195662D02*
Y197568D01*
X397348Y193440D02*
X399253D01*
X398300Y192488D02*
Y194393D01*
X397347Y143910D02*
X399253D01*
X398300Y142957D02*
Y144862D01*
X380997Y147000D02*
X382902D01*
X381950Y146047D02*
Y147952D01*
X380997Y153350D02*
X382902D01*
X381950Y152397D02*
Y154303D01*
X402847Y134385D02*
X404752D01*
X403799Y133433D02*
Y135337D01*
X391848Y134385D02*
X393753D01*
X392801Y133433D02*
Y135337D01*
X386496Y150175D02*
X388401D01*
X387449Y149222D02*
Y151128D01*
X391996Y147000D02*
X393900D01*
X392948Y146047D02*
Y147952D01*
X391848Y140735D02*
X393753D01*
X392801Y139782D02*
Y141687D01*
X311190Y152500D02*
X312690D01*
X311940Y151750D02*
Y153250D01*
X311190Y139500D02*
X312690D01*
X311940Y138750D02*
Y140250D01*
X311190Y178500D02*
X312690D01*
X311940Y177750D02*
Y179250D01*
X311190Y191500D02*
X312690D01*
X311940Y190750D02*
Y192250D01*
X319190Y191500D02*
X320690D01*
X319940Y190750D02*
Y192250D01*
X319190Y178500D02*
X320690D01*
X319940Y177750D02*
Y179250D01*
X319190Y165500D02*
X320690D01*
X319940Y164750D02*
Y166250D01*
X319190Y152500D02*
X320690D01*
X319940Y151750D02*
Y153250D01*
X319190Y139500D02*
X320690D01*
X319940Y138750D02*
Y140250D01*
X303190Y178500D02*
X304690D01*
X303940Y177750D02*
Y179250D01*
X303190Y165500D02*
X304690D01*
X303940Y164750D02*
Y166250D01*
X303190Y152500D02*
X304690D01*
X303940Y151750D02*
Y153250D01*
X303190Y139500D02*
X304690D01*
X303940Y138750D02*
Y140250D01*
X311190Y165500D02*
X312690D01*
X311940Y164750D02*
Y166250D01*
X303190Y191500D02*
X304690D01*
X303940Y190750D02*
Y192250D01*
X311190Y370940D02*
X312690D01*
X311940Y370190D02*
Y371690D01*
X311190Y357940D02*
X312690D01*
X311940Y357190D02*
Y358690D01*
X311190Y396940D02*
X312690D01*
X311940Y396190D02*
Y397690D01*
X311190Y409940D02*
X312690D01*
X311940Y409190D02*
Y410690D01*
X319190Y409940D02*
X320690D01*
X319940Y409190D02*
Y410690D01*
X319190Y396940D02*
X320690D01*
X319940Y396190D02*
Y397690D01*
X319190Y383940D02*
X320690D01*
X319940Y383190D02*
Y384690D01*
X319190Y370940D02*
X320690D01*
X319940Y370190D02*
Y371690D01*
X319190Y357940D02*
X320690D01*
X319940Y357190D02*
Y358690D01*
X303190Y396940D02*
X304690D01*
X303940Y396190D02*
Y397690D01*
X303190Y383940D02*
X304690D01*
X303940Y383190D02*
Y384690D01*
X303190Y370940D02*
X304690D01*
X303940Y370190D02*
Y371690D01*
X303190Y357940D02*
X304690D01*
X303940Y357190D02*
Y358690D01*
X311190Y383940D02*
X312690D01*
X311940Y383190D02*
Y384690D01*
X303190Y409940D02*
X304690D01*
X303940Y409190D02*
Y410690D01*
X209705Y402890D02*
X210975D01*
X210340Y402255D02*
Y403525D01*
X228755Y197450D02*
X230025D01*
X229390Y196815D02*
Y198085D01*
X209705Y184450D02*
X210975D01*
X210340Y183815D02*
Y185085D01*
X271008Y162250D02*
X272278D01*
X271643Y161615D02*
Y162885D01*
X271008Y188250D02*
X272278D01*
X271643Y187615D02*
Y188885D01*
X271008Y194750D02*
X272278D01*
X271643Y194115D02*
Y195385D01*
X159795Y147350D02*
X161065D01*
X160430Y146715D02*
Y147985D01*
X159795Y366040D02*
X161065D01*
X160430Y365405D02*
Y366675D01*
X270605Y380690D02*
X271875D01*
X271240Y380055D02*
Y381325D01*
X270605Y406690D02*
X271875D01*
X271240Y406055D02*
Y407325D01*
X271008Y413190D02*
X272278D01*
X271643Y412555D02*
Y413825D01*
X106835Y392270D02*
X108105D01*
X107470Y391635D02*
Y392905D01*
X132235Y392270D02*
X133505D01*
X132870Y391635D02*
Y392905D01*
X106835Y173830D02*
X108105D01*
X107470Y173195D02*
Y174465D01*
X132235Y173830D02*
X133505D01*
X132870Y173195D02*
Y174465D01*
X148635Y466490D02*
X149905D01*
X149270Y465855D02*
Y467125D01*
X148635Y82800D02*
X149905D01*
X149270Y82165D02*
Y83435D01*
X148635Y32000D02*
X149905D01*
X149270Y31365D02*
Y32635D01*
X228755Y416070D02*
X230025D01*
X229390Y415435D02*
Y416705D01*
X489105Y497480D02*
X490375D01*
X489740Y496845D02*
Y498115D01*
X515775Y495480D02*
X517045D01*
X516410Y494845D02*
Y496115D01*
X489105Y55230D02*
X490375D01*
X489740Y54595D02*
Y55865D01*
X515775Y53230D02*
X517045D01*
X516410Y52595D02*
Y53865D01*
X148635Y517290D02*
X149905D01*
X149270Y516655D02*
Y517925D01*
X326545Y402990D02*
X327815D01*
X327180Y402355D02*
Y403625D01*
X326545Y364890D02*
X327815D01*
X327180Y364255D02*
Y365525D01*
X326545Y184550D02*
X327815D01*
X327180Y183915D02*
Y185185D01*
X326545Y146450D02*
X327815D01*
X327180Y145815D02*
Y147085D01*
X260505Y313190D02*
X261775D01*
X261140Y312555D02*
Y313825D01*
X397347Y137560D02*
X399253D01*
X398300Y136608D02*
Y138512D01*
X351688Y341690D02*
X353592D01*
X352640Y340738D02*
Y342643D01*
X351688Y348190D02*
X353592D01*
X352640Y347238D02*
Y349143D01*
X351688Y419690D02*
X353592D01*
X352640Y418737D02*
Y420642D01*
X351688Y426190D02*
X353592D01*
X352640Y425237D02*
Y427142D01*
X351688Y123250D02*
X353592D01*
X352640Y122298D02*
Y124203D01*
X351688Y129750D02*
X353592D01*
X352640Y128798D02*
Y130703D01*
X351688Y201250D02*
X353592D01*
X352640Y200297D02*
Y202202D01*
X351688Y207750D02*
X353592D01*
X352640Y206797D02*
Y208702D01*
X254790Y387190D02*
X257330D01*
X256060Y385920D02*
Y388460D01*
X254790Y168750D02*
X257330D01*
X256060Y167480D02*
Y170020D01*
M02*
