M48
;Layer_Color=9474304
;FILE_FORMAT=4:4
METRIC,LZ
;TYPE=PLATED
T01F00S00C0.1270
T02F00S00C0.1500
T03F00S00C0.1905
T04F00S00C0.2540
T05F00S00C0.7620
T06F00S00C0.9700
T07F00S00C1.2400
T08F00S00C1.4000
%
T01
X0014927Y00032
Y000828
X0016043Y0014735
X0021034Y0018445
X0022939Y0019745
X00271643Y0019475
Y0018825
Y0016225
X0032718Y0014645
Y0018455
Y0036489
Y0040299
X0027124Y0040669
X00271643Y0041319
X0027124Y0038069
X0022939Y0041607
X0021034Y0040289
X0016043Y0036604
X0026114Y0031319
X0048974Y0005523
X0051641Y0005323
X0013287Y0017383
X0010747
Y0039227
X0013287
X0014927Y0046649
Y0051729
X0048974Y0049748
X0051641Y0049548
T02
X0030394Y001395
X0031194
X0031994
Y001525
X0031194
X0030394
Y001655
X0031194
X0031994
Y001785
X0031194
X0030394
Y001915
X0031194
X0031994
Y0035794
X0031194
X0030394
Y0037094
X0031194
X0031994
Y0038394
X0031194
X0030394
Y0039694
X0031194
X0031994
Y0040994
X0031194
X0030394
T03
X0035264Y0012325
Y0012975
X00392801Y00134385
Y00140735
X00392948Y00147
X003983Y0014391
Y0013756
X00403799Y00134385
X00387449Y00150175
X0038195Y00147
Y0015335
X00381802Y00177565
Y00183915
X00387302Y0018074
X00392801Y00183915
Y00190265
Y00196615
X003983Y0019344
Y0018709
X00403799Y00196615
X0035264Y0020125
Y0020775
Y0034169
Y0034819
X00392801Y00352825
Y00359175
X00392948Y0036544
X003983Y0036235
Y00356
X00403799Y00352825
X00387449Y00368615
X0038195Y0037179
Y0036544
X00381802Y00396005
Y00402355
X00387302Y0039918
X00392801Y00402355
Y00408705
Y00415055
X003983Y0041188
Y0040553
X00403799Y00415055
X0035264Y0041969
Y0042619
T04
X0025606Y0016875
Y0038719
T05
X0042116Y0002453
Y0007533
Y0047538
Y0052618
T06
X0010747Y0023789
X0013287
Y0031409
X0010747
Y0045633
X0013287
Y0053253
X0010747
T07
X002188Y00032
Y000574
Y000828
X002078Y0046649
Y0049189
Y0051729
T08
X0028694Y00032
X0033694
X0052657Y001405
Y001905
Y0035894
Y0040894
X0003Y0032472
Y0027472
Y0022472
X0028694Y0051744
X0033694
M30
