G04*
G04 #@! TF.GenerationSoftware,Altium Limited,Altium Designer,26.6.0 (10)*
G04*
G04 Layer_Physical_Order=2*
G04 Layer_Color=16711680*
G04 Board_Origin=25968898|13934251*
%FSLAX44Y44*%
%MOMM*%
G71*
G04*
G04 #@! TF.SameCoordinates,28262C2E-F151-4320-BF17-60C4C4611D1B*
G04*
G04*
G04 #@! TF.FilePolarity,Positive*
G04*
G01*
G75*
%ADD10C,0.2540*%
%ADD42C,1.5240*%
%ADD43C,1.8600*%
%ADD44C,2.1000*%
%ADD45R,1.8600X1.8600*%
%ADD46R,2.1000X2.1000*%
%ADD47R,2.1000X2.1000*%
%ADD48C,0.4500*%
%ADD49C,0.5080*%
%ADD50C,0.5000*%
G36*
X889000Y0D02*
X0D01*
X-0Y657860D01*
X889000D01*
Y0D01*
D02*
G37*
%LPC*%
G36*
X311537Y637214D02*
X294147D01*
X293886Y637106D01*
X293606Y637069D01*
X293517Y636953D01*
X293382Y636897D01*
X293273Y636636D01*
X293101Y636412D01*
X292843Y635446D01*
X292880Y635166D01*
X292875Y635127D01*
X292062Y634530D01*
X291958Y634502D01*
X291379Y634836D01*
X288454Y635620D01*
X285426D01*
X282501Y634836D01*
X281922Y634502D01*
X281818Y634530D01*
X281005Y635127D01*
X281000Y635166D01*
X281037Y635446D01*
X280779Y636412D01*
X280607Y636636D01*
X280498Y636897D01*
X280363Y636953D01*
X280274Y637069D01*
X279994Y637106D01*
X279733Y637214D01*
X261543D01*
X261344Y637132D01*
X261129D01*
X260976Y637069D01*
X260976Y637069D01*
X260824Y636916D01*
X260777Y636897D01*
X260758Y636851D01*
X260609Y636701D01*
X260562Y636682D01*
X260543Y636635D01*
X260390Y636483D01*
X260391Y636483D01*
X260328Y636331D01*
Y636115D01*
X260245Y635916D01*
Y578017D01*
X260328Y577818D01*
Y577603D01*
X260480Y577235D01*
X260632Y577083D01*
X260714Y576884D01*
X261044Y576554D01*
X261243Y576472D01*
X261395Y576320D01*
X261763Y576168D01*
X261978D01*
X262177Y576085D01*
X298792D01*
X317366Y557511D01*
X317366Y557511D01*
X335788Y539089D01*
X335987Y539006D01*
X336139Y538854D01*
X336507Y538702D01*
X336722D01*
X336921Y538619D01*
X337715D01*
Y535098D01*
X337798Y534899D01*
Y534683D01*
X337950Y534316D01*
X338102Y534164D01*
X338185Y533965D01*
X361918Y510232D01*
Y471128D01*
X338184Y447395D01*
X338102Y447196D01*
X337950Y447044D01*
X337798Y446676D01*
Y446461D01*
X337715Y446262D01*
Y435777D01*
X337798Y435578D01*
Y435363D01*
X337950Y434995D01*
X338102Y434843D01*
X338184Y434644D01*
X338514Y434314D01*
X338713Y434232D01*
X338865Y434080D01*
X339233Y433928D01*
X339448D01*
X339647Y433845D01*
X366335D01*
X366534Y433928D01*
X366749D01*
X367117Y434080D01*
X367269Y434232D01*
X367468Y434314D01*
X374704Y441551D01*
X375353Y441282D01*
X375628Y441060D01*
Y440835D01*
X375710Y440636D01*
Y440421D01*
X375773Y440269D01*
X375773Y440269D01*
X375925Y440116D01*
X375945Y440070D01*
X375991Y440051D01*
X376141Y439901D01*
X376160Y439855D01*
X376206Y439835D01*
X376359Y439683D01*
X376359Y439683D01*
X376511Y439620D01*
X376726D01*
X376925Y439538D01*
X469685D01*
X469884Y439620D01*
X470099D01*
X470251Y439683D01*
X470404Y439835D01*
X470450Y439855D01*
X470469Y439901D01*
X470619Y440051D01*
X470665Y440070D01*
X470685Y440117D01*
X470837Y440269D01*
X470900Y440421D01*
Y440636D01*
X470982Y440835D01*
Y489322D01*
X470900Y489521D01*
Y489737D01*
X470811Y489952D01*
X470736Y490026D01*
X470982Y490620D01*
Y540620D01*
X470665Y541385D01*
X469900Y541702D01*
X376710D01*
X375945Y541385D01*
X375628Y540620D01*
Y539250D01*
X374979Y538982D01*
X374628Y538944D01*
X343769Y569802D01*
X312835Y600737D01*
Y635916D01*
X312752Y636115D01*
Y636331D01*
X312689Y636483D01*
X312689Y636483D01*
X312537Y636635D01*
X312518Y636682D01*
X312471Y636701D01*
X312322Y636851D01*
X312302Y636897D01*
X312256Y636916D01*
X312104Y637069D01*
X312103Y637069D01*
X311951Y637132D01*
X311736D01*
X311537Y637214D01*
D02*
G37*
G36*
X134005Y647830D02*
X131735D01*
X129543Y647243D01*
X127577Y646108D01*
X125972Y644503D01*
X124837Y642537D01*
X124250Y640345D01*
Y638075D01*
X124837Y635883D01*
X125972Y633917D01*
X127577Y632312D01*
X129543Y631177D01*
X131735Y630590D01*
X134005D01*
X136197Y631177D01*
X138163Y632312D01*
X139768Y633917D01*
X140903Y635883D01*
X141490Y638075D01*
Y640345D01*
X140903Y642537D01*
X139768Y644503D01*
X138163Y646108D01*
X136197Y647243D01*
X134005Y647830D01*
D02*
G37*
G36*
X108605D02*
X106335D01*
X104143Y647243D01*
X102177Y646108D01*
X100572Y644503D01*
X99437Y642537D01*
X98850Y640345D01*
Y638075D01*
X99437Y635883D01*
X100572Y633917D01*
X102177Y632312D01*
X104143Y631177D01*
X106335Y630590D01*
X108605D01*
X110797Y631177D01*
X112763Y632312D01*
X114368Y633917D01*
X115503Y635883D01*
X116090Y638075D01*
Y640345D01*
X115503Y642537D01*
X114368Y644503D01*
X112763Y646108D01*
X110797Y647243D01*
X108605Y647830D01*
D02*
G37*
G36*
X349980Y637160D02*
X338210D01*
Y625390D01*
X349980D01*
Y637160D01*
D02*
G37*
G36*
X335670D02*
X323900D01*
Y625390D01*
X335670D01*
Y637160D01*
D02*
G37*
G36*
X150540Y628629D02*
Y625240D01*
X153929D01*
X153331Y626683D01*
X151983Y628031D01*
X150540Y628629D01*
D02*
G37*
G36*
X148000D02*
X146557Y628031D01*
X145209Y626683D01*
X144611Y625240D01*
X148000D01*
Y628629D01*
D02*
G37*
G36*
X422295Y641480D02*
X420025D01*
X417833Y640893D01*
X415867Y639758D01*
X414262Y638153D01*
X413127Y636187D01*
X412540Y633995D01*
Y631725D01*
X413127Y629533D01*
X414262Y627567D01*
X415867Y625962D01*
X417833Y624827D01*
X420025Y624240D01*
X422295D01*
X424487Y624827D01*
X426453Y625962D01*
X428058Y627567D01*
X429193Y629533D01*
X429780Y631725D01*
Y633995D01*
X429193Y636187D01*
X428058Y638153D01*
X426453Y639758D01*
X424487Y640893D01*
X422295Y641480D01*
D02*
G37*
G36*
X153929Y622700D02*
X150540D01*
Y619311D01*
X151983Y619909D01*
X153331Y621257D01*
X153929Y622700D01*
D02*
G37*
G36*
X148000D02*
X144611D01*
X145209Y621257D01*
X146557Y619909D01*
X148000Y619311D01*
Y622700D01*
D02*
G37*
G36*
X218100Y634270D02*
X197500D01*
Y613670D01*
X218100D01*
Y634270D01*
D02*
G37*
G36*
X349980Y622850D02*
X338210D01*
Y611080D01*
X349980D01*
Y622850D01*
D02*
G37*
G36*
X335670D02*
X323900D01*
Y611080D01*
X335670D01*
Y622850D01*
D02*
G37*
G36*
X745558Y617620D02*
X745490D01*
Y608730D01*
X754380D01*
Y608798D01*
X753688Y611382D01*
X752350Y613698D01*
X750458Y615590D01*
X748142Y616928D01*
X745558Y617620D01*
D02*
G37*
G36*
X742950D02*
X742882D01*
X740298Y616928D01*
X737982Y615590D01*
X736090Y613698D01*
X734752Y611382D01*
X734060Y608798D01*
Y608730D01*
X742950D01*
Y617620D01*
D02*
G37*
G36*
X491010Y608819D02*
Y605430D01*
X494399D01*
X493801Y606873D01*
X492453Y608221D01*
X491010Y608819D01*
D02*
G37*
G36*
X488470D02*
X487027Y608221D01*
X485679Y606873D01*
X485081Y605430D01*
X488470D01*
Y608819D01*
D02*
G37*
G36*
X517680Y606819D02*
Y603430D01*
X521069D01*
X520471Y604873D01*
X519123Y606221D01*
X517680Y606819D01*
D02*
G37*
G36*
X515140D02*
X513697Y606221D01*
X512349Y604873D01*
X511751Y603430D01*
X515140D01*
Y606819D01*
D02*
G37*
G36*
X209359Y610410D02*
X209070D01*
Y599840D01*
X219640D01*
Y600129D01*
X218833Y603140D01*
X217274Y605840D01*
X215070Y608044D01*
X212370Y609603D01*
X209359Y610410D01*
D02*
G37*
G36*
X206530D02*
X206241D01*
X203230Y609603D01*
X200530Y608044D01*
X198326Y605840D01*
X196767Y603140D01*
X195960Y600129D01*
Y599840D01*
X206530D01*
Y610410D01*
D02*
G37*
G36*
X494399Y602890D02*
X491010D01*
Y599501D01*
X492453Y600099D01*
X493801Y601447D01*
X494399Y602890D01*
D02*
G37*
G36*
X488470D02*
X485081D01*
X485679Y601447D01*
X487027Y600099D01*
X488470Y599501D01*
Y602890D01*
D02*
G37*
G36*
X521069Y600890D02*
X517680D01*
Y597501D01*
X519123Y598099D01*
X520471Y599447D01*
X521069Y600890D01*
D02*
G37*
G36*
X515140D02*
X511751D01*
X512349Y599447D01*
X513697Y598099D01*
X515140Y597501D01*
Y600890D01*
D02*
G37*
G36*
X754380Y606190D02*
X745490D01*
Y597300D01*
X745558D01*
X748142Y597992D01*
X750458Y599330D01*
X752350Y601222D01*
X753688Y603538D01*
X754380Y606122D01*
Y606190D01*
D02*
G37*
G36*
X742950D02*
X734060D01*
Y606122D01*
X734752Y603538D01*
X736090Y601222D01*
X737982Y599330D01*
X740298Y597992D01*
X742882Y597300D01*
X742950D01*
Y606190D01*
D02*
G37*
G36*
X163240Y590529D02*
Y587140D01*
X166629D01*
X166031Y588583D01*
X164683Y589931D01*
X163240Y590529D01*
D02*
G37*
G36*
X160700D02*
X159257Y589931D01*
X157909Y588583D01*
X157311Y587140D01*
X160700D01*
Y590529D01*
D02*
G37*
G36*
X219640Y597300D02*
X209070D01*
Y586730D01*
X209359D01*
X212370Y587537D01*
X215070Y589096D01*
X217274Y591300D01*
X218833Y594000D01*
X219640Y597011D01*
Y597300D01*
D02*
G37*
G36*
X206530D02*
X195960D01*
Y597011D01*
X196767Y594000D01*
X198326Y591300D01*
X200530Y589096D01*
X203230Y587537D01*
X206241Y586730D01*
X206530D01*
Y597300D01*
D02*
G37*
G36*
X422498Y592220D02*
X422430D01*
Y583330D01*
X431320D01*
Y583398D01*
X430628Y585982D01*
X429290Y588298D01*
X427398Y590190D01*
X425082Y591528D01*
X422498Y592220D01*
D02*
G37*
G36*
X419890D02*
X419822D01*
X417238Y591528D01*
X414922Y590190D01*
X413030Y588298D01*
X411692Y585982D01*
X411000Y583398D01*
Y583330D01*
X419890D01*
Y592220D01*
D02*
G37*
G36*
X166629Y584600D02*
X163240D01*
Y581211D01*
X164683Y581809D01*
X166031Y583157D01*
X166629Y584600D01*
D02*
G37*
G36*
X160700D02*
X157311D01*
X157909Y583157D01*
X159257Y581809D01*
X160700Y581211D01*
Y584600D01*
D02*
G37*
G36*
X431320Y580790D02*
X422430D01*
Y571900D01*
X422498D01*
X425082Y572592D01*
X427398Y573930D01*
X429290Y575822D01*
X430628Y578138D01*
X431320Y580722D01*
Y580790D01*
D02*
G37*
G36*
X419890D02*
X411000D01*
Y580722D01*
X411692Y578138D01*
X413030Y575822D01*
X414922Y573930D01*
X417238Y572592D01*
X419822Y571900D01*
X419890D01*
Y580790D01*
D02*
G37*
G36*
X134005Y571630D02*
X131735D01*
X129543Y571043D01*
X127577Y569908D01*
X125972Y568303D01*
X124837Y566337D01*
X124250Y564145D01*
Y561875D01*
X124837Y559683D01*
X125972Y557717D01*
X127577Y556112D01*
X129543Y554977D01*
X131735Y554390D01*
X134005D01*
X136197Y554977D01*
X138163Y556112D01*
X139768Y557717D01*
X140903Y559683D01*
X141490Y561875D01*
Y564145D01*
X140903Y566337D01*
X139768Y568303D01*
X138163Y569908D01*
X136197Y571043D01*
X134005Y571630D01*
D02*
G37*
G36*
X108605D02*
X106335D01*
X104143Y571043D01*
X102177Y569908D01*
X100572Y568303D01*
X99437Y566337D01*
X98850Y564145D01*
Y561875D01*
X99437Y559683D01*
X100572Y557717D01*
X102177Y556112D01*
X104143Y554977D01*
X106335Y554390D01*
X108605D01*
X110797Y554977D01*
X112763Y556112D01*
X114368Y557717D01*
X115503Y559683D01*
X116090Y561875D01*
Y564145D01*
X115503Y566337D01*
X114368Y568303D01*
X112763Y569908D01*
X110797Y571043D01*
X108605Y571630D01*
D02*
G37*
G36*
X745355Y565280D02*
X743085D01*
X740893Y564693D01*
X738927Y563558D01*
X737322Y561953D01*
X736188Y559987D01*
X735600Y557795D01*
Y555525D01*
X736188Y553333D01*
X737322Y551367D01*
X738927Y549762D01*
X740893Y548628D01*
X743085Y548040D01*
X745355D01*
X747547Y548628D01*
X749513Y549762D01*
X751118Y551367D01*
X752253Y553333D01*
X752840Y555525D01*
Y557795D01*
X752253Y559987D01*
X751118Y561953D01*
X749513Y563558D01*
X747547Y564693D01*
X745355Y565280D01*
D02*
G37*
G36*
X267970Y530439D02*
Y527050D01*
X271359D01*
X270761Y528493D01*
X269413Y529841D01*
X267970Y530439D01*
D02*
G37*
G36*
X265430D02*
X263987Y529841D01*
X262639Y528493D01*
X262041Y527050D01*
X265430D01*
Y530439D01*
D02*
G37*
G36*
X230660Y527409D02*
Y524020D01*
X234049D01*
X233451Y525463D01*
X232103Y526811D01*
X230660Y527409D01*
D02*
G37*
G36*
X228120D02*
X226677Y526811D01*
X225329Y525463D01*
X224731Y524020D01*
X228120D01*
Y527409D01*
D02*
G37*
G36*
X318670Y521279D02*
X317227Y520681D01*
X315940Y519394D01*
X314653Y520681D01*
X313210Y521279D01*
Y516620D01*
Y511961D01*
X314653Y512559D01*
X315940Y513846D01*
X317227Y512559D01*
X318670Y511961D01*
Y516620D01*
Y521279D01*
D02*
G37*
G36*
X310670D02*
X309227Y520681D01*
X307940Y519394D01*
X306653Y520681D01*
X305210Y521279D01*
Y516620D01*
Y511961D01*
X306653Y512559D01*
X307940Y513846D01*
X309227Y512559D01*
X310670Y511961D01*
Y516620D01*
Y521279D01*
D02*
G37*
G36*
X234049Y521480D02*
X230660D01*
Y518091D01*
X232103Y518689D01*
X233451Y520037D01*
X234049Y521480D01*
D02*
G37*
G36*
X228120D02*
X224731D01*
X225329Y520037D01*
X226677Y518689D01*
X228120Y518091D01*
Y521480D01*
D02*
G37*
G36*
X321210Y521279D02*
Y517890D01*
X324599D01*
X324001Y519333D01*
X322653Y520681D01*
X321210Y521279D01*
D02*
G37*
G36*
X302670D02*
X301227Y520681D01*
X299879Y519333D01*
X299281Y517890D01*
X302670D01*
Y521279D01*
D02*
G37*
G36*
X271359Y524510D02*
X262041D01*
X262639Y523067D01*
X263987Y521719D01*
X265141Y521241D01*
Y520159D01*
X263987Y519681D01*
X262639Y518333D01*
X262041Y516890D01*
X271359D01*
X270761Y518333D01*
X269413Y519681D01*
X268259Y520159D01*
Y521241D01*
X269413Y521719D01*
X270761Y523067D01*
X271359Y524510D01*
D02*
G37*
G36*
X324599Y515350D02*
X321210D01*
Y511961D01*
X322653Y512559D01*
X324001Y513907D01*
X324599Y515350D01*
D02*
G37*
G36*
X302670D02*
X299281D01*
X299879Y513907D01*
X301227Y512559D01*
X302670Y511961D01*
Y515350D01*
D02*
G37*
G36*
X271359Y514350D02*
X267970D01*
Y510961D01*
X269413Y511559D01*
X270761Y512907D01*
X271359Y514350D01*
D02*
G37*
G36*
X265430D02*
X262041D01*
X262639Y512907D01*
X263987Y511559D01*
X265430Y510961D01*
Y514350D01*
D02*
G37*
G36*
X211610Y514229D02*
Y510840D01*
X214999D01*
X214401Y512283D01*
X213053Y513631D01*
X211610Y514229D01*
D02*
G37*
G36*
X209070D02*
X207627Y513631D01*
X206279Y512283D01*
X205681Y510840D01*
X209070D01*
Y514229D01*
D02*
G37*
G36*
X354270Y511799D02*
Y508140D01*
X357929D01*
X357273Y509725D01*
X355855Y511143D01*
X354270Y511799D01*
D02*
G37*
G36*
X351730D02*
X350145Y511143D01*
X348727Y509725D01*
X348071Y508140D01*
X351730D01*
Y511799D01*
D02*
G37*
G36*
X318670Y508279D02*
X317227Y507681D01*
X315940Y506394D01*
X314653Y507681D01*
X313210Y508279D01*
Y503620D01*
Y498961D01*
X314653Y499559D01*
X315940Y500846D01*
X317227Y499559D01*
X318670Y498961D01*
Y503620D01*
Y508279D01*
D02*
G37*
G36*
X310670D02*
X309227Y507681D01*
X307940Y506394D01*
X306653Y507681D01*
X305210Y508279D01*
Y503620D01*
Y498961D01*
X306653Y499559D01*
X307940Y500846D01*
X309227Y499559D01*
X310670Y498961D01*
Y503620D01*
Y508279D01*
D02*
G37*
G36*
X214999Y508300D02*
X211610D01*
Y504911D01*
X213053Y505509D01*
X214401Y506857D01*
X214999Y508300D01*
D02*
G37*
G36*
X209070D02*
X205681D01*
X206279Y506857D01*
X207627Y505509D01*
X209070Y504911D01*
Y508300D01*
D02*
G37*
G36*
X321210Y508279D02*
Y504890D01*
X324599D01*
X324001Y506333D01*
X322653Y507681D01*
X321210Y508279D01*
D02*
G37*
G36*
X302670D02*
X301227Y507681D01*
X299879Y506333D01*
X299281Y504890D01*
X302670D01*
Y508279D01*
D02*
G37*
G36*
X858014Y527120D02*
X854986D01*
X852061Y526336D01*
X849439Y524822D01*
X847298Y522681D01*
X845784Y520059D01*
X845000Y517134D01*
Y514106D01*
X845784Y511181D01*
X847298Y508559D01*
X849439Y506418D01*
X852061Y504904D01*
X854986Y504120D01*
X858014D01*
X860939Y504904D01*
X863561Y506418D01*
X865702Y508559D01*
X867216Y511181D01*
X868000Y514106D01*
Y517134D01*
X867216Y520059D01*
X865702Y522681D01*
X863561Y524822D01*
X860939Y526336D01*
X858014Y527120D01*
D02*
G37*
G36*
X357929Y505600D02*
X354270D01*
Y501941D01*
X355855Y502597D01*
X357273Y504015D01*
X357929Y505600D01*
D02*
G37*
G36*
X351730D02*
X348071D01*
X348727Y504015D01*
X350145Y502597D01*
X351730Y501941D01*
Y505600D01*
D02*
G37*
G36*
X134140Y503609D02*
Y500220D01*
X137529D01*
X136931Y501663D01*
X135583Y503011D01*
X134140Y503609D01*
D02*
G37*
G36*
X131600D02*
X130157Y503011D01*
X128809Y501663D01*
X128211Y500220D01*
X131600D01*
Y503609D01*
D02*
G37*
G36*
X108740D02*
Y500220D01*
X112129D01*
X111531Y501663D01*
X110183Y503011D01*
X108740Y503609D01*
D02*
G37*
G36*
X106200D02*
X104757Y503011D01*
X103409Y501663D01*
X102811Y500220D01*
X106200D01*
Y503609D01*
D02*
G37*
G36*
X324599Y502350D02*
X321210D01*
Y498961D01*
X322653Y499559D01*
X324001Y500907D01*
X324599Y502350D01*
D02*
G37*
G36*
X302670D02*
X299281D01*
X299879Y500907D01*
X301227Y499559D01*
X302670Y498961D01*
Y502350D01*
D02*
G37*
G36*
X137529Y497680D02*
X134140D01*
Y494291D01*
X135583Y494889D01*
X136931Y496237D01*
X137529Y497680D01*
D02*
G37*
G36*
X131600D02*
X128211D01*
X128809Y496237D01*
X130157Y494889D01*
X131600Y494291D01*
Y497680D01*
D02*
G37*
G36*
X112129D02*
X108740D01*
Y494291D01*
X110183Y494889D01*
X111531Y496237D01*
X112129Y497680D01*
D02*
G37*
G36*
X106200D02*
X102811D01*
X103409Y496237D01*
X104757Y494889D01*
X106200Y494291D01*
Y497680D01*
D02*
G37*
G36*
X318670Y495279D02*
X317227Y494681D01*
X315940Y493394D01*
X314653Y494681D01*
X313210Y495279D01*
Y490620D01*
Y485961D01*
X314653Y486559D01*
X315940Y487846D01*
X317227Y486559D01*
X318670Y485961D01*
Y490620D01*
Y495279D01*
D02*
G37*
G36*
X310670D02*
X309227Y494681D01*
X307940Y493394D01*
X306653Y494681D01*
X305210Y495279D01*
Y490620D01*
Y485961D01*
X306653Y486559D01*
X307940Y487846D01*
X309227Y486559D01*
X310670Y485961D01*
Y490620D01*
Y495279D01*
D02*
G37*
G36*
X321210D02*
Y491890D01*
X324599D01*
X324001Y493333D01*
X322653Y494681D01*
X321210Y495279D01*
D02*
G37*
G36*
X302670D02*
X301227Y494681D01*
X299879Y493333D01*
X299281Y491890D01*
X302670D01*
Y495279D01*
D02*
G37*
G36*
X272510Y492029D02*
Y488640D01*
X275899D01*
X275301Y490083D01*
X273953Y491431D01*
X272510Y492029D01*
D02*
G37*
G36*
X269970D02*
X268527Y491431D01*
X267179Y490083D01*
X266581Y488640D01*
X269970D01*
Y492029D01*
D02*
G37*
G36*
X324599Y489350D02*
X321210D01*
Y485961D01*
X322653Y486559D01*
X324001Y487907D01*
X324599Y489350D01*
D02*
G37*
G36*
X302670D02*
X299281D01*
X299879Y487907D01*
X301227Y486559D01*
X302670Y485961D01*
Y489350D01*
D02*
G37*
G36*
X275899Y486100D02*
X272510D01*
Y482711D01*
X273953Y483309D01*
X275301Y484657D01*
X275899Y486100D01*
D02*
G37*
G36*
X269970D02*
X266581D01*
X267179Y484657D01*
X268527Y483309D01*
X269970Y482711D01*
Y486100D01*
D02*
G37*
G36*
X318670Y482279D02*
X317227Y481681D01*
X315940Y480394D01*
X314653Y481681D01*
X313210Y482279D01*
Y477620D01*
Y472961D01*
X314653Y473559D01*
X315940Y474846D01*
X317227Y473559D01*
X318670Y472961D01*
Y477620D01*
Y482279D01*
D02*
G37*
G36*
X310670D02*
X309227Y481681D01*
X307940Y480394D01*
X306653Y481681D01*
X305210Y482279D01*
Y477620D01*
Y472961D01*
X306653Y473559D01*
X307940Y474846D01*
X309227Y473559D01*
X310670Y472961D01*
Y477620D01*
Y482279D01*
D02*
G37*
G36*
X321210D02*
Y478890D01*
X324599D01*
X324001Y480333D01*
X322653Y481681D01*
X321210Y482279D01*
D02*
G37*
G36*
X302670D02*
X301227Y481681D01*
X299879Y480333D01*
X299281Y478890D01*
X302670D01*
Y482279D01*
D02*
G37*
G36*
X354270Y479299D02*
Y475640D01*
X357929D01*
X357273Y477225D01*
X355855Y478643D01*
X354270Y479299D01*
D02*
G37*
G36*
X351730D02*
X350145Y478643D01*
X348727Y477225D01*
X348071Y475640D01*
X351730D01*
Y479299D01*
D02*
G37*
G36*
X161700Y477379D02*
Y473990D01*
X165089D01*
X164491Y475433D01*
X163143Y476781D01*
X161700Y477379D01*
D02*
G37*
G36*
X159160D02*
X157717Y476781D01*
X156369Y475433D01*
X155771Y473990D01*
X159160D01*
Y477379D01*
D02*
G37*
G36*
X324599Y476350D02*
X321210D01*
Y472961D01*
X322653Y473559D01*
X324001Y474907D01*
X324599Y476350D01*
D02*
G37*
G36*
X302670D02*
X299281D01*
X299879Y474907D01*
X301227Y473559D01*
X302670Y472961D01*
Y476350D01*
D02*
G37*
G36*
X357929Y473100D02*
X354270D01*
Y469441D01*
X355855Y470097D01*
X357273Y471515D01*
X357929Y473100D01*
D02*
G37*
G36*
X351730D02*
X348071D01*
X348727Y471515D01*
X350145Y470097D01*
X351730Y469441D01*
Y473100D01*
D02*
G37*
G36*
X165089Y471450D02*
X161700D01*
Y468061D01*
X163143Y468659D01*
X164491Y470007D01*
X165089Y471450D01*
D02*
G37*
G36*
X159160D02*
X155771D01*
X156369Y470007D01*
X157717Y468659D01*
X159160Y468061D01*
Y471450D01*
D02*
G37*
G36*
X318670Y469279D02*
X317227Y468681D01*
X315940Y467394D01*
X314653Y468681D01*
X313210Y469279D01*
Y464620D01*
Y459961D01*
X314653Y460559D01*
X315940Y461846D01*
X317227Y460559D01*
X318670Y459961D01*
Y464620D01*
Y469279D01*
D02*
G37*
G36*
X310670D02*
X309227Y468681D01*
X307940Y467394D01*
X306653Y468681D01*
X305210Y469279D01*
Y464620D01*
Y459961D01*
X306653Y460559D01*
X307940Y461846D01*
X309227Y460559D01*
X310670Y459961D01*
Y464620D01*
Y469279D01*
D02*
G37*
G36*
X321210D02*
Y465890D01*
X324599D01*
X324001Y467333D01*
X322653Y468681D01*
X321210Y469279D01*
D02*
G37*
G36*
X302670D02*
X301227Y468681D01*
X299879Y467333D01*
X299281Y465890D01*
X302670D01*
Y469279D01*
D02*
G37*
G36*
X324599Y463350D02*
X321210D01*
Y459961D01*
X322653Y460559D01*
X324001Y461907D01*
X324599Y463350D01*
D02*
G37*
G36*
X302670D02*
X299281D01*
X299879Y461907D01*
X301227Y460559D01*
X302670Y459961D01*
Y463350D01*
D02*
G37*
G36*
X868000Y477120D02*
X845000D01*
Y454120D01*
X868000D01*
Y477120D01*
D02*
G37*
G36*
X209156Y583470D02*
X206444D01*
X203824Y582768D01*
X201476Y581412D01*
X199558Y579494D01*
X198202Y577146D01*
X197500Y574526D01*
Y571814D01*
X198202Y569194D01*
X199558Y566846D01*
X201476Y564928D01*
X203824Y563572D01*
X206444Y562870D01*
X209156D01*
X211776Y563572D01*
X213265Y564432D01*
X253745Y523951D01*
Y496562D01*
X253059Y495875D01*
X252520Y494574D01*
Y493166D01*
X253059Y491865D01*
X253745Y491178D01*
Y424950D01*
X253922Y424064D01*
X254423Y423313D01*
X257890Y419847D01*
Y419224D01*
X258385Y418029D01*
X259299Y417115D01*
X260494Y416620D01*
X261786D01*
X262981Y417115D01*
X263895Y418029D01*
X264390Y419224D01*
Y420517D01*
X263895Y421711D01*
X262981Y422625D01*
X261786Y423120D01*
X261163D01*
X258375Y425909D01*
Y491178D01*
X259061Y491865D01*
X259600Y493166D01*
Y494574D01*
X259061Y495875D01*
X258375Y496562D01*
Y524910D01*
X258198Y525796D01*
X257697Y526547D01*
X216538Y567705D01*
X217398Y569194D01*
X218100Y571814D01*
Y574526D01*
X217398Y577146D01*
X216042Y579494D01*
X214124Y581412D01*
X211776Y582768D01*
X209156Y583470D01*
D02*
G37*
G36*
X745355Y433200D02*
X743085D01*
X740893Y432613D01*
X738927Y431478D01*
X737322Y429873D01*
X736188Y427907D01*
X735600Y425715D01*
Y423445D01*
X736188Y421253D01*
X737322Y419287D01*
X738927Y417682D01*
X740893Y416548D01*
X743085Y415960D01*
X745355D01*
X747547Y416548D01*
X749513Y417682D01*
X751118Y419287D01*
X752253Y421253D01*
X752840Y423445D01*
Y425715D01*
X752253Y427907D01*
X751118Y429873D01*
X749513Y431478D01*
X747547Y432613D01*
X745355Y433200D01*
D02*
G37*
G36*
X391815Y415020D02*
X389545D01*
X387353Y414432D01*
X385387Y413298D01*
X383782Y411693D01*
X382647Y409727D01*
X382060Y407535D01*
Y405265D01*
X382647Y403073D01*
X383782Y401107D01*
X385387Y399502D01*
X387353Y398368D01*
X389545Y397780D01*
X391815D01*
X394007Y398368D01*
X395973Y399502D01*
X397578Y401107D01*
X398713Y403073D01*
X399300Y405265D01*
Y407535D01*
X398713Y409727D01*
X397578Y411693D01*
X395973Y413298D01*
X394007Y414432D01*
X391815Y415020D01*
D02*
G37*
G36*
X745558Y383940D02*
X745490D01*
Y375050D01*
X754380D01*
Y375118D01*
X753688Y377702D01*
X752350Y380018D01*
X750458Y381910D01*
X748142Y383248D01*
X745558Y383940D01*
D02*
G37*
G36*
X742950D02*
X742882D01*
X740298Y383248D01*
X737982Y381910D01*
X736090Y380018D01*
X734752Y377702D01*
X734060Y375118D01*
Y375050D01*
X742950D01*
Y383940D01*
D02*
G37*
G36*
X41500Y389560D02*
X18500D01*
Y366560D01*
X41500D01*
Y389560D01*
D02*
G37*
G36*
X754380Y372510D02*
X745490D01*
Y363620D01*
X745558D01*
X748142Y364312D01*
X750458Y365650D01*
X752350Y367542D01*
X753688Y369858D01*
X754380Y372442D01*
Y372510D01*
D02*
G37*
G36*
X742950D02*
X734060D01*
Y372442D01*
X734752Y369858D01*
X736090Y367542D01*
X737982Y365650D01*
X740298Y364312D01*
X742882Y363620D01*
X742950D01*
Y372510D01*
D02*
G37*
G36*
X392018Y365760D02*
X391950D01*
Y356870D01*
X400840D01*
Y356938D01*
X400148Y359522D01*
X398810Y361838D01*
X396918Y363730D01*
X394602Y365068D01*
X392018Y365760D01*
D02*
G37*
G36*
X389410D02*
X389342D01*
X386758Y365068D01*
X384442Y363730D01*
X382550Y361838D01*
X381212Y359522D01*
X380520Y356938D01*
Y356870D01*
X389410D01*
Y365760D01*
D02*
G37*
G36*
X400840Y354330D02*
X391950D01*
Y345440D01*
X392018D01*
X394602Y346132D01*
X396918Y347470D01*
X398810Y349362D01*
X400148Y351678D01*
X400840Y354262D01*
Y354330D01*
D02*
G37*
G36*
X389410D02*
X380520D01*
Y354262D01*
X381212Y351678D01*
X382550Y349362D01*
X384442Y347470D01*
X386758Y346132D01*
X389342Y345440D01*
X389410D01*
Y354330D01*
D02*
G37*
G36*
X488950Y347559D02*
Y344170D01*
X492339D01*
X491741Y345613D01*
X490393Y346961D01*
X488950Y347559D01*
D02*
G37*
G36*
X486410D02*
X484967Y346961D01*
X483619Y345613D01*
X483021Y344170D01*
X486410D01*
Y347559D01*
D02*
G37*
G36*
X455930D02*
Y344170D01*
X459319D01*
X458721Y345613D01*
X457373Y346961D01*
X455930Y347559D01*
D02*
G37*
G36*
X453390D02*
X451947Y346961D01*
X450599Y345613D01*
X450001Y344170D01*
X453390D01*
Y347559D01*
D02*
G37*
G36*
X492339Y341630D02*
X488950D01*
Y338241D01*
X490393Y338839D01*
X491741Y340187D01*
X492339Y341630D01*
D02*
G37*
G36*
X486410D02*
X483021D01*
X483619Y340187D01*
X484967Y338839D01*
X486410Y338241D01*
Y341630D01*
D02*
G37*
G36*
X459319D02*
X455930D01*
Y338241D01*
X457373Y338839D01*
X458721Y340187D01*
X459319Y341630D01*
D02*
G37*
G36*
X453390D02*
X450001D01*
X450599Y340187D01*
X451947Y338839D01*
X453390Y338241D01*
Y341630D01*
D02*
G37*
G36*
X31717Y341100D02*
X31270D01*
Y329330D01*
X43040D01*
Y329777D01*
X42151Y333093D01*
X40435Y336067D01*
X38007Y338495D01*
X35033Y340211D01*
X31717Y341100D01*
D02*
G37*
G36*
X28730D02*
X28283D01*
X24967Y340211D01*
X21993Y338495D01*
X19565Y336067D01*
X17849Y333093D01*
X16960Y329777D01*
Y329330D01*
X28730D01*
Y341100D01*
D02*
G37*
G36*
X43040Y326790D02*
X31270D01*
Y315020D01*
X31717D01*
X35033Y315909D01*
X38007Y317625D01*
X40435Y320053D01*
X42151Y323027D01*
X43040Y326343D01*
Y326790D01*
D02*
G37*
G36*
X28730D02*
X16960D01*
Y326343D01*
X17849Y323027D01*
X19565Y320053D01*
X21993Y317625D01*
X24967Y315909D01*
X28283Y315020D01*
X28730D01*
Y326790D01*
D02*
G37*
G36*
X488950Y314539D02*
Y311150D01*
X492339D01*
X491741Y312593D01*
X490393Y313941D01*
X488950Y314539D01*
D02*
G37*
G36*
X486410D02*
X484967Y313941D01*
X483619Y312593D01*
X483021Y311150D01*
X486410D01*
Y314539D01*
D02*
G37*
G36*
X455930D02*
Y311150D01*
X459319D01*
X458721Y312593D01*
X457373Y313941D01*
X455930Y314539D01*
D02*
G37*
G36*
X453390D02*
X451947Y313941D01*
X450599Y312593D01*
X450001Y311150D01*
X453390D01*
Y314539D01*
D02*
G37*
G36*
X134005Y322710D02*
X131735D01*
X129543Y322123D01*
X127577Y320988D01*
X125972Y319383D01*
X124837Y317417D01*
X124250Y315225D01*
Y312955D01*
X124837Y310763D01*
X125972Y308797D01*
X127577Y307192D01*
X129543Y306057D01*
X131735Y305470D01*
X134005D01*
X136197Y306057D01*
X138163Y307192D01*
X139768Y308797D01*
X140903Y310763D01*
X141490Y312955D01*
Y315225D01*
X140903Y317417D01*
X139768Y319383D01*
X138163Y320988D01*
X136197Y322123D01*
X134005Y322710D01*
D02*
G37*
G36*
X108605D02*
X106335D01*
X104143Y322123D01*
X102177Y320988D01*
X100572Y319383D01*
X99437Y317417D01*
X98850Y315225D01*
Y312955D01*
X99437Y310763D01*
X100572Y308797D01*
X102177Y307192D01*
X104143Y306057D01*
X106335Y305470D01*
X108605D01*
X110797Y306057D01*
X112763Y307192D01*
X114368Y308797D01*
X115503Y310763D01*
X116090Y312955D01*
Y315225D01*
X115503Y317417D01*
X114368Y319383D01*
X112763Y320988D01*
X110797Y322123D01*
X108605Y322710D01*
D02*
G37*
G36*
X492339Y308610D02*
X488950D01*
Y305221D01*
X490393Y305819D01*
X491741Y307167D01*
X492339Y308610D01*
D02*
G37*
G36*
X486410D02*
X483021D01*
X483619Y307167D01*
X484967Y305819D01*
X486410Y305221D01*
Y308610D01*
D02*
G37*
G36*
X459319D02*
X455930D01*
Y305221D01*
X457373Y305819D01*
X458721Y307167D01*
X459319Y308610D01*
D02*
G37*
G36*
X453390D02*
X450001D01*
X450599Y307167D01*
X451947Y305819D01*
X453390Y305221D01*
Y308610D01*
D02*
G37*
G36*
X392018Y307340D02*
X391950D01*
Y298450D01*
X400840D01*
Y298518D01*
X400148Y301102D01*
X398810Y303418D01*
X396918Y305310D01*
X394602Y306648D01*
X392018Y307340D01*
D02*
G37*
G36*
X389410D02*
X389342D01*
X386758Y306648D01*
X384442Y305310D01*
X382550Y303418D01*
X381212Y301102D01*
X380520Y298518D01*
Y298450D01*
X389410D01*
Y307340D01*
D02*
G37*
G36*
X400840Y295910D02*
X391950D01*
Y287020D01*
X392018D01*
X394602Y287712D01*
X396918Y289050D01*
X398810Y290942D01*
X400148Y293258D01*
X400840Y295842D01*
Y295910D01*
D02*
G37*
G36*
X389410D02*
X380520D01*
Y295842D01*
X381212Y293258D01*
X382550Y290942D01*
X384442Y289050D01*
X386758Y287712D01*
X389342Y287020D01*
X389410D01*
Y295910D01*
D02*
G37*
G36*
X745558Y292500D02*
X745490D01*
Y283610D01*
X754380D01*
Y283678D01*
X753688Y286262D01*
X752350Y288578D01*
X750458Y290470D01*
X748142Y291808D01*
X745558Y292500D01*
D02*
G37*
G36*
X742950D02*
X742882D01*
X740298Y291808D01*
X737982Y290470D01*
X736090Y288578D01*
X734752Y286262D01*
X734060Y283678D01*
Y283610D01*
X742950D01*
Y292500D01*
D02*
G37*
G36*
X754380Y281070D02*
X745490D01*
Y272180D01*
X745558D01*
X748142Y272872D01*
X750458Y274210D01*
X752350Y276102D01*
X753688Y278418D01*
X754380Y281002D01*
Y281070D01*
D02*
G37*
G36*
X742950D02*
X734060D01*
Y281002D01*
X734752Y278418D01*
X736090Y276102D01*
X737982Y274210D01*
X740298Y272872D01*
X742882Y272180D01*
X742950D01*
Y281070D01*
D02*
G37*
G36*
X31514Y289560D02*
X28486D01*
X25561Y288776D01*
X22939Y287262D01*
X20798Y285121D01*
X19284Y282499D01*
X18500Y279574D01*
Y276546D01*
X19284Y273621D01*
X20798Y270999D01*
X22939Y268858D01*
X25561Y267344D01*
X28486Y266560D01*
X31514D01*
X34439Y267344D01*
X37061Y268858D01*
X39202Y270999D01*
X40716Y273621D01*
X41500Y276546D01*
Y279574D01*
X40716Y282499D01*
X39202Y285121D01*
X37061Y287262D01*
X34439Y288776D01*
X31514Y289560D01*
D02*
G37*
G36*
X391815Y255000D02*
X389545D01*
X387353Y254412D01*
X385387Y253278D01*
X383782Y251673D01*
X382647Y249707D01*
X382060Y247515D01*
Y245245D01*
X382647Y243053D01*
X383782Y241087D01*
X385387Y239482D01*
X387353Y238347D01*
X389545Y237760D01*
X391815D01*
X394007Y238347D01*
X395973Y239482D01*
X397578Y241087D01*
X398713Y243053D01*
X399300Y245245D01*
Y247515D01*
X398713Y249707D01*
X397578Y251673D01*
X395973Y253278D01*
X394007Y254412D01*
X391815Y255000D01*
D02*
G37*
G36*
X134005Y246510D02*
X131735D01*
X129543Y245923D01*
X127577Y244788D01*
X125972Y243183D01*
X124837Y241217D01*
X124250Y239025D01*
Y236755D01*
X124837Y234563D01*
X125972Y232597D01*
X127577Y230992D01*
X129543Y229858D01*
X131735Y229270D01*
X134005D01*
X136197Y229858D01*
X138163Y230992D01*
X139768Y232597D01*
X140903Y234563D01*
X141490Y236755D01*
Y239025D01*
X140903Y241217D01*
X139768Y243183D01*
X138163Y244788D01*
X136197Y245923D01*
X134005Y246510D01*
D02*
G37*
G36*
X108605D02*
X106335D01*
X104143Y245923D01*
X102177Y244788D01*
X100572Y243183D01*
X99437Y241217D01*
X98850Y239025D01*
Y236755D01*
X99437Y234563D01*
X100572Y232597D01*
X102177Y230992D01*
X104143Y229858D01*
X106335Y229270D01*
X108605D01*
X110797Y229858D01*
X112763Y230992D01*
X114368Y232597D01*
X115503Y234563D01*
X116090Y236755D01*
Y239025D01*
X115503Y241217D01*
X114368Y243183D01*
X112763Y244788D01*
X110797Y245923D01*
X108605Y246510D01*
D02*
G37*
G36*
X745355Y240160D02*
X743085D01*
X740893Y239573D01*
X738927Y238438D01*
X737322Y236833D01*
X736188Y234867D01*
X735600Y232675D01*
Y230405D01*
X736188Y228213D01*
X737322Y226247D01*
X738927Y224642D01*
X740893Y223507D01*
X743085Y222920D01*
X745355D01*
X747547Y223507D01*
X749513Y224642D01*
X751118Y226247D01*
X752253Y228213D01*
X752840Y230405D01*
Y232675D01*
X752253Y234867D01*
X751118Y236833D01*
X749513Y238438D01*
X747547Y239573D01*
X745355Y240160D01*
D02*
G37*
G36*
X374496Y216982D02*
X358466D01*
X358174Y216862D01*
X357864Y216800D01*
X357803Y216708D01*
X357700Y216665D01*
X357579Y216374D01*
X357404Y216111D01*
X357205Y215111D01*
X357244Y214914D01*
X357231Y214881D01*
X357267Y214794D01*
X357267Y214730D01*
X356495Y213989D01*
X356471Y213977D01*
X356470Y213977D01*
X356246Y214070D01*
X354953D01*
X354729Y213977D01*
X354729Y213977D01*
X354705Y213989D01*
X353933Y214730D01*
X353933Y214794D01*
X353969Y214881D01*
X353955Y214914D01*
X353995Y215111D01*
X353796Y216111D01*
X353620Y216374D01*
X353500Y216665D01*
X353397Y216708D01*
X353336Y216800D01*
X353026Y216862D01*
X352734Y216982D01*
X345655D01*
X345456Y216900D01*
X345241Y216900D01*
X345089Y216748D01*
X344890Y216665D01*
X344871Y216619D01*
X344721Y216469D01*
X344675Y216450D01*
X344592Y216251D01*
X344440Y216099D01*
Y216058D01*
X344413Y216027D01*
X344413Y216027D01*
X344426Y215849D01*
X344358Y215685D01*
Y200875D01*
X344440Y200676D01*
Y200461D01*
X344592Y200093D01*
X344744Y199941D01*
X344827Y199742D01*
X362138Y182432D01*
X362138Y182432D01*
X362138Y147768D01*
X321967Y107598D01*
X321884Y107399D01*
X321732Y107246D01*
X321580Y106879D01*
Y106664D01*
X321498Y106465D01*
Y20207D01*
X321580Y20008D01*
X321580Y19792D01*
X321732Y19640D01*
X321815Y19442D01*
X321861Y19422D01*
X322011Y19273D01*
X322030Y19226D01*
X322229Y19144D01*
X322381Y18992D01*
X322422D01*
X322453Y18965D01*
X322453Y18965D01*
X322631Y18978D01*
X322795Y18909D01*
X329727D01*
X329988Y19017D01*
X330268Y19054D01*
X330357Y19170D01*
X330493Y19226D01*
X330601Y19487D01*
X330773Y19712D01*
X331031Y20677D01*
X330994Y20958D01*
X331000Y20996D01*
X331812Y21593D01*
X331916Y21622D01*
X332501Y21284D01*
X335426Y20500D01*
X338454D01*
X341379Y21284D01*
X341964Y21622D01*
X342068Y21593D01*
X342880Y20996D01*
X342885Y20958D01*
X342849Y20677D01*
X343107Y19712D01*
X343279Y19487D01*
X343387Y19226D01*
X343523Y19170D01*
X343612Y19054D01*
X343892Y19017D01*
X344153Y18909D01*
X376495D01*
X376694Y18992D01*
X376909Y18992D01*
X377061Y19144D01*
X377260Y19226D01*
X377279Y19273D01*
X377429Y19422D01*
X377475Y19442D01*
X377558Y19641D01*
X377710Y19793D01*
Y19834D01*
X377737Y19865D01*
X377737Y19865D01*
X377724Y20043D01*
X377792Y20207D01*
Y113500D01*
X377985Y113893D01*
X378600Y114418D01*
X469900D01*
X470665Y114735D01*
X470982Y115500D01*
Y164418D01*
X470758Y164959D01*
X470982Y165500D01*
Y215500D01*
X470665Y216265D01*
X469900Y216582D01*
X376710D01*
X376184Y216364D01*
X376060Y216492D01*
X375341Y216806D01*
X375331Y216806D01*
X375143Y216888D01*
X374937Y216892D01*
X374928Y216896D01*
X374919Y216896D01*
X374919Y216896D01*
X374910Y216900D01*
X374900D01*
X374710Y216979D01*
X374505D01*
X374496Y216982D01*
D02*
G37*
G36*
X267970Y205319D02*
Y201930D01*
X271359D01*
X270761Y203373D01*
X269413Y204721D01*
X267970Y205319D01*
D02*
G37*
G36*
X265430D02*
X263987Y204721D01*
X262639Y203373D01*
X262041Y201930D01*
X265430D01*
Y205319D01*
D02*
G37*
G36*
X230660Y202109D02*
Y198720D01*
X234049D01*
X233451Y200163D01*
X232103Y201511D01*
X230660Y202109D01*
D02*
G37*
G36*
X228120D02*
X226677Y201511D01*
X225329Y200163D01*
X224731Y198720D01*
X228120D01*
Y202109D01*
D02*
G37*
G36*
X318670Y196159D02*
X317227Y195561D01*
X315940Y194274D01*
X314653Y195561D01*
X313210Y196159D01*
Y191500D01*
Y186841D01*
X314653Y187439D01*
X315940Y188726D01*
X317227Y187439D01*
X318670Y186841D01*
Y191500D01*
Y196159D01*
D02*
G37*
G36*
X310670D02*
X309227Y195561D01*
X307940Y194274D01*
X306653Y195561D01*
X305210Y196159D01*
Y191500D01*
Y186841D01*
X306653Y187439D01*
X307940Y188726D01*
X309227Y187439D01*
X310670Y186841D01*
Y191500D01*
Y196159D01*
D02*
G37*
G36*
X234049Y196180D02*
X230660D01*
Y192791D01*
X232103Y193389D01*
X233451Y194737D01*
X234049Y196180D01*
D02*
G37*
G36*
X228120D02*
X224731D01*
X225329Y194737D01*
X226677Y193389D01*
X228120Y192791D01*
Y196180D01*
D02*
G37*
G36*
X321210Y196159D02*
Y192770D01*
X324599D01*
X324001Y194213D01*
X322653Y195561D01*
X321210Y196159D01*
D02*
G37*
G36*
X302670D02*
X301227Y195561D01*
X299879Y194213D01*
X299281Y192770D01*
X302670D01*
Y196159D01*
D02*
G37*
G36*
X271359Y199390D02*
X262041D01*
X262639Y197947D01*
X263987Y196599D01*
X265141Y196121D01*
Y195039D01*
X263987Y194561D01*
X262639Y193213D01*
X262041Y191770D01*
X271359D01*
X270761Y193213D01*
X269413Y194561D01*
X268259Y195039D01*
Y196121D01*
X269413Y196599D01*
X270761Y197947D01*
X271359Y199390D01*
D02*
G37*
G36*
X324599Y190230D02*
X321210D01*
Y186841D01*
X322653Y187439D01*
X324001Y188787D01*
X324599Y190230D01*
D02*
G37*
G36*
X302670D02*
X299281D01*
X299879Y188787D01*
X301227Y187439D01*
X302670Y186841D01*
Y190230D01*
D02*
G37*
G36*
X271359Y189230D02*
X267970D01*
Y185841D01*
X269413Y186439D01*
X270761Y187787D01*
X271359Y189230D01*
D02*
G37*
G36*
X265430D02*
X262041D01*
X262639Y187787D01*
X263987Y186439D01*
X265430Y185841D01*
Y189230D01*
D02*
G37*
G36*
X211610Y189109D02*
Y185720D01*
X214999D01*
X214401Y187163D01*
X213053Y188511D01*
X211610Y189109D01*
D02*
G37*
G36*
X209070D02*
X207627Y188511D01*
X206279Y187163D01*
X205681Y185720D01*
X209070D01*
Y189109D01*
D02*
G37*
G36*
X354270Y186679D02*
Y183020D01*
X357929D01*
X357273Y184605D01*
X355855Y186023D01*
X354270Y186679D01*
D02*
G37*
G36*
X351730D02*
X350145Y186023D01*
X348727Y184605D01*
X348071Y183020D01*
X351730D01*
Y186679D01*
D02*
G37*
G36*
X318670Y183159D02*
X317227Y182561D01*
X315940Y181274D01*
X314653Y182561D01*
X313210Y183159D01*
Y178500D01*
Y173841D01*
X314653Y174439D01*
X315940Y175726D01*
X317227Y174439D01*
X318670Y173841D01*
Y178500D01*
Y183159D01*
D02*
G37*
G36*
X310670D02*
X309227Y182561D01*
X307940Y181274D01*
X306653Y182561D01*
X305210Y183159D01*
Y178500D01*
Y173841D01*
X306653Y174439D01*
X307940Y175726D01*
X309227Y174439D01*
X310670Y173841D01*
Y178500D01*
Y183159D01*
D02*
G37*
G36*
X214999Y183180D02*
X211610D01*
Y179792D01*
X213053Y180389D01*
X214401Y181737D01*
X214999Y183180D01*
D02*
G37*
G36*
X209070D02*
X205681D01*
X206279Y181737D01*
X207627Y180389D01*
X209070Y179792D01*
Y183180D01*
D02*
G37*
G36*
X321210Y183159D02*
Y179770D01*
X324599D01*
X324001Y181213D01*
X322653Y182561D01*
X321210Y183159D01*
D02*
G37*
G36*
X302670D02*
X301227Y182561D01*
X299879Y181213D01*
X299281Y179770D01*
X302670D01*
Y183159D01*
D02*
G37*
G36*
X858014Y202000D02*
X854986D01*
X852061Y201216D01*
X849439Y199702D01*
X847298Y197561D01*
X845784Y194939D01*
X845000Y192014D01*
Y188986D01*
X845784Y186061D01*
X847298Y183439D01*
X849439Y181298D01*
X852061Y179784D01*
X854986Y179000D01*
X858014D01*
X860939Y179784D01*
X863561Y181298D01*
X865702Y183439D01*
X867216Y186061D01*
X868000Y188986D01*
Y192014D01*
X867216Y194939D01*
X865702Y197561D01*
X863561Y199702D01*
X860939Y201216D01*
X858014Y202000D01*
D02*
G37*
G36*
X357929Y180480D02*
X354270D01*
Y176821D01*
X355855Y177477D01*
X357273Y178895D01*
X357929Y180480D01*
D02*
G37*
G36*
X351730D02*
X348071D01*
X348727Y178895D01*
X350145Y177477D01*
X351730Y176821D01*
Y180480D01*
D02*
G37*
G36*
X134140Y178489D02*
Y175100D01*
X137529D01*
X136931Y176543D01*
X135583Y177891D01*
X134140Y178489D01*
D02*
G37*
G36*
X131600D02*
X130157Y177891D01*
X128809Y176543D01*
X128211Y175100D01*
X131600D01*
Y178489D01*
D02*
G37*
G36*
X108740D02*
Y175100D01*
X112129D01*
X111531Y176543D01*
X110183Y177891D01*
X108740Y178489D01*
D02*
G37*
G36*
X106200D02*
X104757Y177891D01*
X103409Y176543D01*
X102811Y175100D01*
X106200D01*
Y178489D01*
D02*
G37*
G36*
X324599Y177230D02*
X321210D01*
Y173841D01*
X322653Y174439D01*
X324001Y175787D01*
X324599Y177230D01*
D02*
G37*
G36*
X302670D02*
X299281D01*
X299879Y175787D01*
X301227Y174439D01*
X302670Y173841D01*
Y177230D01*
D02*
G37*
G36*
X137529Y172560D02*
X134140D01*
Y169171D01*
X135583Y169769D01*
X136931Y171117D01*
X137529Y172560D01*
D02*
G37*
G36*
X131600D02*
X128211D01*
X128809Y171117D01*
X130157Y169769D01*
X131600Y169171D01*
Y172560D01*
D02*
G37*
G36*
X112129D02*
X108740D01*
Y169171D01*
X110183Y169769D01*
X111531Y171117D01*
X112129Y172560D01*
D02*
G37*
G36*
X106200D02*
X102811D01*
X103409Y171117D01*
X104757Y169769D01*
X106200Y169171D01*
Y172560D01*
D02*
G37*
G36*
X318670Y170159D02*
X317227Y169561D01*
X315940Y168274D01*
X314653Y169561D01*
X313210Y170159D01*
Y165500D01*
Y160841D01*
X314653Y161439D01*
X315940Y162726D01*
X317227Y161439D01*
X318670Y160841D01*
Y165500D01*
Y170159D01*
D02*
G37*
G36*
X310670D02*
X309227Y169561D01*
X307940Y168274D01*
X306653Y169561D01*
X305210Y170159D01*
Y165500D01*
Y160841D01*
X306653Y161439D01*
X307940Y162726D01*
X309227Y161439D01*
X310670Y160841D01*
Y165500D01*
Y170159D01*
D02*
G37*
G36*
X321210D02*
Y166770D01*
X324599D01*
X324001Y168213D01*
X322653Y169561D01*
X321210Y170159D01*
D02*
G37*
G36*
X302670D02*
X301227Y169561D01*
X299879Y168213D01*
X299281Y166770D01*
X302670D01*
Y170159D01*
D02*
G37*
G36*
X272913Y166909D02*
Y163520D01*
X276302D01*
X275704Y164963D01*
X274356Y166311D01*
X272913Y166909D01*
D02*
G37*
G36*
X270373D02*
X268930Y166311D01*
X267582Y164963D01*
X266985Y163520D01*
X270373D01*
Y166909D01*
D02*
G37*
G36*
X324599Y164230D02*
X321210D01*
Y160841D01*
X322653Y161439D01*
X324001Y162787D01*
X324599Y164230D01*
D02*
G37*
G36*
X302670D02*
X299281D01*
X299879Y162787D01*
X301227Y161439D01*
X302670Y160841D01*
Y164230D01*
D02*
G37*
G36*
X276302Y160980D02*
X272913D01*
Y157591D01*
X274356Y158189D01*
X275704Y159537D01*
X276302Y160980D01*
D02*
G37*
G36*
X270373D02*
X266985D01*
X267582Y159537D01*
X268930Y158189D01*
X270373Y157591D01*
Y160980D01*
D02*
G37*
G36*
X318670Y157159D02*
X317227Y156561D01*
X315940Y155274D01*
X314653Y156561D01*
X313210Y157159D01*
Y152500D01*
Y147841D01*
X314653Y148439D01*
X315940Y149726D01*
X317227Y148439D01*
X318670Y147841D01*
Y152500D01*
Y157159D01*
D02*
G37*
G36*
X310670D02*
X309227Y156561D01*
X307940Y155274D01*
X306653Y156561D01*
X305210Y157159D01*
Y152500D01*
Y147841D01*
X306653Y148439D01*
X307940Y149726D01*
X309227Y148439D01*
X310670Y147841D01*
Y152500D01*
Y157159D01*
D02*
G37*
G36*
X321210D02*
Y153770D01*
X324599D01*
X324001Y155213D01*
X322653Y156561D01*
X321210Y157159D01*
D02*
G37*
G36*
X302670D02*
X301227Y156561D01*
X299879Y155213D01*
X299281Y153770D01*
X302670D01*
Y157159D01*
D02*
G37*
G36*
X354270Y154179D02*
Y150520D01*
X357929D01*
X357273Y152105D01*
X355855Y153523D01*
X354270Y154179D01*
D02*
G37*
G36*
X351730D02*
X350145Y153523D01*
X348727Y152105D01*
X348071Y150520D01*
X351730D01*
Y154179D01*
D02*
G37*
G36*
X161700Y152009D02*
Y148620D01*
X165089D01*
X164491Y150063D01*
X163143Y151411D01*
X161700Y152009D01*
D02*
G37*
G36*
X159160D02*
X157717Y151411D01*
X156369Y150063D01*
X155771Y148620D01*
X159160D01*
Y152009D01*
D02*
G37*
G36*
X324599Y151230D02*
X321210D01*
Y147841D01*
X322653Y148439D01*
X324001Y149787D01*
X324599Y151230D01*
D02*
G37*
G36*
X302670D02*
X299281D01*
X299879Y149787D01*
X301227Y148439D01*
X302670Y147841D01*
Y151230D01*
D02*
G37*
G36*
X357929Y147980D02*
X354270D01*
Y144321D01*
X355855Y144977D01*
X357273Y146395D01*
X357929Y147980D01*
D02*
G37*
G36*
X351730D02*
X348071D01*
X348727Y146395D01*
X350145Y144977D01*
X351730Y144321D01*
Y147980D01*
D02*
G37*
G36*
X165089Y146080D02*
X161700D01*
Y142691D01*
X163143Y143289D01*
X164491Y144637D01*
X165089Y146080D01*
D02*
G37*
G36*
X159160D02*
X155771D01*
X156369Y144637D01*
X157717Y143289D01*
X159160Y142691D01*
Y146080D01*
D02*
G37*
G36*
X318670Y144159D02*
X317227Y143561D01*
X315940Y142274D01*
X314653Y143561D01*
X313210Y144159D01*
Y139500D01*
Y134841D01*
X314653Y135439D01*
X315940Y136726D01*
X317227Y135439D01*
X318670Y134841D01*
Y139500D01*
Y144159D01*
D02*
G37*
G36*
X310670D02*
X309227Y143561D01*
X307940Y142274D01*
X306653Y143561D01*
X305210Y144159D01*
Y139500D01*
Y134841D01*
X306653Y135439D01*
X307940Y136726D01*
X309227Y135439D01*
X310670Y134841D01*
Y139500D01*
Y144159D01*
D02*
G37*
G36*
X321210D02*
Y140770D01*
X324599D01*
X324001Y142213D01*
X322653Y143561D01*
X321210Y144159D01*
D02*
G37*
G36*
X302670D02*
X301227Y143561D01*
X299879Y142213D01*
X299281Y140770D01*
X302670D01*
Y144159D01*
D02*
G37*
G36*
X324599Y138230D02*
X321210D01*
Y134841D01*
X322653Y135439D01*
X324001Y136787D01*
X324599Y138230D01*
D02*
G37*
G36*
X302670D02*
X299281D01*
X299879Y136787D01*
X301227Y135439D01*
X302670Y134841D01*
Y138230D01*
D02*
G37*
G36*
X868000Y152000D02*
X845000D01*
Y129000D01*
X868000D01*
Y152000D01*
D02*
G37*
G36*
X750435Y108080D02*
X748165D01*
X745973Y107493D01*
X744007Y106358D01*
X742402Y104753D01*
X741267Y102787D01*
X740680Y100595D01*
Y98325D01*
X741267Y96133D01*
X742402Y94167D01*
X744007Y92562D01*
X745973Y91427D01*
X748165Y90840D01*
X750435D01*
X752627Y91427D01*
X754593Y92562D01*
X756198Y94167D01*
X757333Y96133D01*
X757920Y98325D01*
Y100595D01*
X757333Y102787D01*
X756198Y104753D01*
X754593Y106358D01*
X752627Y107493D01*
X750435Y108080D01*
D02*
G37*
G36*
X150540Y87459D02*
Y84070D01*
X153929D01*
X153331Y85513D01*
X151983Y86861D01*
X150540Y87459D01*
D02*
G37*
G36*
X148000D02*
X146557Y86861D01*
X145209Y85513D01*
X144611Y84070D01*
X148000D01*
Y87459D01*
D02*
G37*
G36*
X153929Y81530D02*
X150540D01*
Y78141D01*
X151983Y78739D01*
X153331Y80087D01*
X153929Y81530D01*
D02*
G37*
G36*
X148000D02*
X144611D01*
X145209Y80087D01*
X146557Y78739D01*
X148000Y78141D01*
Y81530D01*
D02*
G37*
G36*
X422498Y85490D02*
X422430D01*
Y76600D01*
X431320D01*
Y76668D01*
X430628Y79252D01*
X429290Y81568D01*
X427398Y83460D01*
X425082Y84798D01*
X422498Y85490D01*
D02*
G37*
G36*
X419890D02*
X419822D01*
X417238Y84798D01*
X414922Y83460D01*
X413030Y81568D01*
X411692Y79252D01*
X411000Y76668D01*
Y76600D01*
X419890D01*
Y85490D01*
D02*
G37*
G36*
X256764Y172290D02*
X255356D01*
X254055Y171751D01*
X253059Y170755D01*
X252520Y169454D01*
Y168046D01*
X253059Y166745D01*
X253745Y166058D01*
Y156299D01*
X217163Y119717D01*
X216662Y118966D01*
X216486Y118080D01*
Y92843D01*
X214824Y92398D01*
X212476Y91042D01*
X210558Y89124D01*
X209202Y86776D01*
X208500Y84156D01*
Y81444D01*
X209202Y78824D01*
X210558Y76476D01*
X212476Y74558D01*
X214824Y73202D01*
X217444Y72500D01*
X220156D01*
X222776Y73202D01*
X225124Y74558D01*
X227042Y76476D01*
X228398Y78824D01*
X229100Y81444D01*
Y84156D01*
X228398Y86776D01*
X227042Y89124D01*
X225124Y91042D01*
X222776Y92398D01*
X221115Y92843D01*
Y117121D01*
X257697Y153703D01*
X258198Y154454D01*
X258375Y155340D01*
Y166058D01*
X259061Y166745D01*
X259600Y168046D01*
Y169454D01*
X259061Y170755D01*
X258065Y171751D01*
X256764Y172290D01*
D02*
G37*
G36*
X431320Y74060D02*
X422430D01*
Y65170D01*
X422498D01*
X425082Y65862D01*
X427398Y67200D01*
X429290Y69092D01*
X430628Y71408D01*
X431320Y73992D01*
Y74060D01*
D02*
G37*
G36*
X419890D02*
X411000D01*
Y73992D01*
X411692Y71408D01*
X413030Y69092D01*
X414922Y67200D01*
X417238Y65862D01*
X419822Y65170D01*
X419890D01*
Y74060D01*
D02*
G37*
G36*
X220359Y69240D02*
X220070D01*
Y58670D01*
X230640D01*
Y58959D01*
X229833Y61970D01*
X228274Y64670D01*
X226070Y66874D01*
X223370Y68433D01*
X220359Y69240D01*
D02*
G37*
G36*
X217530D02*
X217241D01*
X214230Y68433D01*
X211530Y66874D01*
X209326Y64670D01*
X207767Y61970D01*
X206960Y58959D01*
Y58670D01*
X217530D01*
Y69240D01*
D02*
G37*
G36*
X491010Y59889D02*
Y56500D01*
X494399D01*
X493801Y57943D01*
X492453Y59291D01*
X491010Y59889D01*
D02*
G37*
G36*
X488470D02*
X487027Y59291D01*
X485679Y57943D01*
X485081Y56500D01*
X488470D01*
Y59889D01*
D02*
G37*
G36*
X517680Y57889D02*
Y54500D01*
X521069D01*
X520471Y55943D01*
X519123Y57291D01*
X517680Y57889D01*
D02*
G37*
G36*
X515140D02*
X513697Y57291D01*
X512349Y55943D01*
X511751Y54500D01*
X515140D01*
Y57889D01*
D02*
G37*
G36*
X494399Y53960D02*
X491010D01*
Y50571D01*
X492453Y51169D01*
X493801Y52517D01*
X494399Y53960D01*
D02*
G37*
G36*
X488470D02*
X485081D01*
X485679Y52517D01*
X487027Y51169D01*
X488470Y50571D01*
Y53960D01*
D02*
G37*
G36*
X750638Y58820D02*
X750570D01*
Y49930D01*
X759460D01*
Y49998D01*
X758768Y52582D01*
X757430Y54898D01*
X755538Y56790D01*
X753222Y58128D01*
X750638Y58820D01*
D02*
G37*
G36*
X748030D02*
X747962D01*
X745378Y58128D01*
X743062Y56790D01*
X741170Y54898D01*
X739832Y52582D01*
X739140Y49998D01*
Y49930D01*
X748030D01*
Y58820D01*
D02*
G37*
G36*
X521069Y51960D02*
X517680D01*
Y48572D01*
X519123Y49169D01*
X520471Y50517D01*
X521069Y51960D01*
D02*
G37*
G36*
X515140D02*
X511751D01*
X512349Y50517D01*
X513697Y49169D01*
X515140Y48572D01*
Y51960D01*
D02*
G37*
G36*
X230640Y56130D02*
X220070D01*
Y45560D01*
X220359D01*
X223370Y46367D01*
X226070Y47926D01*
X228274Y50130D01*
X229833Y52830D01*
X230640Y55841D01*
Y56130D01*
D02*
G37*
G36*
X217530D02*
X206960D01*
Y55841D01*
X207767Y52830D01*
X209326Y50130D01*
X211530Y47926D01*
X214230Y46367D01*
X217241Y45560D01*
X217530D01*
Y56130D01*
D02*
G37*
G36*
X759460Y47390D02*
X750570D01*
Y38500D01*
X750638D01*
X753222Y39192D01*
X755538Y40530D01*
X757430Y42422D01*
X758768Y44738D01*
X759460Y47322D01*
Y47390D01*
D02*
G37*
G36*
X748030D02*
X739140D01*
Y47322D01*
X739832Y44738D01*
X741170Y42422D01*
X743062Y40530D01*
X745378Y39192D01*
X747962Y38500D01*
X748030D01*
Y47390D01*
D02*
G37*
G36*
X299980Y45040D02*
X288210D01*
Y33270D01*
X299980D01*
Y45040D01*
D02*
G37*
G36*
X285670D02*
X273900D01*
Y33270D01*
X285670D01*
Y45040D01*
D02*
G37*
G36*
X150540Y36659D02*
Y33270D01*
X153929D01*
X153331Y34713D01*
X151983Y36061D01*
X150540Y36659D01*
D02*
G37*
G36*
X148000D02*
X146557Y36061D01*
X145209Y34713D01*
X144611Y33270D01*
X148000D01*
Y36659D01*
D02*
G37*
G36*
X153929Y30730D02*
X150540D01*
Y27341D01*
X151983Y27939D01*
X153331Y29287D01*
X153929Y30730D01*
D02*
G37*
G36*
X148000D02*
X144611D01*
X145209Y29287D01*
X146557Y27939D01*
X148000Y27341D01*
Y30730D01*
D02*
G37*
G36*
X229100Y42300D02*
X208500D01*
Y21700D01*
X229100D01*
Y42300D01*
D02*
G37*
G36*
X299980Y30730D02*
X288210D01*
Y18960D01*
X299980D01*
Y30730D01*
D02*
G37*
G36*
X285670D02*
X273900D01*
Y18960D01*
X285670D01*
Y30730D01*
D02*
G37*
G36*
X422295Y33150D02*
X420025D01*
X417833Y32563D01*
X415867Y31428D01*
X414262Y29823D01*
X413127Y27857D01*
X412540Y25665D01*
Y23395D01*
X413127Y21203D01*
X414262Y19237D01*
X415867Y17632D01*
X417833Y16497D01*
X420025Y15910D01*
X422295D01*
X424487Y16497D01*
X426453Y17632D01*
X428058Y19237D01*
X429193Y21203D01*
X429780Y23395D01*
Y25665D01*
X429193Y27857D01*
X428058Y29823D01*
X426453Y31428D01*
X424487Y32563D01*
X422295Y33150D01*
D02*
G37*
%LPD*%
G36*
X311689Y636069D02*
X311752Y635916D01*
Y600288D01*
X343004Y569037D01*
X373938Y538102D01*
X373938Y538102D01*
X375628Y536413D01*
Y490620D01*
Y489538D01*
Y444005D01*
X366702Y435080D01*
X366335Y434928D01*
X339647D01*
X339279Y435080D01*
X338950Y435410D01*
X338798Y435777D01*
Y446262D01*
X338950Y446630D01*
X362683Y470363D01*
X362683Y470363D01*
X363000Y470680D01*
Y510680D01*
X338950Y534730D01*
X338798Y535098D01*
Y539702D01*
X336921D01*
X336554Y539854D01*
X318131Y558276D01*
X299557Y576851D01*
X299557Y576851D01*
X299240Y577168D01*
X262177D01*
X261809Y577320D01*
X261480Y577650D01*
X261328Y578017D01*
Y635916D01*
X261391Y636069D01*
X261543Y636132D01*
X279733D01*
X279992Y635166D01*
X278933Y634555D01*
X276505Y632127D01*
X274789Y629153D01*
X273900Y625837D01*
Y625390D01*
X286940D01*
X299980D01*
Y625837D01*
X299091Y629153D01*
X297375Y632127D01*
X294947Y634555D01*
X293888Y635166D01*
X294147Y636132D01*
X311537D01*
X311689Y636069D01*
D02*
G37*
G36*
X469900Y490620D02*
X376710D01*
Y540620D01*
X469900D01*
Y490620D01*
D02*
G37*
G36*
Y489322D02*
Y440835D01*
X469837Y440683D01*
X469685Y440620D01*
X376925D01*
X376773Y440683D01*
X376710Y440835D01*
Y441168D01*
Y489538D01*
X469811D01*
X469900Y489322D01*
D02*
G37*
%LPC*%
G36*
X299980Y622850D02*
X288210D01*
Y611080D01*
X288657D01*
X291973Y611969D01*
X294947Y613685D01*
X297375Y616113D01*
X299091Y619087D01*
X299980Y622403D01*
Y622850D01*
D02*
G37*
G36*
X285670D02*
X273900D01*
Y622403D01*
X274789Y619087D01*
X276505Y616113D01*
X278933Y613685D01*
X281907Y611969D01*
X285223Y611080D01*
X285670D01*
Y622850D01*
D02*
G37*
G36*
X356870Y543139D02*
Y539750D01*
X360259D01*
X359661Y541193D01*
X358313Y542541D01*
X356870Y543139D01*
D02*
G37*
G36*
X354330D02*
X352887Y542541D01*
X351539Y541193D01*
X350941Y539750D01*
X354330D01*
Y543139D01*
D02*
G37*
G36*
X360259Y537210D02*
X350941D01*
X351539Y535767D01*
X352636Y534670D01*
X351539Y533573D01*
X350941Y532130D01*
X360259D01*
X359661Y533573D01*
X358564Y534670D01*
X359661Y535767D01*
X360259Y537210D01*
D02*
G37*
G36*
Y529590D02*
X356870D01*
Y526201D01*
X358313Y526799D01*
X359661Y528147D01*
X360259Y529590D01*
D02*
G37*
G36*
X354330D02*
X350941D01*
X351539Y528147D01*
X352887Y526799D01*
X354330Y526201D01*
Y529590D01*
D02*
G37*
G36*
X356870Y454239D02*
Y450850D01*
X360259D01*
X359661Y452293D01*
X358313Y453641D01*
X356870Y454239D01*
D02*
G37*
G36*
X354330D02*
X352887Y453641D01*
X351539Y452293D01*
X350941Y450850D01*
X354330D01*
Y454239D01*
D02*
G37*
G36*
X360259Y448310D02*
X350941D01*
X351539Y446867D01*
X352636Y445770D01*
X351539Y444673D01*
X350941Y443230D01*
X360259D01*
X359661Y444673D01*
X358564Y445770D01*
X359661Y446867D01*
X360259Y448310D01*
D02*
G37*
G36*
Y440690D02*
X356870D01*
Y437301D01*
X358313Y437899D01*
X359661Y439247D01*
X360259Y440690D01*
D02*
G37*
G36*
X354330D02*
X350941D01*
X351539Y439247D01*
X352887Y437899D01*
X354330Y437301D01*
Y440690D01*
D02*
G37*
%LPD*%
G36*
X374505Y215896D02*
X374710D01*
X374898Y215814D01*
X374908Y215814D01*
X375628Y215500D01*
Y165715D01*
X375710Y165516D01*
Y165301D01*
X375799Y165086D01*
X375811Y165070D01*
X376027Y164090D01*
X375945Y163891D01*
Y163676D01*
X375862Y163477D01*
Y163477D01*
X375710Y163109D01*
Y162894D01*
X375628Y162695D01*
Y115715D01*
X375710Y115516D01*
Y115301D01*
X375773Y115149D01*
X375773Y115149D01*
X375925Y114997D01*
X375945Y114950D01*
X375991Y114931D01*
X376141Y114781D01*
X376160Y114735D01*
X376207Y114715D01*
X376359Y114563D01*
X376630Y113904D01*
X376710Y113500D01*
Y20207D01*
X376710Y20207D01*
X376663Y20188D01*
X376514Y20038D01*
X376495Y19992D01*
X344153D01*
X343894Y20958D01*
X344947Y21565D01*
X347375Y23993D01*
X349091Y26967D01*
X349980Y30283D01*
Y30730D01*
X323900D01*
Y30283D01*
X324789Y26967D01*
X326505Y23993D01*
X328933Y21565D01*
X329986Y20958D01*
X329727Y19992D01*
X322795D01*
X322795Y19992D01*
X322776Y20038D01*
X322626Y20188D01*
X322580Y20207D01*
Y106465D01*
X322732Y106832D01*
X362903Y147003D01*
X362903Y147003D01*
X363220Y147320D01*
X363220Y182432D01*
X363220Y182432D01*
X363220Y182432D01*
Y182880D01*
X345592Y200508D01*
X345440Y200875D01*
Y215685D01*
X345440Y215685D01*
X345487Y215704D01*
X345636Y215853D01*
X345655Y215900D01*
X352734D01*
X352933Y214900D01*
X352887Y214881D01*
X351539Y213533D01*
X350941Y212090D01*
X360259D01*
X359661Y213533D01*
X358313Y214881D01*
X358267Y214900D01*
X358466Y215900D01*
X374496D01*
X374505Y215896D01*
D02*
G37*
G36*
X469900Y165500D02*
X376799D01*
X376710Y165715D01*
Y215500D01*
Y215500D01*
X469900D01*
Y165500D01*
D02*
G37*
G36*
Y115500D02*
X376925D01*
X376773Y115563D01*
X376710Y115715D01*
Y162695D01*
X376945Y163261D01*
Y163477D01*
X377027Y163676D01*
Y163710D01*
X377734Y164418D01*
X469900D01*
Y115500D01*
D02*
G37*
%LPC*%
G36*
X360259Y209550D02*
X350941D01*
X351539Y208107D01*
X351463Y207723D01*
X350347Y207261D01*
X348999Y205913D01*
X348401Y204470D01*
X357719D01*
X357121Y205913D01*
X357197Y206297D01*
X358313Y206759D01*
X359661Y208107D01*
X360259Y209550D01*
D02*
G37*
G36*
X357719Y201930D02*
X354330D01*
Y198541D01*
X355773Y199139D01*
X357121Y200487D01*
X357719Y201930D01*
D02*
G37*
G36*
X351790D02*
X348401D01*
X348999Y200487D01*
X350347Y199139D01*
X351790Y198541D01*
Y201930D01*
D02*
G37*
G36*
X356870Y129119D02*
Y125730D01*
X360259D01*
X359661Y127173D01*
X358313Y128521D01*
X356870Y129119D01*
D02*
G37*
G36*
X354330D02*
X352887Y128521D01*
X351539Y127173D01*
X350941Y125730D01*
X354330D01*
Y129119D01*
D02*
G37*
G36*
X360259Y123190D02*
X350941D01*
X351539Y121747D01*
X351463Y121363D01*
X350347Y120901D01*
X348999Y119553D01*
X348401Y118110D01*
X357719D01*
X357121Y119553D01*
X357197Y119937D01*
X358313Y120399D01*
X359661Y121747D01*
X360259Y123190D01*
D02*
G37*
G36*
X357719Y115570D02*
X354330D01*
Y112181D01*
X355773Y112779D01*
X357121Y114127D01*
X357719Y115570D01*
D02*
G37*
G36*
X351790D02*
X348401D01*
X348999Y114127D01*
X350347Y112779D01*
X351790Y112181D01*
Y115570D01*
D02*
G37*
G36*
X338657Y45040D02*
X338210D01*
Y33270D01*
X349980D01*
Y33717D01*
X349091Y37033D01*
X347375Y40007D01*
X344947Y42435D01*
X341973Y44151D01*
X338657Y45040D01*
D02*
G37*
G36*
X335670D02*
X335223D01*
X331907Y44151D01*
X328933Y42435D01*
X326505Y40007D01*
X324789Y37033D01*
X323900Y33717D01*
Y33270D01*
X335670D01*
Y45040D01*
D02*
G37*
%LPD*%
D10*
X256060Y424950D02*
X261140Y419870D01*
X256060Y424950D02*
Y493870D01*
Y524910D01*
X207800Y573170D02*
X256060Y524910D01*
Y155340D02*
Y168750D01*
X218800Y82800D02*
Y118080D01*
X256060Y155340D01*
D42*
X107470Y563010D02*
D03*
X132870D02*
D03*
X107470Y639210D02*
D03*
X132870D02*
D03*
X421160Y632860D02*
D03*
X390680Y406400D02*
D03*
Y297180D02*
D03*
Y355600D02*
D03*
X421160Y75330D02*
D03*
X744220Y373780D02*
D03*
Y607460D02*
D03*
X749300Y48660D02*
D03*
X744220Y282340D02*
D03*
X421160Y582060D02*
D03*
X390680Y246380D02*
D03*
X744220Y231540D02*
D03*
X749300Y99460D02*
D03*
X744220Y424580D02*
D03*
Y556660D02*
D03*
X421160Y24530D02*
D03*
X132870Y314090D02*
D03*
Y237890D02*
D03*
X107470Y314090D02*
D03*
Y237890D02*
D03*
D43*
X207800Y573170D02*
D03*
X218800Y57400D02*
D03*
X207800Y598570D02*
D03*
X218800Y82800D02*
D03*
D44*
X286940Y624120D02*
D03*
X30000Y328060D02*
D03*
X856500Y190500D02*
D03*
Y515620D02*
D03*
X336940Y32000D02*
D03*
X30000Y278060D02*
D03*
D45*
X207800Y623970D02*
D03*
X218800Y32000D02*
D03*
D46*
X286940D02*
D03*
X336940Y624120D02*
D03*
D47*
X856500Y140500D02*
D03*
X30000Y378060D02*
D03*
X856500Y465620D02*
D03*
D48*
X303940Y191500D02*
D03*
X311940Y165500D02*
D03*
X303940Y139500D02*
D03*
Y152500D02*
D03*
Y165500D02*
D03*
Y178500D02*
D03*
X319940Y139500D02*
D03*
Y152500D02*
D03*
Y165500D02*
D03*
Y178500D02*
D03*
Y191500D02*
D03*
X311940D02*
D03*
Y178500D02*
D03*
Y139500D02*
D03*
Y152500D02*
D03*
X303940Y516620D02*
D03*
X311940Y490620D02*
D03*
X303940Y464620D02*
D03*
Y477620D02*
D03*
Y490620D02*
D03*
Y503620D02*
D03*
X319940Y464620D02*
D03*
Y477620D02*
D03*
Y490620D02*
D03*
Y503620D02*
D03*
Y516620D02*
D03*
X311940D02*
D03*
Y503620D02*
D03*
Y464620D02*
D03*
Y477620D02*
D03*
X261140Y419870D02*
D03*
X398300Y469030D02*
D03*
X392801Y459505D02*
D03*
X403799D02*
D03*
X387449Y475295D02*
D03*
X464820Y444500D02*
D03*
X457200D02*
D03*
X449580D02*
D03*
X441960D02*
D03*
X464820Y454660D02*
D03*
X457200D02*
D03*
X449580D02*
D03*
X441960D02*
D03*
X464820Y464820D02*
D03*
X457200D02*
D03*
X449580D02*
D03*
X441960D02*
D03*
X464820Y474980D02*
D03*
X457200D02*
D03*
X449580D02*
D03*
X441960D02*
D03*
Y485140D02*
D03*
X449580D02*
D03*
X457200D02*
D03*
X464820D02*
D03*
X403799Y521735D02*
D03*
X398300Y512210D02*
D03*
X392801Y521735D02*
D03*
X387302Y505860D02*
D03*
X464820Y535940D02*
D03*
X457200D02*
D03*
X449580D02*
D03*
X441960D02*
D03*
Y525780D02*
D03*
X449580D02*
D03*
X457200D02*
D03*
X464820D02*
D03*
X441960Y515620D02*
D03*
X449580D02*
D03*
X457200D02*
D03*
X464820D02*
D03*
X441960Y505460D02*
D03*
X449580D02*
D03*
X457200D02*
D03*
X464820D02*
D03*
X441960Y495300D02*
D03*
X449580D02*
D03*
X457200D02*
D03*
X464820D02*
D03*
X355600Y449580D02*
D03*
Y530860D02*
D03*
Y538480D02*
D03*
Y441960D02*
D03*
X271240Y487370D02*
D03*
X266700Y515620D02*
D03*
Y525780D02*
D03*
Y190500D02*
D03*
Y200660D02*
D03*
X487680Y342900D02*
D03*
X454660D02*
D03*
Y309880D02*
D03*
X487680D02*
D03*
X489740Y55230D02*
D03*
X516410Y53230D02*
D03*
X229390Y197450D02*
D03*
X210340Y184450D02*
D03*
X271643Y162250D02*
D03*
X107470Y173830D02*
D03*
X149270Y82800D02*
D03*
Y32000D02*
D03*
X516410Y602160D02*
D03*
X489740Y604160D02*
D03*
X229390Y522750D02*
D03*
X210340Y509570D02*
D03*
X161970Y585870D02*
D03*
X160430Y472720D02*
D03*
X149270Y623970D02*
D03*
X132870Y498950D02*
D03*
X107470D02*
D03*
X132870Y173830D02*
D03*
X160430Y147350D02*
D03*
X355600Y124460D02*
D03*
X353060Y116840D02*
D03*
Y203200D02*
D03*
X355600Y210820D02*
D03*
X464820Y160020D02*
D03*
X457200D02*
D03*
X449580D02*
D03*
X441960D02*
D03*
Y149860D02*
D03*
X449580D02*
D03*
X457200D02*
D03*
X464820D02*
D03*
X441960Y139700D02*
D03*
X449580D02*
D03*
X457200D02*
D03*
X464820D02*
D03*
X441960Y129540D02*
D03*
X449580D02*
D03*
X457200D02*
D03*
X464820D02*
D03*
X441960Y119380D02*
D03*
X449580D02*
D03*
X457200D02*
D03*
X464820D02*
D03*
Y210820D02*
D03*
X457200D02*
D03*
X449580D02*
D03*
X441960D02*
D03*
Y200660D02*
D03*
X449580D02*
D03*
X457200D02*
D03*
X464820D02*
D03*
X441960Y190500D02*
D03*
X449580D02*
D03*
X457200D02*
D03*
X464820D02*
D03*
X441960Y180340D02*
D03*
X449580D02*
D03*
X457200D02*
D03*
X464820D02*
D03*
X441960Y170180D02*
D03*
X449580D02*
D03*
X457200D02*
D03*
X464820D02*
D03*
X392801Y196615D02*
D03*
X403799D02*
D03*
X398300Y187090D02*
D03*
X387302Y180740D02*
D03*
X398300Y143910D02*
D03*
X403799Y134385D02*
D03*
X392801D02*
D03*
X387449Y150175D02*
D03*
D49*
X256060Y493870D02*
D03*
Y168750D02*
D03*
D50*
X353000Y474370D02*
D03*
Y506870D02*
D03*
Y149250D02*
D03*
Y181750D02*
D03*
M02*
