G04*
G04 #@! TF.GenerationSoftware,Altium Limited,Altium Designer,26.8.1 (31)*
G04*
G04 Layer_Color=65535*
G04 Board_Origin=10000000|10000000*
%FSLAX44Y44*%
%MOMM*%
G71*
G04*
G04 #@! TF.SameCoordinates,DF7661B3-7996-4F2E-9C60-F96A924D8D21*
G04*
G04*
G04 #@! TF.FilePolarity,Positive*
G04*
G01*
G75*
%ADD10C,0.2540*%
%ADD11C,0.1270*%
D10*
X909100Y235200D02*
G03*
X909100Y235200I-1000J0D01*
G01*
X1089173D02*
G03*
X1089173Y235200I-1000J0D01*
G01*
X367980Y171200D02*
G03*
X367980Y171200I-1000J0D01*
G01*
X411320Y325990D02*
Y402990D01*
X311320Y325990D02*
X411320D01*
X311320D02*
Y402990D01*
X411320D01*
X79020Y128200D02*
Y284200D01*
X3020Y128200D02*
X79020D01*
X3020D02*
Y284200D01*
X79020D01*
X1241780Y122200D02*
Y278200D01*
X1317780D01*
Y122200D02*
Y278200D01*
X1241780Y122200D02*
X1317780D01*
X211390Y402990D02*
X311390D01*
X211390Y325990D02*
Y402990D01*
Y325990D02*
X311390D01*
Y402990D01*
X952500Y165100D02*
Y241300D01*
X901700Y165100D02*
Y241300D01*
Y165100D02*
X952500D01*
X901700Y241300D02*
X952500D01*
X1132573Y165100D02*
Y241300D01*
X1081773Y165100D02*
Y241300D01*
Y165100D02*
X1132573D01*
X1081773Y241300D02*
X1132573D01*
X322580Y165100D02*
Y241300D01*
X373380Y165100D02*
Y241300D01*
X322580D02*
X373380D01*
X322580Y165100D02*
X373380D01*
D11*
X206000Y221100D02*
Y236100D01*
X175000Y221100D02*
X206000D01*
X175000D02*
Y236100D01*
X206000D01*
X189230Y223520D02*
Y233680D01*
X191770Y223520D02*
Y233680D01*
X919600Y60330D02*
X934600D01*
Y29330D02*
Y60330D01*
X919600Y29330D02*
X934600D01*
X919600D02*
Y60330D01*
X922020Y43560D02*
X932180D01*
X922020Y46100D02*
X932180D01*
X822240Y36730D02*
Y52730D01*
X808440Y36730D02*
Y52730D01*
X679700Y36730D02*
Y52730D01*
X693500Y36730D02*
Y52730D01*
X1224200Y38990D02*
Y54990D01*
X1238000Y38990D02*
Y54990D01*
X167900Y170300D02*
Y185300D01*
X136900Y170300D02*
X167900D01*
X136900D02*
Y185300D01*
X167900D01*
X151130Y172720D02*
Y182880D01*
X153670Y172720D02*
Y182880D01*
X729100Y346070D02*
X744100D01*
X729100D02*
Y377070D01*
X744100D01*
Y346070D02*
Y377070D01*
X731520Y362840D02*
X741680D01*
X731520Y360300D02*
X741680D01*
X919600Y346070D02*
X934600D01*
X919600D02*
Y377070D01*
X934600D01*
Y346070D02*
Y377070D01*
X922020Y362840D02*
X932180D01*
X922020Y360300D02*
X932180D01*
X1053380Y225680D02*
Y241680D01*
X1039580Y225680D02*
Y241680D01*
X553000Y353670D02*
Y369670D01*
X539200Y353670D02*
Y369670D01*
X603000Y353670D02*
Y369670D01*
X589200Y353670D02*
Y369670D01*
X489200Y353670D02*
Y369670D01*
X503000Y353670D02*
Y369670D01*
X167900Y221100D02*
Y236100D01*
X136900Y221100D02*
X167900D01*
X136900D02*
Y236100D01*
X167900D01*
X151130Y223520D02*
Y233680D01*
X153670Y223520D02*
Y233680D01*
X729100Y60330D02*
X744100D01*
Y29330D02*
Y60330D01*
X729100Y29330D02*
X744100D01*
X729100D02*
Y60330D01*
X731520Y43560D02*
X741680D01*
X731520Y46100D02*
X741680D01*
X489200Y36730D02*
Y52730D01*
X503000Y36730D02*
Y52730D01*
X603000Y36730D02*
Y52730D01*
X589200Y36730D02*
Y52730D01*
X870200Y353670D02*
Y369670D01*
X884000Y353670D02*
Y369670D01*
X220600Y170900D02*
X236600D01*
X220600Y184700D02*
X236600D01*
X870200Y36730D02*
Y52730D01*
X884000Y36730D02*
Y52730D01*
X1124200Y38990D02*
Y54990D01*
X1138000Y38990D02*
Y54990D01*
X779100Y346070D02*
X794100D01*
X779100D02*
Y377070D01*
X794100D01*
Y346070D02*
Y377070D01*
X781520Y362840D02*
X791680D01*
X781520Y360300D02*
X791680D01*
X984000Y353670D02*
Y369670D01*
X970200Y353670D02*
Y369670D01*
X1207520Y38990D02*
Y54990D01*
X1193720Y38990D02*
Y54990D01*
X779100Y29330D02*
X794100D01*
X779100D02*
Y60330D01*
X794100D01*
Y29330D02*
Y60330D01*
X781520Y46100D02*
X791680D01*
X781520Y43560D02*
X791680D01*
X1107520Y38990D02*
Y54990D01*
X1093720Y38990D02*
Y54990D01*
X539200Y36730D02*
Y52730D01*
X553000Y36730D02*
Y52730D01*
X615690Y346070D02*
X630690D01*
X615690D02*
Y377070D01*
X630690D01*
Y346070D02*
Y377070D01*
X618110Y362840D02*
X628270D01*
X618110Y360300D02*
X628270D01*
X1175300Y200000D02*
Y216000D01*
X1161500Y200000D02*
Y216000D01*
X616070Y28950D02*
X631070D01*
X616070D02*
Y59950D01*
X631070D01*
Y28950D02*
Y59950D01*
X618490Y45720D02*
X628650D01*
X618490Y43180D02*
X628650D01*
X206000Y170300D02*
Y185300D01*
X175000Y170300D02*
X206000D01*
X175000D02*
Y185300D01*
X206000D01*
X189230Y172720D02*
Y182880D01*
X191770Y172720D02*
Y182880D01*
X220600Y221700D02*
X236600D01*
X220600Y235500D02*
X236600D01*
X984000Y36730D02*
Y52730D01*
X970200Y36730D02*
Y52730D01*
X822240Y353670D02*
Y369670D01*
X808440Y353670D02*
Y369670D01*
X679700Y353670D02*
Y369670D01*
X693500Y353670D02*
Y369670D01*
X1258570Y12702D02*
Y17780D01*
X1261109D01*
X1261956Y16934D01*
Y15241D01*
X1261109Y14394D01*
X1258570D01*
X1264495Y16087D02*
X1266188D01*
X1267034Y15241D01*
Y12702D01*
X1264495D01*
X1263648Y13548D01*
X1264495Y14394D01*
X1267034D01*
X1268727Y12702D02*
Y16087D01*
X1271266D01*
X1272112Y15241D01*
Y12702D01*
X1274651D02*
X1276344D01*
X1277191Y13548D01*
Y15241D01*
X1276344Y16087D01*
X1274651D01*
X1273805Y15241D01*
Y13548D01*
X1274651Y12702D01*
X1278883Y16087D02*
Y12702D01*
Y14394D01*
X1279730Y15241D01*
X1280576Y16087D01*
X1281423D01*
X1284808D02*
X1286501D01*
X1287347Y15241D01*
Y12702D01*
X1284808D01*
X1283962Y13548D01*
X1284808Y14394D01*
X1287347D01*
X1289040Y12702D02*
Y16087D01*
X1289886D01*
X1290733Y15241D01*
Y12702D01*
Y15241D01*
X1291579Y16087D01*
X1292426Y15241D01*
Y12702D01*
X1294965Y16087D02*
X1296658D01*
X1297504Y15241D01*
Y12702D01*
X1294965D01*
X1294118Y13548D01*
X1294965Y14394D01*
X1297504D01*
X1261956Y7792D02*
X1261109Y8638D01*
X1259416D01*
X1258570Y7792D01*
Y4406D01*
X1259416Y3560D01*
X1261109D01*
X1261956Y4406D01*
X1264495Y3560D02*
X1266188D01*
X1267034Y4406D01*
Y6099D01*
X1266188Y6945D01*
X1264495D01*
X1263648Y6099D01*
Y4406D01*
X1264495Y3560D01*
X1268727D02*
Y6945D01*
X1271266D01*
X1272112Y6099D01*
Y3560D01*
X1274651Y7792D02*
Y6945D01*
X1273805D01*
X1275498D01*
X1274651D01*
Y4406D01*
X1275498Y3560D01*
X1278037Y6945D02*
Y3560D01*
Y5252D01*
X1278883Y6099D01*
X1279730Y6945D01*
X1280576D01*
X1283962Y3560D02*
X1285655D01*
X1286501Y4406D01*
Y6099D01*
X1285655Y6945D01*
X1283962D01*
X1283115Y6099D01*
Y4406D01*
X1283962Y3560D01*
X1288194D02*
X1289886D01*
X1289040D01*
Y8638D01*
X1288194D01*
X281940Y25400D02*
Y20322D01*
X285326D01*
X287865D02*
X289557D01*
X290404Y21168D01*
Y22861D01*
X289557Y23707D01*
X287865D01*
X287018Y22861D01*
Y21168D01*
X287865Y20322D01*
X292097Y23707D02*
Y21168D01*
X292943Y20322D01*
X295482D01*
Y23707D01*
X300561Y25400D02*
Y20322D01*
X298022D01*
X297175Y21168D01*
Y22861D01*
X298022Y23707D01*
X300561D01*
X302253Y20322D02*
Y23707D01*
X304793D01*
X305639Y22861D01*
Y20322D01*
X309871D02*
X308178D01*
X307332Y21168D01*
Y22861D01*
X308178Y23707D01*
X309871D01*
X310717Y22861D01*
Y22014D01*
X307332D01*
X312410Y20322D02*
X314949D01*
X315796Y21168D01*
X314949Y22014D01*
X313256D01*
X312410Y22861D01*
X313256Y23707D01*
X315796D01*
X317488Y20322D02*
X320028D01*
X320874Y21168D01*
X320028Y22014D01*
X318335D01*
X317488Y22861D01*
X318335Y23707D01*
X320874D01*
X290404Y15412D02*
X289557Y16258D01*
X287865D01*
X287018Y15412D01*
Y12026D01*
X287865Y11180D01*
X289557D01*
X290404Y12026D01*
X292943Y11180D02*
X294636D01*
X295482Y12026D01*
Y13719D01*
X294636Y14565D01*
X292943D01*
X292097Y13719D01*
Y12026D01*
X292943Y11180D01*
X297175D02*
Y14565D01*
X299714D01*
X300561Y13719D01*
Y11180D01*
X303100Y15412D02*
Y14565D01*
X302253D01*
X303946D01*
X303100D01*
Y12026D01*
X303946Y11180D01*
X306485Y14565D02*
Y11180D01*
Y12872D01*
X307332Y13719D01*
X308178Y14565D01*
X309025D01*
X312410Y11180D02*
X314103D01*
X314949Y12026D01*
Y13719D01*
X314103Y14565D01*
X312410D01*
X311564Y13719D01*
Y12026D01*
X312410Y11180D01*
X316642D02*
X318335D01*
X317488D01*
Y16258D01*
X316642D01*
X1019810Y365760D02*
Y360682D01*
X1023196D01*
X1027428D02*
X1025735D01*
X1024888Y361528D01*
Y363221D01*
X1025735Y364067D01*
X1027428D01*
X1028274Y363221D01*
Y362374D01*
X1024888D01*
X1030813Y360682D02*
Y364914D01*
Y363221D01*
X1029967D01*
X1031659D01*
X1030813D01*
Y364914D01*
X1031659Y365760D01*
X1035045Y364914D02*
Y364067D01*
X1034199D01*
X1035891D01*
X1035045D01*
Y361528D01*
X1035891Y360682D01*
X1019810Y356618D02*
Y351540D01*
X1022349D01*
X1023196Y352386D01*
Y353232D01*
X1022349Y354079D01*
X1019810D01*
X1022349D01*
X1023196Y354925D01*
Y355772D01*
X1022349Y356618D01*
X1019810D01*
X1025735Y354925D02*
X1027428D01*
X1028274Y354079D01*
Y351540D01*
X1025735D01*
X1024888Y352386D01*
X1025735Y353232D01*
X1028274D01*
X1029967Y354925D02*
X1033352Y351540D01*
X1031659Y353232D01*
X1033352Y354925D01*
X1029967Y351540D01*
X1035891Y354925D02*
X1037584D01*
X1038431Y354079D01*
Y351540D01*
X1035891D01*
X1035045Y352386D01*
X1035891Y353232D01*
X1038431D01*
X1040123Y351540D02*
Y354925D01*
X1042663D01*
X1043509Y354079D01*
Y351540D01*
X1048587Y356618D02*
Y351540D01*
X1046048D01*
X1045202Y352386D01*
Y354079D01*
X1046048Y354925D01*
X1048587D01*
X1051126D02*
X1052819D01*
X1053666Y354079D01*
Y351540D01*
X1051126D01*
X1050280Y352386D01*
X1051126Y353232D01*
X1053666D01*
X1055358Y351540D02*
X1057051D01*
X1056205D01*
Y356618D01*
X1055358D01*
X1059590Y351540D02*
X1061283D01*
X1060437D01*
Y356618D01*
X1059590D01*
X1019810Y347476D02*
X1023196D01*
X1021503D01*
Y342398D01*
X1025735D02*
X1027428D01*
X1028274Y343244D01*
Y344937D01*
X1027428Y345783D01*
X1025735D01*
X1024888Y344937D01*
Y343244D01*
X1025735Y342398D01*
X1029967D02*
Y345783D01*
X1032506D01*
X1033352Y344937D01*
Y342398D01*
X1037584D02*
X1035891D01*
X1035045Y343244D01*
Y344937D01*
X1035891Y345783D01*
X1037584D01*
X1038431Y344937D01*
Y344090D01*
X1035045D01*
X1023196Y337488D02*
X1022349Y338334D01*
X1020656D01*
X1019810Y337488D01*
Y334102D01*
X1020656Y333256D01*
X1022349D01*
X1023196Y334102D01*
X1025735Y333256D02*
X1027428D01*
X1028274Y334102D01*
Y335795D01*
X1027428Y336641D01*
X1025735D01*
X1024888Y335795D01*
Y334102D01*
X1025735Y333256D01*
X1029967D02*
Y336641D01*
X1032506D01*
X1033352Y335795D01*
Y333256D01*
X1035891Y337488D02*
Y336641D01*
X1035045D01*
X1036738D01*
X1035891D01*
Y334102D01*
X1036738Y333256D01*
X1039277Y336641D02*
Y333256D01*
Y334948D01*
X1040123Y335795D01*
X1040970Y336641D01*
X1041816D01*
X1045202Y333256D02*
X1046895D01*
X1047741Y334102D01*
Y335795D01*
X1046895Y336641D01*
X1045202D01*
X1044355Y335795D01*
Y334102D01*
X1045202Y333256D01*
X1049434D02*
X1051126D01*
X1050280D01*
Y338334D01*
X1049434D01*
X1019810Y31752D02*
Y36830D01*
X1022349D01*
X1023196Y35984D01*
Y34291D01*
X1022349Y33444D01*
X1019810D01*
X1021503D02*
X1023196Y31752D01*
X1024888D02*
X1026581D01*
X1025735D01*
Y35137D01*
X1024888D01*
X1030813Y30059D02*
X1031659D01*
X1032506Y30905D01*
Y35137D01*
X1029967D01*
X1029120Y34291D01*
Y32598D01*
X1029967Y31752D01*
X1032506D01*
X1034199Y36830D02*
Y31752D01*
Y34291D01*
X1035045Y35137D01*
X1036738D01*
X1037584Y34291D01*
Y31752D01*
X1040123Y35984D02*
Y35137D01*
X1039277D01*
X1040970D01*
X1040123D01*
Y32598D01*
X1040970Y31752D01*
X1019810Y25995D02*
Y20917D01*
X1022349D01*
X1023196Y21763D01*
Y22610D01*
X1022349Y23456D01*
X1019810D01*
X1022349D01*
X1023196Y24302D01*
Y25149D01*
X1022349Y25995D01*
X1019810D01*
X1025735Y24302D02*
X1027428D01*
X1028274Y23456D01*
Y20917D01*
X1025735D01*
X1024888Y21763D01*
X1025735Y22610D01*
X1028274D01*
X1029967Y24302D02*
X1033352Y20917D01*
X1031659Y22610D01*
X1033352Y24302D01*
X1029967Y20917D01*
X1035891Y24302D02*
X1037584D01*
X1038431Y23456D01*
Y20917D01*
X1035891D01*
X1035045Y21763D01*
X1035891Y22610D01*
X1038431D01*
X1040123Y20917D02*
Y24302D01*
X1042663D01*
X1043509Y23456D01*
Y20917D01*
X1048587Y25995D02*
Y20917D01*
X1046048D01*
X1045202Y21763D01*
Y23456D01*
X1046048Y24302D01*
X1048587D01*
X1051126D02*
X1052819D01*
X1053666Y23456D01*
Y20917D01*
X1051126D01*
X1050280Y21763D01*
X1051126Y22610D01*
X1053666D01*
X1055358Y20917D02*
X1057051D01*
X1056205D01*
Y25995D01*
X1055358D01*
X1059590Y20917D02*
X1061283D01*
X1060437D01*
Y25995D01*
X1059590D01*
X1019810Y16853D02*
X1023196D01*
X1021503D01*
Y11775D01*
X1025735D02*
X1027428D01*
X1028274Y12621D01*
Y14314D01*
X1027428Y15160D01*
X1025735D01*
X1024888Y14314D01*
Y12621D01*
X1025735Y11775D01*
X1029967D02*
Y15160D01*
X1032506D01*
X1033352Y14314D01*
Y11775D01*
X1037584D02*
X1035891D01*
X1035045Y12621D01*
Y14314D01*
X1035891Y15160D01*
X1037584D01*
X1038431Y14314D01*
Y13468D01*
X1035045D01*
X1023196Y6865D02*
X1022349Y7711D01*
X1020656D01*
X1019810Y6865D01*
Y3479D01*
X1020656Y2633D01*
X1022349D01*
X1023196Y3479D01*
X1025735Y2633D02*
X1027428D01*
X1028274Y3479D01*
Y5172D01*
X1027428Y6018D01*
X1025735D01*
X1024888Y5172D01*
Y3479D01*
X1025735Y2633D01*
X1029967D02*
Y6018D01*
X1032506D01*
X1033352Y5172D01*
Y2633D01*
X1035891Y6865D02*
Y6018D01*
X1035045D01*
X1036738D01*
X1035891D01*
Y3479D01*
X1036738Y2633D01*
X1039277Y6018D02*
Y2633D01*
Y4326D01*
X1040123Y5172D01*
X1040970Y6018D01*
X1041816D01*
X1045202Y2633D02*
X1046895D01*
X1047741Y3479D01*
Y5172D01*
X1046895Y6018D01*
X1045202D01*
X1044355Y5172D01*
Y3479D01*
X1045202Y2633D01*
X1049434D02*
X1051126D01*
X1050280D01*
Y7711D01*
X1049434D01*
X1082040Y82042D02*
Y87120D01*
X1084579D01*
X1085426Y86274D01*
Y84581D01*
X1084579Y83735D01*
X1082040D01*
X1083733D02*
X1085426Y82042D01*
X1090504D02*
X1087118D01*
X1090504Y85428D01*
Y86274D01*
X1089658Y87120D01*
X1087965D01*
X1087118Y86274D01*
X1092197D02*
X1093043Y87120D01*
X1094736D01*
X1095582Y86274D01*
Y85428D01*
X1094736Y84581D01*
X1095582Y83735D01*
Y82888D01*
X1094736Y82042D01*
X1093043D01*
X1092197Y82888D01*
Y83735D01*
X1093043Y84581D01*
X1092197Y85428D01*
Y86274D01*
X1093043Y84581D02*
X1094736D01*
X1219669Y32599D02*
X1214591D01*
Y35138D01*
X1215437Y35984D01*
X1217130D01*
X1217976Y35138D01*
Y32599D01*
Y34292D02*
X1219669Y35984D01*
X1215437Y37677D02*
X1214591Y38524D01*
Y40216D01*
X1215437Y41063D01*
X1216283D01*
X1217130Y40216D01*
Y39370D01*
Y40216D01*
X1217976Y41063D01*
X1218823D01*
X1219669Y40216D01*
Y38524D01*
X1218823Y37677D01*
X1215437Y42756D02*
X1214591Y43602D01*
Y45295D01*
X1215437Y46141D01*
X1218823D01*
X1219669Y45295D01*
Y43602D01*
X1218823Y42756D01*
X1215437D01*
X1189189Y32599D02*
X1184111D01*
Y35138D01*
X1184957Y35984D01*
X1186650D01*
X1187496Y35138D01*
Y32599D01*
Y34292D02*
X1189189Y35984D01*
Y41063D02*
Y37677D01*
X1185804Y41063D01*
X1184957D01*
X1184111Y40216D01*
Y38524D01*
X1184957Y37677D01*
X1188343Y42756D02*
X1189189Y43602D01*
Y45295D01*
X1188343Y46141D01*
X1184957D01*
X1184111Y45295D01*
Y43602D01*
X1184957Y42756D01*
X1185804D01*
X1186650Y43602D01*
Y46141D01*
X1119669Y32599D02*
X1114591D01*
Y35138D01*
X1115437Y35984D01*
X1117130D01*
X1117977Y35138D01*
Y32599D01*
Y34292D02*
X1119669Y35984D01*
Y41063D02*
Y37677D01*
X1116284Y41063D01*
X1115437D01*
X1114591Y40216D01*
Y38524D01*
X1115437Y37677D01*
X1114591Y42756D02*
Y46141D01*
X1115437D01*
X1118823Y42756D01*
X1119669D01*
X1089189Y32599D02*
X1084111D01*
Y35138D01*
X1084957Y35984D01*
X1086650D01*
X1087496Y35138D01*
Y32599D01*
Y34292D02*
X1089189Y35984D01*
Y41063D02*
Y37677D01*
X1085804Y41063D01*
X1084957D01*
X1084111Y40216D01*
Y38524D01*
X1084957Y37677D01*
X1084111Y46141D02*
X1084957Y44448D01*
X1086650Y42756D01*
X1088343D01*
X1089189Y43602D01*
Y45295D01*
X1088343Y46141D01*
X1087496D01*
X1086650Y45295D01*
Y42756D01*
X1161796Y229616D02*
Y234694D01*
X1164335D01*
X1165182Y233848D01*
Y232155D01*
X1164335Y231309D01*
X1161796D01*
X1163489D02*
X1165182Y229616D01*
X1170260D02*
X1166874D01*
X1170260Y233002D01*
Y233848D01*
X1169414Y234694D01*
X1167721D01*
X1166874Y233848D01*
X1175338Y234694D02*
X1171953D01*
Y232155D01*
X1173645Y233002D01*
X1174492D01*
X1175338Y232155D01*
Y230462D01*
X1174492Y229616D01*
X1172799D01*
X1171953Y230462D01*
X1039876Y255270D02*
Y260348D01*
X1042415D01*
X1043262Y259502D01*
Y257809D01*
X1042415Y256963D01*
X1039876D01*
X1041569D02*
X1043262Y255270D01*
X1048340D02*
X1044954D01*
X1048340Y258656D01*
Y259502D01*
X1047494Y260348D01*
X1045801D01*
X1044954Y259502D01*
X1052572Y255270D02*
Y260348D01*
X1050033Y257809D01*
X1053418D01*
X843280Y574040D02*
Y579118D01*
X845819D01*
X846666Y578272D01*
Y576579D01*
X845819Y575733D01*
X843280D01*
X844973D02*
X846666Y574040D01*
X851744D02*
X848358D01*
X851744Y577426D01*
Y578272D01*
X850898Y579118D01*
X849205D01*
X848358Y578272D01*
X853437D02*
X854283Y579118D01*
X855976D01*
X856822Y578272D01*
Y577426D01*
X855976Y576579D01*
X855129D01*
X855976D01*
X856822Y575733D01*
Y574886D01*
X855976Y574040D01*
X854283D01*
X853437Y574886D01*
X843280Y82042D02*
Y87120D01*
X845819D01*
X846666Y86274D01*
Y84581D01*
X845819Y83735D01*
X843280D01*
X844973D02*
X846666Y82042D01*
X851744D02*
X848358D01*
X851744Y85428D01*
Y86274D01*
X850898Y87120D01*
X849205D01*
X848358Y86274D01*
X856822Y82042D02*
X853437D01*
X856822Y85428D01*
Y86274D01*
X855976Y87120D01*
X854283D01*
X853437Y86274D01*
X865669Y347135D02*
X860591D01*
Y349675D01*
X861437Y350521D01*
X863130D01*
X863976Y349675D01*
Y347135D01*
Y348828D02*
X865669Y350521D01*
Y355599D02*
Y352214D01*
X862284Y355599D01*
X861437D01*
X860591Y354753D01*
Y353060D01*
X861437Y352214D01*
X865669Y357292D02*
Y358985D01*
Y358139D01*
X860591D01*
X861437Y357292D01*
X965199Y347559D02*
X960121D01*
Y350098D01*
X960967Y350944D01*
X962660D01*
X963506Y350098D01*
Y347559D01*
Y349252D02*
X965199Y350944D01*
Y356023D02*
Y352637D01*
X961814Y356023D01*
X960967D01*
X960121Y355176D01*
Y353484D01*
X960967Y352637D01*
Y357716D02*
X960121Y358562D01*
Y360255D01*
X960967Y361101D01*
X964353D01*
X965199Y360255D01*
Y358562D01*
X964353Y357716D01*
X960967D01*
X965199Y30482D02*
X960121D01*
Y33021D01*
X960967Y33868D01*
X962660D01*
X963506Y33021D01*
Y30482D01*
Y32175D02*
X965199Y33868D01*
Y35560D02*
Y37253D01*
Y36407D01*
X960121D01*
X960967Y35560D01*
X964353Y39792D02*
X965199Y40639D01*
Y42332D01*
X964353Y43178D01*
X960967D01*
X960121Y42332D01*
Y40639D01*
X960967Y39792D01*
X961814D01*
X962660Y40639D01*
Y43178D01*
X866139Y30482D02*
X861061D01*
Y33021D01*
X861907Y33868D01*
X863600D01*
X864446Y33021D01*
Y30482D01*
Y32175D02*
X866139Y33868D01*
Y35560D02*
Y37253D01*
Y36407D01*
X861061D01*
X861907Y35560D01*
Y39792D02*
X861061Y40639D01*
Y42332D01*
X861907Y43178D01*
X862754D01*
X863600Y42332D01*
X864446Y43178D01*
X865293D01*
X866139Y42332D01*
Y40639D01*
X865293Y39792D01*
X864446D01*
X863600Y40639D01*
X862754Y39792D01*
X861907D01*
X863600Y40639D02*
Y42332D01*
X803909Y347702D02*
X798831D01*
Y350241D01*
X799677Y351088D01*
X801370D01*
X802216Y350241D01*
Y347702D01*
Y349395D02*
X803909Y351088D01*
Y352780D02*
Y354473D01*
Y353627D01*
X798831D01*
X799677Y352780D01*
X798831Y357012D02*
Y360398D01*
X799677D01*
X803063Y357012D01*
X803909D01*
X652780Y574040D02*
Y579118D01*
X655319D01*
X656166Y578272D01*
Y576579D01*
X655319Y575733D01*
X652780D01*
X654473D02*
X656166Y574040D01*
X657858D02*
X659551D01*
X658705D01*
Y579118D01*
X657858Y578272D01*
X665476Y579118D02*
X663783Y578272D01*
X662090Y576579D01*
Y574886D01*
X662937Y574040D01*
X664630D01*
X665476Y574886D01*
Y575733D01*
X664630Y576579D01*
X662090D01*
X675169Y346712D02*
X670091D01*
Y349251D01*
X670937Y350098D01*
X672630D01*
X673476Y349251D01*
Y346712D01*
Y348405D02*
X675169Y350098D01*
Y351791D02*
Y353483D01*
Y352637D01*
X670091D01*
X670937Y351791D01*
X670091Y359408D02*
Y356022D01*
X672630D01*
X671784Y357715D01*
Y358562D01*
X672630Y359408D01*
X674323D01*
X675169Y358562D01*
Y356869D01*
X674323Y356022D01*
X675639Y30482D02*
X670561D01*
Y33021D01*
X671407Y33868D01*
X673100D01*
X673946Y33021D01*
Y30482D01*
Y32175D02*
X675639Y33868D01*
Y35560D02*
Y37253D01*
Y36407D01*
X670561D01*
X671407Y35560D01*
X675639Y42332D02*
X670561D01*
X673100Y39792D01*
Y43178D01*
X652780Y82042D02*
Y87120D01*
X655319D01*
X656166Y86274D01*
Y84581D01*
X655319Y83735D01*
X652780D01*
X654473D02*
X656166Y82042D01*
X657858D02*
X659551D01*
X658705D01*
Y87120D01*
X657858Y86274D01*
X662090D02*
X662937Y87120D01*
X664630D01*
X665476Y86274D01*
Y85428D01*
X664630Y84581D01*
X663783D01*
X664630D01*
X665476Y83735D01*
Y82888D01*
X664630Y82042D01*
X662937D01*
X662090Y82888D01*
X803909Y30482D02*
X798831D01*
Y33021D01*
X799677Y33868D01*
X801370D01*
X802216Y33021D01*
Y30482D01*
Y32175D02*
X803909Y33868D01*
Y35560D02*
Y37253D01*
Y36407D01*
X798831D01*
X799677Y35560D01*
X803909Y43178D02*
Y39792D01*
X800524Y43178D01*
X799677D01*
X798831Y42332D01*
Y40639D01*
X799677Y39792D01*
X534669Y347559D02*
X529591D01*
Y350098D01*
X530437Y350944D01*
X532130D01*
X532976Y350098D01*
Y347559D01*
Y349251D02*
X534669Y350944D01*
Y352637D02*
Y354330D01*
Y353483D01*
X529591D01*
X530437Y352637D01*
X534669Y356869D02*
Y358562D01*
Y357715D01*
X529591D01*
X530437Y356869D01*
X534669Y30482D02*
X529591D01*
Y33021D01*
X530437Y33868D01*
X532130D01*
X532976Y33021D01*
Y30482D01*
Y32175D02*
X534669Y33868D01*
Y35560D02*
Y37253D01*
Y36407D01*
X529591D01*
X530437Y35560D01*
Y39792D02*
X529591Y40639D01*
Y42332D01*
X530437Y43178D01*
X533823D01*
X534669Y42332D01*
Y40639D01*
X533823Y39792D01*
X530437D01*
X586319Y347558D02*
X581241D01*
Y350097D01*
X582087Y350944D01*
X583780D01*
X584626Y350097D01*
Y347558D01*
Y349251D02*
X586319Y350944D01*
X585473Y352636D02*
X586319Y353483D01*
Y355176D01*
X585473Y356022D01*
X582087D01*
X581241Y355176D01*
Y353483D01*
X582087Y352636D01*
X582934D01*
X583780Y353483D01*
Y356022D01*
X462280Y574040D02*
Y579118D01*
X464819D01*
X465666Y578272D01*
Y576579D01*
X464819Y575733D01*
X462280D01*
X463973D02*
X465666Y574040D01*
X467358Y578272D02*
X468205Y579118D01*
X469897D01*
X470744Y578272D01*
Y577426D01*
X469897Y576579D01*
X470744Y575733D01*
Y574886D01*
X469897Y574040D01*
X468205D01*
X467358Y574886D01*
Y575733D01*
X468205Y576579D01*
X467358Y577426D01*
Y578272D01*
X468205Y576579D02*
X469897D01*
X485139Y347558D02*
X480061D01*
Y350097D01*
X480907Y350944D01*
X482600D01*
X483446Y350097D01*
Y347558D01*
Y349251D02*
X485139Y350944D01*
X480061Y352636D02*
Y356022D01*
X480907D01*
X484293Y352636D01*
X485139D01*
Y30058D02*
X480061D01*
Y32597D01*
X480907Y33444D01*
X482600D01*
X483446Y32597D01*
Y30058D01*
Y31751D02*
X485139Y33444D01*
X480061Y38522D02*
X480907Y36829D01*
X482600Y35136D01*
X484293D01*
X485139Y35983D01*
Y37676D01*
X484293Y38522D01*
X483446D01*
X482600Y37676D01*
Y35136D01*
X462280Y82042D02*
Y87120D01*
X464819D01*
X465666Y86274D01*
Y84581D01*
X464819Y83735D01*
X462280D01*
X463973D02*
X465666Y82042D01*
X470744Y87120D02*
X467358D01*
Y84581D01*
X469051Y85428D01*
X469897D01*
X470744Y84581D01*
Y82888D01*
X469897Y82042D01*
X468205D01*
X467358Y82888D01*
X584199Y30058D02*
X579121D01*
Y32597D01*
X579967Y33444D01*
X581660D01*
X582506Y32597D01*
Y30058D01*
Y31751D02*
X584199Y33444D01*
Y37676D02*
X579121D01*
X581660Y35136D01*
Y38522D01*
X214630Y192024D02*
Y197102D01*
X217169D01*
X218016Y196256D01*
Y194563D01*
X217169Y193717D01*
X214630D01*
X216323D02*
X218016Y192024D01*
X219708Y196256D02*
X220555Y197102D01*
X222248D01*
X223094Y196256D01*
Y195410D01*
X222248Y194563D01*
X221401D01*
X222248D01*
X223094Y193717D01*
Y192870D01*
X222248Y192024D01*
X220555D01*
X219708Y192870D01*
X214630Y242824D02*
Y247902D01*
X217169D01*
X218016Y247056D01*
Y245363D01*
X217169Y244517D01*
X214630D01*
X216323D02*
X218016Y242824D01*
X223094D02*
X219708D01*
X223094Y246210D01*
Y247056D01*
X222248Y247902D01*
X220555D01*
X219708Y247056D01*
X108204Y93218D02*
Y98296D01*
X110743D01*
X111590Y97450D01*
Y95757D01*
X110743Y94911D01*
X108204D01*
X109897D02*
X111590Y93218D01*
X113282D02*
X114975D01*
X114129D01*
Y98296D01*
X113282Y97450D01*
X303783Y262634D02*
X302090D01*
X301244Y261788D01*
Y258402D01*
X302090Y257556D01*
X303783D01*
X304630Y258402D01*
Y261788D01*
X303783Y262634D01*
X306322Y257556D02*
Y262634D01*
X308862D01*
X309708Y261788D01*
Y260095D01*
X308862Y259249D01*
X306322D01*
X311401Y257556D02*
Y260942D01*
X313093Y262634D01*
X314786Y260942D01*
Y257556D01*
Y260095D01*
X311401D01*
X316479Y257556D02*
Y262634D01*
X318172Y260942D01*
X319865Y262634D01*
Y257556D01*
X321557D02*
Y262634D01*
X324097D01*
X324943Y261788D01*
Y260095D01*
X324097Y259249D01*
X321557D01*
X326636Y261788D02*
X327482Y262634D01*
X329175D01*
X330021Y261788D01*
Y260942D01*
X329175Y260095D01*
X328329D01*
X329175D01*
X330021Y259249D01*
Y258402D01*
X329175Y257556D01*
X327482D01*
X326636Y258402D01*
X1062976Y262634D02*
X1061283D01*
X1060437Y261788D01*
Y258402D01*
X1061283Y257556D01*
X1062976D01*
X1063823Y258402D01*
Y261788D01*
X1062976Y262634D01*
X1065515Y257556D02*
Y262634D01*
X1068055D01*
X1068901Y261788D01*
Y260095D01*
X1068055Y259249D01*
X1065515D01*
X1070594Y257556D02*
Y260942D01*
X1072287Y262634D01*
X1073979Y260942D01*
Y257556D01*
Y260095D01*
X1070594D01*
X1075672Y257556D02*
Y262634D01*
X1077365Y260942D01*
X1079058Y262634D01*
Y257556D01*
X1080750D02*
Y262634D01*
X1083290D01*
X1084136Y261788D01*
Y260095D01*
X1083290Y259249D01*
X1080750D01*
X1089214Y257556D02*
X1085829D01*
X1089214Y260942D01*
Y261788D01*
X1088368Y262634D01*
X1086675D01*
X1085829Y261788D01*
X882903Y262634D02*
X881210D01*
X880364Y261788D01*
Y258402D01*
X881210Y257556D01*
X882903D01*
X883750Y258402D01*
Y261788D01*
X882903Y262634D01*
X885442Y257556D02*
Y262634D01*
X887981D01*
X888828Y261788D01*
Y260095D01*
X887981Y259249D01*
X885442D01*
X890521Y257556D02*
Y260942D01*
X892214Y262634D01*
X893906Y260942D01*
Y257556D01*
Y260095D01*
X890521D01*
X895599Y257556D02*
Y262634D01*
X897292Y260942D01*
X898985Y262634D01*
Y257556D01*
X900677D02*
Y262634D01*
X903217D01*
X904063Y261788D01*
Y260095D01*
X903217Y259249D01*
X900677D01*
X905756Y257556D02*
X907449D01*
X906602D01*
Y262634D01*
X905756Y261788D01*
X214714Y415796D02*
X213021D01*
X213867D01*
Y411564D01*
X213021Y410718D01*
X212174D01*
X211328Y411564D01*
X218946Y410718D02*
Y415796D01*
X216406Y413257D01*
X219792D01*
X314790Y415796D02*
X313097D01*
X313943D01*
Y411564D01*
X313097Y410718D01*
X312250D01*
X311404Y411564D01*
X316482Y414950D02*
X317329Y415796D01*
X319021D01*
X319868Y414950D01*
Y414104D01*
X319021Y413257D01*
X318175D01*
X319021D01*
X319868Y412411D01*
Y411564D01*
X319021Y410718D01*
X317329D01*
X316482Y411564D01*
X1245192Y290828D02*
X1243499D01*
X1244345D01*
Y286596D01*
X1243499Y285750D01*
X1242652D01*
X1241806Y286596D01*
X1250270Y285750D02*
X1246884D01*
X1250270Y289136D01*
Y289982D01*
X1249424Y290828D01*
X1247731D01*
X1246884Y289982D01*
X6434Y296924D02*
X4741D01*
X5587D01*
Y292692D01*
X4741Y291846D01*
X3894D01*
X3048Y292692D01*
X8126Y291846D02*
X9819D01*
X8973D01*
Y296924D01*
X8126Y296078D01*
X911437Y350098D02*
X910591Y349251D01*
Y347559D01*
X911437Y346712D01*
X914823D01*
X915669Y347559D01*
Y349251D01*
X914823Y350098D01*
X915669Y351791D02*
Y353483D01*
Y352637D01*
X910591D01*
X911437Y351791D01*
X915669Y359408D02*
Y356022D01*
X912284Y359408D01*
X911437D01*
X910591Y358562D01*
Y356869D01*
X911437Y356022D01*
X911437Y33444D02*
X910591Y32598D01*
Y30905D01*
X911437Y30059D01*
X914823D01*
X915669Y30905D01*
Y32598D01*
X914823Y33444D01*
X915669Y35137D02*
Y36830D01*
Y35983D01*
X910591D01*
X911437Y35137D01*
X915669Y39369D02*
Y41062D01*
Y40215D01*
X910591D01*
X911437Y39369D01*
X720937Y350098D02*
X720091Y349251D01*
Y347559D01*
X720937Y346712D01*
X724323D01*
X725169Y347559D01*
Y349251D01*
X724323Y350098D01*
X725169Y351791D02*
Y353483D01*
Y352637D01*
X720091D01*
X720937Y351791D01*
Y356022D02*
X720091Y356869D01*
Y358562D01*
X720937Y359408D01*
X724323D01*
X725169Y358562D01*
Y356869D01*
X724323Y356022D01*
X720937D01*
Y33444D02*
X720091Y32597D01*
Y30905D01*
X720937Y30058D01*
X724323D01*
X725169Y30905D01*
Y32597D01*
X724323Y33444D01*
Y35136D02*
X725169Y35983D01*
Y37676D01*
X724323Y38522D01*
X720937D01*
X720091Y37676D01*
Y35983D01*
X720937Y35136D01*
X721784D01*
X722630Y35983D01*
Y38522D01*
X770937Y349674D02*
X770091Y348827D01*
Y347135D01*
X770937Y346288D01*
X774323D01*
X775169Y347135D01*
Y348827D01*
X774323Y349674D01*
X770937Y351367D02*
X770091Y352213D01*
Y353906D01*
X770937Y354752D01*
X771784D01*
X772630Y353906D01*
X773476Y354752D01*
X774323D01*
X775169Y353906D01*
Y352213D01*
X774323Y351367D01*
X773476D01*
X772630Y352213D01*
X771784Y351367D01*
X770937D01*
X772630Y352213D02*
Y353906D01*
X770467Y33444D02*
X769621Y32597D01*
Y30905D01*
X770467Y30058D01*
X773853D01*
X774699Y30905D01*
Y32597D01*
X773853Y33444D01*
X769621Y35136D02*
Y38522D01*
X770467D01*
X773853Y35136D01*
X774699D01*
X607907Y349674D02*
X607061Y348827D01*
Y347135D01*
X607907Y346288D01*
X611293D01*
X612139Y347135D01*
Y348827D01*
X611293Y349674D01*
X607061Y354752D02*
X607907Y353059D01*
X609600Y351366D01*
X611293D01*
X612139Y352213D01*
Y353906D01*
X611293Y354752D01*
X610446D01*
X609600Y353906D01*
Y351366D01*
X607907Y32174D02*
X607061Y31327D01*
Y29634D01*
X607907Y28788D01*
X611293D01*
X612139Y29634D01*
Y31327D01*
X611293Y32174D01*
X607061Y37252D02*
Y33866D01*
X609600D01*
X608754Y35559D01*
Y36406D01*
X609600Y37252D01*
X611293D01*
X612139Y36406D01*
Y34713D01*
X611293Y33866D01*
X178900Y196510D02*
X178053Y197356D01*
X176360D01*
X175514Y196510D01*
Y193124D01*
X176360Y192278D01*
X178053D01*
X178900Y193124D01*
X183132Y192278D02*
Y197356D01*
X180592Y194817D01*
X183978D01*
X178900Y247310D02*
X178053Y248156D01*
X176360D01*
X175514Y247310D01*
Y243924D01*
X176360Y243078D01*
X178053D01*
X178900Y243924D01*
X180592Y247310D02*
X181439Y248156D01*
X183132D01*
X183978Y247310D01*
Y246464D01*
X183132Y245617D01*
X182285D01*
X183132D01*
X183978Y244771D01*
Y243924D01*
X183132Y243078D01*
X181439D01*
X180592Y243924D01*
X140800Y196510D02*
X139953Y197356D01*
X138260D01*
X137414Y196510D01*
Y193124D01*
X138260Y192278D01*
X139953D01*
X140800Y193124D01*
X145878Y192278D02*
X142492D01*
X145878Y195664D01*
Y196510D01*
X145031Y197356D01*
X143339D01*
X142492Y196510D01*
X140800Y247310D02*
X139953Y248156D01*
X138260D01*
X137414Y247310D01*
Y243924D01*
X138260Y243078D01*
X139953D01*
X140800Y243924D01*
X142492Y243078D02*
X144185D01*
X143339D01*
Y248156D01*
X142492Y247310D01*
M02*
