M48
;Layer_Color=9474304
;FILE_FORMAT=4:4
METRIC,LZ
;TYPE=PLATED
T01F00S00C0.2540
T02F00S00C0.7112
T03F00S00C0.7620
T04F00S00C1.4000
%
T01
X0018542Y0006604
X001825Y0011976
X0051943Y0010414
X0058142Y0005263
X006866Y0006731
Y0009271
X0072009Y0007366
X0075311
X011311Y0006957
Y0008683
X0116459Y00172453
X0101854Y0014986
X0091948Y001651
X009271Y0022987
Y0025781
X0093472Y0031369
X0083185Y0031369
X0087122Y0027178
X0075351Y0033274
X0072049
X006866Y0033909
Y0031369
X0073406Y001651
X00457772Y00254
X004445Y002413
X0042418Y00254
X00345584Y00155414
X0027432Y0020066
X001825Y0020856
X001444
Y0015786
T02
X0025654Y001778
Y002286
T03
X001155Y0001826
Y0007826
X001655
X002155
X002655
Y0001826
X002155
X001655
X004961Y0001778
X005461
X005961
X006866
X007366
X007866
X008771
X009271
X009771
X0111586
X0116586
X0121586
X01146543Y001651
Y001905
Y002159
Y002413
X01067803
Y002159
Y001905
Y001651
X0096647
Y001905
Y002159
Y002413
X009771Y0038862
X009271
X008771
X007866
X007366
X006866
X005961
X005461
X0088773Y002413
Y002159
Y001905
Y001651
X0038735
Y001905
Y002159
Y002413
X0030861
Y002159
Y001905
Y001651
X004961Y0038862
T04
X0128778Y001532
Y002032
Y002532
X0038632Y0037099
X0033632
X0028639
X0023639
X0003302Y002532
Y002032
Y001532
M30
