G04*
G04 #@! TF.GenerationSoftware,Altium Limited,Altium Designer,26.8.1 (31)*
G04*
G04 Layer_Color=16711935*
G04 Board_Origin=10000000|10000000*
%FSLAX44Y44*%
%MOMM*%
G71*
G04*
G04 #@! TF.SameCoordinates,DF7661B3-7996-4F2E-9C60-F96A924D8D21*
G04*
G04*
G04 #@! TF.FilePolarity,Negative*
G04*
G01*
G75*
%ADD20C,1.7272*%
%ADD21R,2.3032X2.3032*%
%ADD22C,2.3032*%
%ADD23R,2.3032X2.3032*%
%ADD24R,1.7272X1.7272*%
%ADD25C,0.7112*%
%ADD26C,1.4732*%
D20*
X1165860Y17780D02*
D03*
X1115860D02*
D03*
X1215860D02*
D03*
X1146543Y165100D02*
D03*
X1067803Y190500D02*
D03*
X966470Y165100D02*
D03*
X887730Y190500D02*
D03*
X215500Y18260D02*
D03*
Y78260D02*
D03*
X977100Y17780D02*
D03*
X877100D02*
D03*
X927100D02*
D03*
X165500Y78260D02*
D03*
Y18260D02*
D03*
X265500Y78260D02*
D03*
X115500D02*
D03*
Y18260D02*
D03*
X265500D02*
D03*
X966470Y241300D02*
D03*
Y215900D02*
D03*
Y190500D02*
D03*
X887730Y165100D02*
D03*
Y215900D02*
D03*
X686600Y388620D02*
D03*
X786600D02*
D03*
X736600D02*
D03*
X786600Y17780D02*
D03*
X686600D02*
D03*
X736600D02*
D03*
X496100Y388620D02*
D03*
X596100D02*
D03*
X546100D02*
D03*
X1146543Y241300D02*
D03*
Y215900D02*
D03*
Y190500D02*
D03*
X1067803Y165100D02*
D03*
Y215900D02*
D03*
X877100Y388620D02*
D03*
X977100D02*
D03*
X927100D02*
D03*
X596100Y17780D02*
D03*
X496100D02*
D03*
X546100D02*
D03*
X308610Y165100D02*
D03*
Y190500D02*
D03*
Y215900D02*
D03*
Y241300D02*
D03*
X387350D02*
D03*
Y215900D02*
D03*
Y190500D02*
D03*
D21*
X286390Y370990D02*
D03*
X386320D02*
D03*
D22*
X1287780Y203200D02*
D03*
X33020D02*
D03*
X336320Y370990D02*
D03*
X33020Y153200D02*
D03*
X1287780Y253200D02*
D03*
X236390Y370990D02*
D03*
D23*
X33020Y253200D02*
D03*
X1287780Y153200D02*
D03*
D24*
X887730Y241300D02*
D03*
X1067803D02*
D03*
X387350Y165100D02*
D03*
D25*
X1131100Y69570D02*
D03*
Y86830D02*
D03*
X1018540Y149860D02*
D03*
X919480Y165100D02*
D03*
X871220Y271780D02*
D03*
X457772Y254000D02*
D03*
X424180D02*
D03*
X734060Y165100D02*
D03*
X444500Y241300D02*
D03*
X345584Y155414D02*
D03*
X274320Y200660D02*
D03*
X185420Y66040D02*
D03*
X182500Y119760D02*
D03*
X144400Y157860D02*
D03*
X182500Y208560D02*
D03*
X144400D02*
D03*
X753510Y332740D02*
D03*
X927100Y229870D02*
D03*
X686600Y67310D02*
D03*
X753110Y73660D02*
D03*
X720090D02*
D03*
X720490Y332740D02*
D03*
X686600Y92710D02*
D03*
Y339090D02*
D03*
Y313690D02*
D03*
X519430Y104140D02*
D03*
X581420Y52630D02*
D03*
X927100Y257810D02*
D03*
X831850Y313690D02*
D03*
X934720Y313690D02*
D03*
X1164590Y172453D02*
D03*
D26*
X256540Y228600D02*
D03*
Y177800D02*
D03*
M02*
